<svg width="90" height="27" viewBox="0 0 90 27" fill="none" xmlns="http://www.w3.org/2000/svg">
<path d="M4 11.0184C4.31655 11.0184 4.59473 11.1291 4.81535 11.3412C5.03598 11.5532 5.15108 11.8114 5.15108 12.1249C5.15108 12.4384 5.03598 12.6873 4.81535 12.8994C4.59473 13.1115 4.32614 13.2221 4 13.2221C3.83693 13.2221 3.70264 13.2774 3.59712 13.3789C3.49161 13.4803 3.43406 13.6186 3.43406 13.7661C3.43406 13.9137 3.49161 14.052 3.59712 14.1534C3.71223 14.264 3.84652 14.3101 4 14.3101C5.10312 14.3101 6.05276 14.6882 6.82973 15.435C7.60671 16.1819 8 17.0947 8 18.1551C8 19.2154 7.60671 20.1282 6.82973 20.8751C6.04316 21.6312 5.10312 22 4 22C2.89688 22 1.94724 21.622 1.17027 20.8751C0.383694 20.119 0 19.2154 0 18.1551C0 17.8508 0.115114 17.5834 0.335737 17.3713C0.556361 17.1593 0.824943 17.0486 1.14149 17.0486C1.45804 17.0486 1.73621 17.1593 1.95683 17.3713C2.17745 17.5834 2.29257 17.8416 2.29257 18.1551C2.29257 18.6069 2.45563 19.0033 2.80096 19.3168C3.13669 19.6396 3.53956 19.8055 4.00959 19.8055C4.47961 19.8055 4.89209 19.6488 5.22782 19.3168C5.56355 18.9849 5.72662 18.6069 5.72662 18.1551C5.72662 17.7033 5.56355 17.3068 5.22782 16.9841C4.89209 16.6614 4.4892 16.5046 4.00959 16.5046C3.21342 16.5046 2.54197 16.2372 1.98562 15.6932C1.42926 15.1584 1.15108 14.5038 1.15108 13.7477C1.15108 12.9916 1.42926 12.337 1.98562 11.8022C2.54197 11.2674 3.22302 11 4.00959 11L4 11.0184Z" fill="white"/>
<path d="M12.2971 18.0311V20.8945C12.2971 21.1935 12.1841 21.4563 11.9582 21.6738C11.7322 21.8913 11.4686 22 11.1485 22C10.8285 22 10.5649 21.8913 10.3389 21.6738C10.113 21.4563 10 21.2026 10 20.8945V9.1055C10 8.80647 10.113 8.54369 10.3389 8.32621C10.5649 8.10874 10.8285 8 11.1485 8C11.4686 8 11.7322 8.10874 11.9582 8.32621C12.1841 8.54369 12.2971 8.80647 12.2971 9.1055V15.1586L17.1642 11.4162C17.3619 11.2621 17.5973 11.1806 17.8703 11.1806C18.181 11.1806 18.454 11.2893 18.6705 11.4977C18.887 11.7062 19 11.9599 19 12.2589C19 12.5579 18.887 12.8207 18.6705 13.0291C18.6046 13.0925 18.5293 13.1469 18.454 13.1922L14.0764 16.5631L18.614 20.0608L18.5952 20.079C18.5952 20.079 18.6517 20.1243 18.6705 20.1424C18.887 20.3599 19 20.6136 19 20.9126C19 21.2117 18.887 21.4744 18.6705 21.6828C18.454 21.8913 18.1904 22 17.8703 22C17.6067 22 17.3808 21.9275 17.1831 21.7735H17.1737L12.2971 18.0311Z" fill="white"/>
<path d="M22 10.3552C21.7295 10.3552 21.4918 10.2394 21.2951 10.0077C21.0984 9.77606 21 9.49614 21 9.17761C21 8.85907 21.0984 8.57915 21.2951 8.34749C21.4918 8.11583 21.7213 8 22 8C22.2787 8 22.5082 8.11583 22.7049 8.34749C22.9016 8.57915 23 8.85907 23 9.17761C23 9.49614 22.9016 9.77606 22.7049 10.0077C22.5082 10.2394 22.2787 10.3552 22 10.3552ZM22 23C21.7295 23 21.4918 22.8842 21.2951 22.6525C21.0984 22.4208 21 22.1506 21 21.8224V12.6042C21 12.2857 21.0984 12.0058 21.2951 11.7741C21.4918 11.5425 21.7213 11.4266 22 11.4266C22.2787 11.4266 22.5082 11.5425 22.7049 11.7741C22.9016 12.0058 23 12.2857 23 12.6042V21.8224C23 22.1409 22.9016 22.4208 22.7049 22.6525C22.5082 22.8842 22.2787 23 22 23Z" fill="white"/>
<path d="M32.1575 6.67288C31.8164 5.23335 32.0284 3.88491 32.8026 2.61848C33.586 1.34294 34.7197 0.522966 36.1944 0.167638C37.669 -0.187691 39.0516 0.0218501 40.3511 0.796284C41.6415 1.57072 42.471 2.69138 42.8304 4.14914C43.1899 5.60689 42.9779 6.97354 42.1945 8.25819C41.411 9.53372 40.2774 10.3537 38.8027 10.709C37.6137 11.0006 36.4801 10.9186 35.4017 10.463L36.434 14.6268C36.5077 14.9183 36.4617 15.2008 36.305 15.465C36.1483 15.7292 35.9179 15.8932 35.6137 15.9661C35.3096 16.039 35.0331 15.9934 34.7658 15.8385C34.4985 15.6745 34.3326 15.4468 34.2589 15.1552L32.1575 6.68199V6.67288ZM34.2865 5.98044C34.3049 6.04422 34.3234 6.108 34.3418 6.17178L34.4432 6.57266C34.692 7.25599 35.1529 7.79353 35.8073 8.19442C36.5815 8.65908 37.4018 8.78663 38.2774 8.56797C39.1529 8.35842 39.8258 7.86642 40.2866 7.11021C40.7474 6.34488 40.8765 5.534 40.6645 4.66845C40.4525 3.80291 39.9548 3.13781 39.1898 2.68227C38.4248 2.22672 37.6045 2.09916 36.7289 2.30871C35.8534 2.51826 35.1805 3.00114 34.7105 3.75736C34.2773 4.4589 34.139 5.1969 34.2865 5.98956V5.98044Z" fill="white"/>
<path d="M45.681 5.01864C45.8048 3.52905 46.4617 2.29693 47.6233 1.33145C48.804 0.347587 50.1846 -0.0937799 51.7461 0.01656C53.3076 0.1269 54.6025 0.752162 55.6213 1.90154C56.6401 3.05091 57.0971 4.37499 56.9829 5.88297C56.8686 7.39095 56.2211 8.64146 55.031 9.62533C53.8408 10.6092 52.4697 11.0506 50.9082 10.9402C49.6419 10.8483 48.5564 10.4161 47.6424 9.65292L47.3091 13.9654C47.2901 14.2688 47.1568 14.5263 46.9092 14.7285C46.6712 14.9308 46.3856 15.0228 46.0713 14.9952C45.7571 14.9768 45.4905 14.8481 45.2811 14.609C45.0716 14.37 44.9764 14.1033 45.005 13.7999L45.681 5.01864ZM47.9947 5.00945C47.9947 5.07381 47.9947 5.13817 47.9947 5.20254L47.9661 5.61632C47.9947 6.35192 48.2613 7.00477 48.7849 7.58405C49.3943 8.26448 50.1655 8.64146 51.0891 8.70583C52.0222 8.77019 52.8315 8.51274 53.5361 7.92426C54.2407 7.33578 54.6215 6.59099 54.6882 5.69907C54.7548 4.79796 54.4882 4.01638 53.8789 3.33595C53.279 2.65552 52.5078 2.28773 51.5747 2.22337C50.6416 2.159 49.8323 2.41646 49.1277 2.99574C48.4803 3.53825 48.0994 4.20948 47.9947 5.00945Z" fill="white"/>
<path d="M62 10.3552C61.7295 10.3552 61.4918 10.2394 61.2951 10.0077C61.0984 9.77606 61 9.49614 61 9.17761C61 8.85907 61.0984 8.57915 61.2951 8.34749C61.4918 8.11583 61.7213 8 62 8C62.2787 8 62.5082 8.11583 62.7049 8.34749C62.9016 8.57915 63 8.85907 63 9.17761C63 9.49614 62.9016 9.77606 62.7049 10.0077C62.5082 10.2394 62.2787 10.3552 62 10.3552ZM62 23C61.7295 23 61.4918 22.8842 61.2951 22.6525C61.0984 22.4208 61 22.1506 61 21.8224V12.6042C61 12.2857 61.0984 12.0058 61.2951 11.7741C61.4918 11.5425 61.7213 11.4266 62 11.4266C62.2787 11.4266 62.5082 11.5425 62.7049 11.7741C62.9016 12.0058 63 12.2857 63 12.6042V21.8224C63 22.1409 62.9016 22.4208 62.7049 22.6525C62.5082 22.8842 62.2787 23 62 23Z" fill="white"/>
<path d="M71.6055 11C73.1468 11.0921 74.4129 11.6265 75.4037 12.6307C76.4587 13.6901 76.9908 14.9615 77 16.4539V20.701C77 21.1248 76.8899 21.4472 76.6697 21.6683C76.4495 21.8894 76.1835 22 75.8807 22C75.578 22 75.3119 21.8894 75.0918 21.6683C74.8716 21.4472 74.7615 21.134 74.7615 20.7194V16.4724C74.7615 16.4079 74.7615 16.3434 74.7706 16.2789C74.7248 15.4682 74.4128 14.7772 73.8257 14.206C73.1927 13.5704 72.422 13.2479 71.5229 13.2479H71.4771C70.578 13.2479 69.8165 13.5704 69.1743 14.206C68.5872 14.7864 68.2752 15.4774 68.2294 16.2789C68.2294 16.3434 68.2385 16.4079 68.2385 16.4724V20.7194C68.2385 21.134 68.1284 21.4472 67.9083 21.6683C67.6881 21.8894 67.4312 22 67.1193 22C66.8073 22 66.5505 21.8894 66.3303 21.6683C66.1101 21.4472 66 21.1248 66 20.701V16.4539C66.0183 14.9615 66.5505 13.6809 67.5963 12.6307C68.5871 11.6357 69.8532 11.0921 71.3945 11H71.5688H71.6055Z" fill="white"/>
<path d="M87.7557 21.3118C86.8136 22.0408 85.7238 22.4149 84.4954 22.4149C82.9715 22.4149 81.6784 21.8585 80.607 20.7458C79.5357 19.6331 79 18.2806 79 16.7074C79 15.1343 79.5357 13.7818 80.607 12.6691C81.6784 11.5563 82.9807 11 84.4954 11C86.0101 11 87.3123 11.5563 88.3837 12.6691C89.4551 13.7818 89.9908 15.1247 89.9908 16.6978H90V21.2542C90 21.3118 90 21.3789 89.9908 21.4364C89.9538 22.952 89.4181 24.2566 88.3837 25.3309C87.3123 26.4437 86.0101 27 84.4954 27H84.4492C84.1444 27 83.8766 26.8849 83.6549 26.6547C83.4332 26.4245 83.3224 26.1463 83.3224 25.8297C83.3224 25.5132 83.4332 25.235 83.6549 25.0048C83.8766 24.7746 84.1444 24.6595 84.4492 24.6595C84.5046 24.6595 84.5508 24.6595 84.6062 24.6691C85.4559 24.6403 86.1948 24.3046 86.8136 23.6715C87.4417 23.0192 87.7557 22.2326 87.7649 21.3118H87.7557ZM84.4954 13.3022C83.5903 13.3022 82.8237 13.6283 82.1772 14.2902C81.5399 14.952 81.2166 15.7482 81.2166 16.6882C81.2166 17.6283 81.5399 18.4245 82.1772 19.0959C82.8144 19.7674 83.5903 20.0935 84.4954 20.0935C85.4005 20.0935 86.1671 19.7578 86.8044 19.0959C87.4417 18.4341 87.7557 17.6283 87.7557 16.6882C87.7557 15.7482 87.4417 14.952 86.8044 14.2902C86.1671 13.6283 85.4005 13.3022 84.4954 13.3022Z" fill="white"/>
<path d="M24.5842 15C24.4783 15 24.3723 14.9592 24.2989 14.8777L22.1223 12.7011C21.9592 12.538 21.9592 12.2853 22.1223 12.1223C22.2853 11.9592 22.538 11.9592 22.7011 12.1223L24.8777 14.2989C25.0408 14.462 25.0408 14.7147 24.8777 14.8777C24.7962 14.9592 24.6902 15 24.5924 15H24.5842Z" fill="white"/>
<path d="M59.4076 15C59.3016 15 59.1957 14.9592 59.1223 14.8777C58.9592 14.7147 58.9592 14.462 59.1223 14.2989L61.2989 12.1223C61.462 11.9592 61.7147 11.9592 61.8777 12.1223C62.0408 12.2853 62.0408 12.538 61.8777 12.7011L59.7011 14.8777C59.6196 14.9592 59.5136 15 59.4158 15H59.4076Z" fill="white"/>
<path d="M43.6699 20C33.4453 20 25.2454 15.5474 25.1252 15.4783C25.0143 15.4191 24.968 15.271 25.0235 15.1426C25.079 15.0143 25.2176 14.9748 25.3378 15.034C25.5227 15.1327 43.7623 25.0252 59.6538 15.034C59.7648 14.9649 59.9034 15.0044 59.9682 15.1229C60.0329 15.2413 59.9959 15.3894 59.885 15.4585C54.4861 18.8548 48.8191 19.9803 43.6606 19.9803L43.6699 20Z" fill="white"/>
</svg>
