<svg width="81" height="27" viewBox="0 0 81 27" fill="none" xmlns="http://www.w3.org/2000/svg">
<path d="M14.5134 5.89998H5.74671V10.8733H13.8467V15.88H5.74671V25.9266H0.0400391V0.893311H14.5134V5.89998Z" fill="white"/>
<path d="M49.5667 20.92H58.1867V25.9266H43.8667V0.893311H49.5734V20.92H49.5667Z" fill="white"/>
<path d="M28.7467 20.86C24.0734 20.86 22.2801 17.1266 22.2801 13.3933H16.1201C16.1201 20.7066 21.3401 26.38 28.7467 26.38C36.1534 26.38 41.3401 20.7066 41.3401 13.3933H35.1801C35.1801 17.1266 33.3001 20.86 28.7467 20.86Z" fill="white"/>
<path d="M74.7267 13.3933C74.7267 13.3933 74.7267 13.4133 74.7267 13.4266C74.6934 17.6133 71.8134 20.8333 67.5934 20.8333H66.7134V13.4H61.0067V25.9333H68.2601C75.1467 25.9333 80.8867 20.7133 80.8867 13.4H74.7267V13.3933Z" fill="white"/>
<path d="M66.7134 5.99324H67.5934C71.8334 5.99324 74.7067 9.22657 74.72 13.3999H80.88C80.88 6.1199 75.1134 0.899902 68.2534 0.899902H61V13.3999H66.7067V5.99324H66.7134Z" fill="white"/>
</svg>
