<svg width="102" height="30" viewBox="0 0 102 30" fill="none" xmlns="http://www.w3.org/2000/svg">
<path d="M34.2969 16.1392V16H34C34 16 34.0649 16.0928 34.0928 16.1392H34.2969Z" fill="white"/>
<path d="M32.2427 28.9723C32.2427 28.0444 31.2961 27.2834 30.1269 27.2834C28.9577 27.2834 28.0112 28.0351 28.0112 28.9723H32.2427Z" fill="white"/>
<path d="M37 4H39V29H37V4Z" fill="white"/>
<path d="M44.9901 4C45.5445 4 46.0198 4.19257 46.406 4.57775C46.802 4.96294 47 5.42516 47 5.96442C47 6.50368 46.802 6.95629 46.406 7.33184C46.0099 7.71703 45.5346 7.90963 44.9901 7.90963C44.4455 7.90963 43.9802 7.71703 43.5841 7.33184C43.1881 6.94666 43 6.49405 43 5.96442C43 5.43479 43.198 4.96294 43.5841 4.57775C43.9802 4.19257 44.4455 4 44.9901 4ZM43.7822 11.5881H46.2178V30H43.7822V11.5881Z" fill="white"/>
<path d="M65.5459 23.547L67.4344 24.5768C66.814 25.8429 66.0933 26.8538 65.2813 27.6285C64.4694 28.4033 63.557 28.989 62.5352 29.3953C61.5134 29.8016 60.3639 30 59.0866 30C56.2402 30 54.0142 29.0363 52.4085 27.0994C50.8028 25.1721 50 22.9801 50 20.552C50 18.2561 50.6751 16.2153 52.0344 14.4202C53.7587 12.1432 56.0669 11 58.9498 11C61.8328 11 64.296 12.1716 66.075 14.5052C67.334 16.1586 67.9818 18.2183 68 20.6842H52.299C52.3446 22.7817 52.9924 24.5013 54.2422 25.8429C55.4921 27.1845 57.0431 27.8553 58.886 27.8553C59.7709 27.8553 60.6376 27.6947 61.4769 27.3734C62.3162 27.0522 63.0279 26.627 63.6209 26.098C64.2139 25.5689 64.8434 24.7186 65.5276 23.5376L65.5459 23.547ZM65.5459 18.6813C65.2448 17.4436 64.8069 16.4515 64.2413 15.7051C63.6665 14.9682 62.9093 14.3635 61.9696 13.91C61.0299 13.4565 60.0355 13.2297 58.9954 13.2297C57.2803 13.2297 55.8114 13.7966 54.5798 14.9398C53.6766 15.7713 53.0015 17.0184 52.5453 18.6813H65.5459Z" fill="white"/>
<path d="M73 11.4745H75.3597V14.7961C76.2998 13.5275 77.3453 12.5785 78.4964 11.949C79.6475 11.3196 80.8945 11 82.2374 11C83.5803 11 84.8273 11.3486 85.892 12.0556C86.9568 12.7625 87.7338 13.7115 88.2422 14.9027C88.7506 16.0938 89 17.9531 89 20.4709V30H86.6403V21.1682C86.6403 19.0377 86.5539 17.6142 86.3813 16.8976C86.1031 15.6677 85.5851 14.7477 84.8081 14.1279C84.0311 13.5082 83.024 13.1983 81.777 13.1983C80.3477 13.1983 79.0719 13.6728 77.9401 14.6315C76.8082 15.5805 76.0695 16.762 75.705 18.1758C75.4844 19.0958 75.3693 20.7712 75.3693 23.2115V30H73.0096V11.4842L73 11.4745Z" fill="white"/>
<path d="M101.981 13.4471L100.462 14.9871C99.1923 13.7777 97.9615 13.1731 96.75 13.1731C95.9807 13.1731 95.3269 13.4187 94.7788 13.9195C94.2308 14.4202 93.9616 14.9965 93.9616 15.6673C93.9616 16.2531 94.1827 16.8105 94.6346 17.3491C95.0866 17.8876 96.0385 18.5301 97.4808 19.2576C99.2404 20.1552 100.442 21.0149 101.067 21.8463C101.692 22.6872 102 23.632 102 24.6902C102 26.1736 101.471 27.4301 100.413 28.46C99.3557 29.4898 98.0289 30 96.4327 30C95.375 30 94.3558 29.7732 93.3942 29.3197C92.4327 28.8662 91.6346 28.2427 91 27.4396L92.4904 25.7767C93.7019 27.1183 94.9808 27.7892 96.3365 27.7892C97.2884 27.7892 98.0962 27.4868 98.7596 26.8916C99.4231 26.2964 99.7596 25.5878 99.7596 24.7847C99.7596 24.1233 99.5384 23.5281 99.0961 23.0085C98.6538 22.4983 97.6635 21.8558 96.1154 21.0811C94.4519 20.2402 93.3269 19.4087 92.7308 18.5868C92.1346 17.7648 91.8365 16.8295 91.8365 15.7807C91.8365 14.4108 92.3173 13.2675 93.2692 12.3605C94.2211 11.4535 95.4327 11 96.8846 11C98.5769 11 100.279 11.8125 102 13.4376L101.981 13.4471Z" fill="white"/>
<path opacity="0.39" d="M15.8923 19.3682C15.7067 19.3404 15.5582 19.3218 15.419 19.2939C15.2799 19.2661 15.2242 19.3218 15.1871 19.5259C14.7324 22.1706 14.2684 24.8152 13.8137 27.4692C13.7951 27.5991 13.8137 27.7754 13.86 27.896C14.0828 28.4806 14.4911 28.7312 14.9179 28.9446C15.7252 29.3529 16.579 29.4642 17.4327 29.5292C17.6647 29.5478 17.9059 29.557 18.1379 29.557C19.1494 29.5663 20.1608 29.4271 21.1445 29.0374C21.5713 28.8703 21.9796 28.6384 22.2858 28.1744C22.4436 27.9331 22.5178 27.6826 22.4528 27.3299C22.1002 25.372 21.7662 23.4048 21.4228 21.4375C21.3022 20.723 21.1723 20.0085 21.0424 19.2754C20.8104 19.3032 20.6062 19.3311 20.3742 19.3589H15.883L15.8923 19.3682Z" fill="#7A7A7A"/>
<path d="M34.3861 11.3601C32.6694 10.729 30.9156 10.1723 29.1339 9.79182C28.0761 9.56911 27.5843 9.31858 27.343 8.09369C26.4429 3.48181 22.6105 0.438135 18.1471 0.484532C13.6837 0.438135 9.84195 3.48181 8.95112 8.09369C8.70986 9.31858 8.21805 9.55983 7.1602 9.79182C5.37854 10.1723 3.62475 10.729 1.90805 11.3601C0.766679 11.7776 -0.0499511 12.5664 0.0706818 14.014C0.135638 14.877 0.497539 15.4523 1.17494 15.8884C2.78956 16.9184 4.61763 17.3824 6.46424 17.7629C10.3338 18.5702 14.2311 18.8486 18.1563 18.8393C22.0723 18.8578 25.9789 18.5702 29.8485 17.7629C31.6951 17.3824 33.5231 16.9184 35.1378 15.8884C35.8152 15.4523 36.1771 14.877 36.242 14.014C36.3627 12.5664 35.546 11.7869 34.4047 11.3601H34.3861ZM9.43367 13.782C8.94186 14.0325 8.38506 14.1532 7.82829 14.3387C7.22513 14.1624 6.63127 14.0697 6.1209 13.8098C5.55486 13.5222 5.57343 13.0675 6.0838 12.6963C6.8076 12.1581 8.77484 12.1674 9.49864 12.7148C9.95333 13.0582 9.97189 13.5129 9.44296 13.782H9.43367ZM19.7153 15.1646C19.2328 15.3873 18.6946 15.4708 18.1471 15.6193C17.5996 15.4708 17.0521 15.3873 16.5789 15.1646C15.9386 14.8677 15.9293 14.3666 16.5046 13.9769C16.8758 13.7263 17.5068 13.5964 18.1471 13.5964C18.7781 13.5964 19.4183 13.7263 19.7895 13.9769C20.3648 14.3666 20.3649 14.8677 19.7153 15.1646ZM25.2366 10.0888C24.1045 10.3393 22.9724 10.6919 21.8217 10.8126C20.5968 10.9425 19.3627 11.026 18.1378 11.0538C16.9129 11.026 15.688 10.9425 14.4538 10.8126C13.3032 10.6919 12.1804 10.3393 11.039 10.0888C10.5657 9.9867 10.4544 9.68975 10.5194 9.24434C10.8998 6.32131 12.3845 4.13135 15.0848 2.94358C16.1148 2.48889 17.1356 2.2569 18.1378 2.24762C19.14 2.2569 20.1607 2.48889 21.1907 2.94358C23.891 4.13135 25.3665 6.31203 25.7562 9.24434C25.8119 9.68975 25.7005 9.9867 25.2366 10.0888ZM30.1732 13.8098C29.6629 14.0697 29.069 14.1624 28.4658 14.3387C27.9091 14.1532 27.343 14.0325 26.8605 13.782C26.3408 13.5129 26.3501 13.0582 26.8048 12.7148C27.5286 12.1674 29.4958 12.1581 30.2196 12.6963C30.73 13.0768 30.7486 13.5315 30.1825 13.8098H30.1732Z" fill="white"/>
<path d="M21.9053 9.48554C22.7869 9.40202 23.5849 9.31849 24.4015 9.23498C24.4943 6.66457 22.2115 4.1313 19.5112 3.80652C21.3949 5.27267 21.8775 7.25847 21.9053 9.48554Z" fill="white"/>
<path d="M7.52217 28.1001C7.14171 27.9795 7.00252 27.7382 7.11387 27.2928C7.77271 24.676 8.38514 22.0592 9.01615 19.4331C9.11822 18.9877 9.22032 18.5423 9.33167 18.069C9.03473 18.0319 8.79344 18.0134 8.55217 17.9762C8.32019 17.9391 8.22742 18.0134 8.17174 18.2453C7.42938 21.3725 6.66843 24.4904 5.92607 27.6176C5.88896 27.7753 5.92609 27.9795 6.00032 28.1187" fill="white"/>
<path d="M7.42935 28.3878C7.04889 28.2672 6.64063 27.9702 6.82622 27.2186C7.32731 25.2142 7.8098 23.2099 8.29233 21.2055L8.7285 19.3682C8.80273 19.0619 8.86767 18.7557 8.94191 18.4402L8.96977 18.3381C8.81202 18.3196 8.65427 18.301 8.5058 18.2825C8.48724 18.2453 8.47797 18.2639 8.45941 18.3289C8.09752 19.8507 7.73557 21.3725 7.36439 22.8943C6.97465 24.4997 6.5942 26.1051 6.21375 27.7011C6.19519 27.7754 6.21374 27.9052 6.26942 27.998L5.74049 28.2764C5.64769 28.1001 5.57347 27.8217 5.63843 27.5712C6.01888 25.9658 6.40861 24.3605 6.78907 22.7552C7.15097 21.2333 7.52219 19.7115 7.88409 18.1897C7.97689 17.7999 8.20884 17.6329 8.59857 17.6979C8.75632 17.7257 8.92339 17.735 9.0997 17.7535L9.70283 17.8185L9.52652 18.5794C9.45228 18.8949 9.38734 19.2011 9.31311 19.5073L8.87694 21.3447C8.39441 23.3583 7.9212 25.3627 7.41083 27.367C7.32732 27.6918 7.4108 27.7568 7.61495 27.8217L7.43864 28.3878H7.42935Z" fill="white"/>
<path d="M8.36661 29.1301C8.36661 28.2022 7.42013 27.4413 6.25092 27.4413C5.08171 27.4413 4.13518 28.1929 4.13518 29.1301H8.36661Z" fill="white"/>
<path d="M30.2847 28.4156C30.5445 28.1279 30.6652 27.831 30.5538 27.4227C29.9785 25.1121 29.431 22.783 28.8742 20.4631C28.6701 19.6187 28.4659 18.7835 28.2525 17.9113C27.872 17.9484 27.5287 17.9762 27.1575 18.0133C27.2689 18.4866 27.371 18.9227 27.473 19.3588C28.104 21.9942 28.7351 24.6296 29.3939 27.2557C29.496 27.6825 29.3567 27.9052 29.0041 28.0444" fill="white"/>
<path d="M30.4981 28.6198L30.062 28.2115C30.2847 27.9703 30.3404 27.7754 30.2661 27.4877C29.8486 25.8174 29.4496 24.1378 29.0505 22.4583L28.0298 18.2268L27.538 18.2732L28.2154 21.1128C28.6979 23.1357 29.1897 25.1586 29.6908 27.1722C29.83 27.7197 29.6351 28.1002 29.1247 28.3136L28.8927 27.7661C29.1155 27.6733 29.1712 27.5991 29.1062 27.3207C28.5958 25.2978 28.1133 23.2749 27.6215 21.2519L26.7863 17.7443L28.4752 17.5865L29.6166 22.3191C30.0156 23.9987 30.4146 25.669 30.8322 27.3485C30.9528 27.8311 30.8415 28.2301 30.4888 28.6198H30.4981Z" fill="white"/>
<path d="M18.5926 25.0843C18.3977 25.2421 18.2492 25.3442 18.1193 25.4648C18.0265 25.5483 18.0451 26.0401 18.1379 26.1608C18.1936 26.2443 18.2678 26.3278 18.2956 26.4206C18.3142 26.4948 18.2957 26.5969 18.2493 26.6526C18.2121 26.6897 18.0915 26.6897 18.0358 26.6618C17.7296 26.5041 17.4327 26.3278 17.4883 25.9009C17.4883 25.8453 17.4883 25.7896 17.4698 25.7153C17.3027 25.7339 17.1821 25.7896 17.145 25.9659C17.1357 26.0308 17.1079 26.1051 17.0708 26.1515C17.0151 26.2072 16.9316 26.2814 16.8666 26.2721C16.8017 26.2721 16.7089 26.1793 16.6903 26.1144C16.5697 25.6782 16.6903 25.437 17.0986 25.2142C17.3956 25.0565 17.6739 24.8616 17.9523 24.6946C17.9338 24.6296 17.943 24.6111 17.9337 24.6111C17.5718 24.3698 17.4605 24.0729 17.609 23.6646C17.6275 23.6089 17.7018 23.5439 17.7667 23.5347C17.8131 23.5254 17.8873 23.5718 17.9337 23.6089C17.9616 23.6368 17.9894 23.6832 17.9894 23.7296C18.008 24.0358 18.2121 24.1564 18.4998 24.2121C18.4998 24.1564 18.4998 24.1007 18.4998 24.0451C18.4998 23.7574 18.6947 23.5161 18.9823 23.4697C19.2607 23.4233 19.5205 23.5811 19.6226 23.8595C19.7154 24.1193 19.6041 24.4162 19.3442 24.5369C19.1958 24.6018 19.1586 24.6946 19.1679 24.8431C19.1865 25.1215 19.1122 25.3999 19.27 25.669C19.2978 25.7246 19.2607 25.8731 19.205 25.9102C19.1493 25.9473 19.0195 25.9381 18.9545 25.9009C18.6947 25.7246 18.5369 25.4926 18.6112 25.0936L18.5926 25.0843Z" fill="white"/>
</svg>
