<svg width="108" height="24" viewBox="0 0 108 24" fill="none" xmlns="http://www.w3.org/2000/svg">
<path d="M22.789 23.6005L21.0921 6.73646L13.5306 23.6005H12.2356L4.33171 6.73646L2.88787 23.6005H0.416992L2.54553 1.33875H6.54955L13.9027 17.01L20.8986 1.33875H24.7984L27.1205 23.6005H22.789Z" fill="white"/>
<path d="M106.01 22.7805L91.185 7.25835H91.1403C91.1701 8.55559 91.1999 9.74846 91.2296 10.8369C91.2445 11.2992 91.2594 11.7614 91.2594 12.2236C91.2594 12.6859 91.2743 13.1183 91.2892 13.506C91.2892 13.8936 91.2892 14.2515 91.2892 14.5497V22.6612H88.8034V0.399414H90.6789L105.519 15.847C105.504 14.669 105.489 13.5507 105.474 12.5069C105.474 12.0596 105.474 11.6123 105.474 11.1501C105.474 10.6878 105.46 10.2554 105.445 9.83793C105.445 9.42043 105.445 9.04764 105.445 8.7047V0.563433H107.93V22.7805H106.01Z" fill="white"/>
<path d="M45.0865 23.6006C51.4822 23.6006 56.6669 18.4068 56.6669 12C56.6669 5.59317 51.4822 0.399414 45.0865 0.399414C38.6908 0.399414 33.506 5.59317 33.506 12C33.506 18.4068 38.6908 23.6006 45.0865 23.6006Z" fill="white"/>
<path d="M69.974 0.414307C72.4598 2.6211 74.0376 5.82693 74.0376 9.42042C74.0376 15.8768 68.947 21.1403 62.5762 21.4385C64.4666 22.7954 66.7887 23.6005 69.2893 23.6005C75.6898 23.6005 80.8698 18.3967 80.8698 12C80.8698 5.60326 76.047 0.787068 69.974 0.429209V0.414307Z" fill="white"/>
</svg>
