<svg width="159" height="24" viewBox="0 0 159 24" fill="none" xmlns="http://www.w3.org/2000/svg">
<path d="M59.761 21.43C59.761 22.11 59.581 22.57 59.231 22.8C58.881 23.03 58.461 23.15 57.961 23.15C57.461 23.15 57.041 23.03 56.691 22.8C56.341 22.57 56.161 22.12 56.161 21.46C54.661 22.59 52.931 23.15 50.971 23.15C48.541 23.15 46.471 22.29 44.761 20.58C43.051 18.87 42.191 16.8 42.191 14.37C42.191 11.94 43.051 9.86997 44.761 8.15997C46.471 6.44997 48.541 5.58997 50.971 5.58997C53.401 5.58997 55.471 6.44997 57.181 8.15997C58.891 9.86997 59.721 11.89 59.751 14.28V21.42L59.761 21.43ZM54.681 10.68C53.661 9.65997 52.431 9.14997 50.991 9.14997C49.551 9.14997 48.321 9.65997 47.311 10.67C46.301 11.68 45.791 12.91 45.791 14.35C45.791 15.79 46.301 17.02 47.311 18.04C48.321 19.06 49.551 19.57 50.991 19.57C52.431 19.57 53.661 19.06 54.681 18.04C55.551 17.17 56.051 16.15 56.181 14.98V14.31C56.181 14.2 56.181 14.1 56.201 13.99C56.131 12.7 55.631 11.59 54.691 10.67L54.681 10.68Z" fill="white"/>
<path d="M79.181 23.1501C78.691 23.1501 78.261 22.9701 77.911 22.6201C77.561 22.2701 77.381 21.7601 77.381 21.1101V14.3201C77.381 14.2101 77.381 14.1101 77.401 14.0001C77.331 12.7101 76.8209 11.6001 75.8909 10.6801C74.8709 9.66006 73.641 9.15006 72.201 9.15006H72.131C70.691 9.15006 69.461 9.66006 68.441 10.6801C67.501 11.6101 67.001 12.7101 66.931 14.0001C66.941 14.1101 66.951 14.2101 66.951 14.3201V21.1101C66.951 21.7701 66.7709 22.2701 66.4209 22.6201C66.0709 22.9701 65.651 23.1501 65.151 23.1501C64.651 23.1501 64.241 22.9701 63.881 22.6201C63.521 22.2701 63.351 21.7501 63.351 21.0701V14.2801C63.371 11.8901 64.2309 9.85006 65.9209 8.16006C67.5109 6.57006 69.551 5.70006 72.021 5.56006H72.301C74.771 5.70006 76.811 6.57006 78.401 8.16006C78.691 8.45006 78.961 8.75006 79.191 9.06006C79.421 8.76006 79.691 8.46006 79.981 8.16006C81.571 6.57006 83.611 5.70006 86.081 5.56006H86.361C88.8309 5.70006 90.8709 6.57006 92.4609 8.16006C94.1509 9.85006 95.0009 11.8901 95.0309 14.2801V21.0701C95.0309 21.7501 94.851 22.2701 94.5009 22.6201C94.1509 22.9701 93.731 23.1501 93.231 23.1501C92.731 23.1501 92.3109 22.9701 91.9609 22.6201C91.6109 22.2701 91.431 21.7601 91.431 21.1101V14.3201C91.431 14.2101 91.431 14.1101 91.451 14.0001C91.381 12.7101 90.871 11.6001 89.941 10.6801C88.921 9.66006 87.691 9.15006 86.2509 9.15006H86.181C84.7409 9.15006 83.511 9.66006 82.491 10.6801C81.551 11.6101 81.051 12.7101 80.981 14.0001C80.991 14.1101 81.0009 14.2101 81.0009 14.3201V21.1101C81.0009 21.7701 80.821 22.2701 80.471 22.6201C80.121 22.9701 79.701 23.1501 79.201 23.1501H79.161H79.181Z" fill="white"/>
<path d="M114.411 23.1501C113.921 23.1501 113.491 22.9701 113.141 22.6201C112.791 22.2701 112.611 21.7601 112.611 21.1101V14.3201C112.611 14.2101 112.611 14.1101 112.631 14.0001C112.561 12.7101 112.051 11.6001 111.121 10.6801C110.101 9.66006 108.871 9.15006 107.431 9.15006H107.361C105.921 9.15006 104.691 9.66006 103.671 10.6801C102.731 11.6101 102.231 12.7101 102.161 14.0001C102.171 14.1101 102.181 14.2101 102.181 14.3201V21.1101C102.181 21.7701 102.001 22.2701 101.651 22.6201C101.301 22.9701 100.881 23.1501 100.381 23.1501C99.881 23.1501 99.471 22.9701 99.111 22.6201C98.751 22.2701 98.581 21.7501 98.581 21.0701V14.2801C98.601 11.8901 99.461 9.85006 101.151 8.16006C102.741 6.57006 104.781 5.70006 107.251 5.56006H107.531C110.001 5.70006 112.041 6.57006 113.631 8.16006C113.921 8.45006 114.191 8.75006 114.421 9.06006C114.651 8.76006 114.921 8.46006 115.211 8.16006C116.801 6.57006 118.841 5.70006 121.311 5.56006H121.591C124.061 5.70006 126.101 6.57006 127.691 8.16006C129.381 9.85006 130.231 11.8901 130.261 14.2801V21.0701C130.261 21.7501 130.081 22.2701 129.731 22.6201C129.381 22.9701 128.961 23.1501 128.461 23.1501C127.961 23.1501 127.541 22.9701 127.191 22.6201C126.841 22.2701 126.661 21.7601 126.661 21.1101V14.3201C126.661 14.2101 126.661 14.1101 126.681 14.0001C126.611 12.7101 126.101 11.6001 125.171 10.6801C124.151 9.66006 122.921 9.15006 121.481 9.15006H121.411C119.971 9.15006 118.741 9.66006 117.721 10.6801C116.781 11.6101 116.281 12.7101 116.211 14.0001C116.221 14.1101 116.231 14.2101 116.231 14.3201V21.1101C116.231 21.7701 116.051 22.2701 115.701 22.6201C115.351 22.9701 114.931 23.1501 114.431 23.1501H114.391H114.411Z" fill="white"/>
<path d="M151.371 21.43C151.371 22.11 151.191 22.57 150.841 22.8C150.491 23.03 150.071 23.15 149.571 23.15C149.071 23.15 148.651 23.03 148.301 22.8C147.951 22.57 147.771 22.12 147.771 21.46C146.271 22.59 144.541 23.15 142.581 23.15C140.151 23.15 138.081 22.29 136.371 20.58C134.661 18.87 133.801 16.8 133.801 14.37C133.801 11.94 134.661 9.86997 136.371 8.15997C138.081 6.44997 140.151 5.58997 142.581 5.58997C145.011 5.58997 147.081 6.44997 148.791 8.15997C150.501 9.86997 151.331 11.89 151.361 14.28V21.42L151.371 21.43ZM146.291 10.68C145.271 9.65997 144.041 9.14997 142.601 9.14997C141.161 9.14997 139.931 9.65997 138.921 10.67C137.911 11.68 137.401 12.91 137.401 14.35C137.401 15.79 137.911 17.02 138.921 18.04C139.931 19.06 141.161 19.57 142.601 19.57C144.041 19.57 145.271 19.06 146.291 18.04C147.161 17.17 147.661 16.15 147.791 14.98V14.31C147.791 14.2 147.791 14.1 147.811 13.99C147.741 12.7 147.241 11.59 146.301 10.67L146.291 10.68Z" fill="white"/>
<path d="M158.011 0.920005C158.361 1.27 158.541 1.69 158.541 2.19V21.36C158.541 21.85 158.361 22.27 158.011 22.63C157.661 22.98 157.241 23.16 156.741 23.16C156.241 23.16 155.831 22.98 155.471 22.63C155.111 22.28 154.941 21.86 154.941 21.36V2.18C154.941 1.69 155.121 1.26 155.471 0.910005C155.821 0.560005 156.241 0.380005 156.741 0.380005C157.241 0.380005 157.661 0.560005 158.011 0.910005V0.920005Z" fill="white"/>
<path d="M39.371 12.97C38.381 12.97 37.571 13.78 37.571 14.77C37.571 16.29 36.341 17.52 34.821 17.52C33.301 17.52 32.111 16.32 32.071 14.83V12.94C32.051 10.12 31.191 7.71002 29.501 5.72002C27.911 3.84002 25.871 2.81002 23.401 2.65002H23.121C20.651 2.82002 18.611 3.84002 17.021 5.72002C16.321 6.54002 15.781 7.43002 15.371 8.40002C13.781 6.82002 11.751 5.95002 9.28099 5.81002H9.00099C6.53099 5.95002 4.49099 6.82002 2.90099 8.41002C1.21099 10.1 0.350994 12.15 0.330994 14.54V21.33C0.330994 22.01 0.510994 22.53 0.860994 22.88C1.21099 23.23 1.63099 23.41 2.13099 23.41C2.63099 23.41 3.05099 23.23 3.40099 22.88C3.75099 22.53 3.93099 22.02 3.93099 21.37V14.58C3.93099 14.47 3.93099 14.37 3.91099 14.26C3.98099 12.97 4.48099 11.86 5.42099 10.94C6.44099 9.92002 7.67099 9.41002 9.11099 9.41002H9.18099C10.621 9.41002 11.851 9.92002 12.871 10.94C13.811 11.87 14.311 12.97 14.381 14.26C14.371 14.37 14.361 14.47 14.361 14.58V21.37C14.361 22.03 14.541 22.53 14.891 22.88C15.241 23.23 15.661 23.41 16.161 23.41C16.181 23.41 16.191 23.41 16.211 23.41C16.221 23.41 16.241 23.41 16.251 23.41C16.681 23.41 17.051 23.24 17.371 22.93C17.391 22.91 17.411 22.9 17.431 22.88C17.441 22.87 17.451 22.86 17.461 22.84C17.481 22.82 17.501 22.8 17.521 22.78C17.551 22.74 17.571 22.7 17.601 22.66C17.631 22.62 17.661 22.58 17.681 22.54C17.921 22.15 18.051 21.64 18.051 21V12.99C18.051 12.87 18.051 12.74 18.031 12.62C18.101 11.1 18.601 9.79002 19.541 8.70002C20.561 7.50002 21.791 6.89002 23.231 6.89002H23.301C24.741 6.89002 25.971 7.49002 26.991 8.70002C27.931 9.79002 28.431 11.1 28.501 12.62C28.491 12.74 28.481 12.87 28.481 12.99V14.61C28.481 14.67 28.461 14.72 28.461 14.77C28.461 14.88 28.471 14.99 28.481 15.1V15.19C28.701 18.5 31.451 21.12 34.811 21.12C38.171 21.12 41.161 18.27 41.161 14.77C41.161 13.78 40.351 12.97 39.361 12.97H39.371Z" fill="white"/>
</svg>
