<svg width="128" height="100" viewBox="0 0 128 100" fill="none" xmlns="http://www.w3.org/2000/svg">
<g clip-path="url(#clip0_174_171)">
<path d="M16.4876 15.3565C16.6282 13.0114 16.588 16.9821 16.7285 14.637C16.8155 17.1886 16.133 15.4431 16.2133 18.8675L16.2936 18.7009C16.4207 20.1066 16.1664 22.5384 16.394 23.5044C16.3605 26.3758 16.1798 24.7236 16.0192 24.7302V26.609C16.1263 28.2212 16.22 30.4931 16.4207 30.6063V27.7549C16.4207 28.2146 16.4809 27.8615 16.5077 28.048C16.2401 30.02 17.3241 35.2099 16.5144 33.7575C16.4676 33.3778 16.4943 32.3718 16.4006 32.0787C16.2133 32.2252 16.307 34.1773 16.2869 35.6496C16.4809 37.1619 16.8021 38.8875 16.6951 41.2525C16.6415 42.072 16.5278 41.5857 16.4809 42.4051C16.6884 47.2352 16.2401 47.0354 16.3337 52.112C16.0995 55.2832 16.2668 59.1673 16.0326 62.3318C16.1999 61.8521 16.1062 64.4371 16.0862 65.0833C16.0661 65.2032 16.0393 65.4231 16.0192 65.6963V71.2592C16.0192 71.3924 16.1263 71.499 16.2601 71.499H17.9129C18.0467 71.499 18.1538 71.3924 18.1538 71.2592V60.7062L18.0802 59.054C18.0936 58.7409 18.127 59.0673 18.1538 59.2272V57.4084C18.0936 56.6489 18.02 55.9428 18.1538 55.1166V49.7669C18.1136 48.8342 18.0869 47.7882 18.1538 46.7889V43.4577C17.9932 43.3711 17.8259 43.1579 17.7791 39.6336C17.8393 38.641 17.7456 36.1893 17.9464 36.3425C18.02 35.6563 17.7724 35.01 17.933 34.2505L18.0133 33.8641L18.1404 37.2352C18.1137 37.3618 18.0601 37.615 18.0668 37.9214C18.0936 37.7882 18.127 37.8748 18.1538 38.068V27.9148L18.0601 26.4624C17.9263 26.3558 17.9196 27.8348 17.8192 28.6543L17.8527 29.5737C17.3174 28.6276 17.7255 24.3638 17.7189 21.2259C17.7055 20.9927 17.6921 20.5863 17.6854 19.9268C17.7055 20.3265 17.7189 20.7662 17.7189 21.2259C17.7858 22.3185 17.9062 19.6203 18.0066 20.9261L18.0267 19.7535C18.0267 20.3598 18.0869 21.3192 18.1471 22.5384V14.4371C18.0601 10.8728 17.9263 7.4684 17.7791 4.39046C17.8192 4.57034 17.8661 5.05668 17.9129 4.49705C17.9196 3.38446 17.8393 2.50505 17.7456 1.77886C17.7189 1.60565 17.6988 1.43243 17.672 1.26587C17.6586 1.18593 17.6453 1.10598 17.6386 1.02603C17.6252 0.946086 17.6185 0.946086 17.6051 0.906113C17.6051 0.9261 17.6051 0.959411 17.5917 0.979398C17.5583 0.892789 17.5583 0.799517 17.5181 0.74622C17.498 0.719571 17.4847 0.692922 17.4445 0.68626C17.478 0.699584 17.498 0.719571 17.5181 0.74622C17.5449 0.786193 17.565 0.839491 17.5984 0.906113C17.6118 0.846153 17.6185 0.792855 17.6252 0.726233C17.6586 0.632962 17.5984 0.50638 17.478 0.533028C17.3709 0.533028 17.2571 0.533028 17.1434 0.539691H16.9761L16.8958 0.553015L16.7419 0.56634C16.6951 0.573002 16.6415 0.56634 16.6081 0.606313C16.5679 0.646286 16.5813 0.706246 16.588 0.752882L16.6081 0.899451C16.6081 0.946086 16.6215 0.966073 16.6215 1.11264C16.6415 1.58566 16.6549 2.03869 16.6683 2.44509C16.5144 4.25721 16.3337 5.44975 16.4475 8.51437L16.3137 8.40778L16.2467 10.8795C16.2267 10.2665 16.1664 10.5197 16.1397 10.6463C16.0995 10.4664 16.1263 10.3398 16.1397 9.90678C16.0995 9.87347 16.0527 9.91344 16.0059 10V16.0893C16.1798 16.0427 16.3873 16.0693 16.4676 15.3765L16.4876 15.3565ZM16.4408 22.2186C16.5479 19.8535 16.5813 22.8915 16.7151 22.3718L16.7285 24.4904C16.5813 24.5503 16.5679 22.4318 16.4408 22.2186ZM17.2839 9.61364L17.3575 8.18792C17.5181 9.95341 17.4512 11.6856 17.498 13.6509C17.304 12.7582 17.3575 10.7462 17.2705 9.567C17.2371 9.48706 17.1969 9.59365 17.1969 8.95408C17.2304 9.10731 17.2505 9.32716 17.2705 9.567C17.2705 9.58033 17.2839 9.59365 17.2839 9.6203V9.61364Z" fill="#886D56"/>
<path d="M16.0393 5.78287C16.0795 4.63696 16.0661 3.89746 16.0259 3.25122V5.70292C16.0259 5.70292 16.0326 5.74956 16.0393 5.78287Z" fill="#886D56"/>
<path d="M22.3292 5.78274C22.3694 4.63018 22.356 3.89733 22.3159 3.2511V5.7028C22.3159 5.7028 22.3225 5.74943 22.3292 5.78274Z" fill="#886D56"/>
<path d="M22.7843 15.3564C22.9248 13.0113 22.8846 16.982 23.0251 14.6369C23.1121 17.1885 22.4296 15.443 22.5099 18.8674L22.5902 18.7008C22.7173 20.1066 22.4631 22.5383 22.6906 23.5043C22.6571 26.3757 22.4764 24.7235 22.3159 24.7302V26.6089C22.4229 28.2212 22.5166 30.493 22.7173 30.6062V27.7548C22.7173 28.2145 22.7776 27.8614 22.8043 28.0479C22.5367 30.02 23.6207 35.2098 22.811 33.7575C22.7642 33.3777 22.7909 32.3717 22.6973 32.0786C22.5099 32.2252 22.6036 34.1772 22.5835 35.6495C22.7776 37.1619 23.0988 38.8874 22.9917 41.2525C22.9382 42.0719 22.8244 41.5856 22.7776 42.405C22.985 47.2352 22.5367 47.0353 22.6304 52.1119C22.3962 55.2831 22.5634 59.1672 22.3292 62.3318C22.4965 61.8521 22.4028 64.437 22.3828 65.0833C22.3627 65.2032 22.3359 65.423 22.3159 65.6962V71.2591C22.3159 71.3924 22.4229 71.499 22.5567 71.499H24.2095C24.3434 71.499 24.4504 71.3924 24.4504 71.2591V60.7062L24.3768 59.0539C24.3902 58.7408 24.4237 59.0673 24.4504 59.2272V57.4084C24.3902 56.6489 24.3166 55.9427 24.4504 55.1166V49.7668C24.4103 48.8341 24.3835 47.7881 24.4504 46.7888V43.4577C24.2898 43.3711 24.1225 43.1579 24.0757 39.6336C24.1359 38.6409 24.0422 36.1892 24.243 36.3424C24.3166 35.6562 24.069 35.01 24.2296 34.2505L24.3099 33.8641L24.437 37.2352C24.4103 37.3617 24.3567 37.6149 24.3634 37.9214C24.3902 37.7881 24.4237 37.8747 24.4504 38.0679V27.9147L24.3567 26.4623C24.2229 26.3557 24.2162 27.8348 24.1158 28.6542L24.1493 29.5736C23.614 28.6276 24.0222 24.3704 24.0155 21.2258C24.0021 20.9926 23.9887 20.5863 23.982 19.9267C24.0021 20.3264 24.0155 20.7661 24.0155 21.2258C24.0824 22.3118 24.2028 19.6202 24.3032 20.926L24.3233 19.7535C24.3233 20.3597 24.3835 21.3191 24.4437 22.5383V14.437C24.3567 10.8727 24.2229 7.46833 24.0757 4.39705C24.1158 4.57693 24.1627 5.06327 24.2095 4.50364C24.2162 3.39105 24.1359 2.51164 24.0422 1.78546C24.0155 1.61224 23.9954 1.43902 23.9686 1.27246C23.9553 1.19252 23.9419 1.11257 23.9352 1.03262C23.9218 0.952678 23.9151 0.952678 23.9017 0.912705C23.9017 0.932692 23.9017 0.966003 23.8883 0.985989C23.8549 0.89938 23.8549 0.806109 23.8147 0.752811C23.7947 0.726163 23.7813 0.699514 23.7411 0.692851C23.7746 0.706176 23.7947 0.726163 23.8147 0.752811C23.8415 0.792785 23.8616 0.846083 23.895 0.912705C23.9084 0.852745 23.9151 0.799447 23.9218 0.732825C23.9553 0.639554 23.895 0.512971 23.7746 0.53962C23.6675 0.53962 23.5538 0.53962 23.44 0.546282H23.2727L23.1924 0.559607L23.0385 0.572931C22.9917 0.579594 22.9382 0.572931 22.9047 0.612905C22.8646 0.652878 22.8779 0.712838 22.8846 0.759474L22.9047 0.906043C22.9047 0.952678 22.9181 0.972665 22.9181 1.11923C22.9382 1.59225 22.9515 2.04528 22.9649 2.45168C22.811 4.2638 22.6304 5.45634 22.7441 8.52097L22.6103 8.41437L22.5434 10.8861C22.5233 10.2731 22.4631 10.5263 22.4363 10.6529C22.3962 10.473 22.4229 10.3464 22.4363 9.91337C22.3962 9.88006 22.3493 9.92003 22.3025 10.0066V16.0959C22.4765 16.0493 22.6839 16.0759 22.7642 15.3831L22.7843 15.3564ZM22.7374 22.2185C22.8445 19.8534 22.8779 22.8914 23.0185 22.3717L23.0318 24.4903C22.8846 24.5503 22.8712 22.4317 22.7441 22.2185H22.7374ZM23.5805 9.61357L23.6541 8.18785C23.8147 9.95334 23.7478 11.6855 23.7947 13.6509C23.6006 12.7581 23.6541 10.7461 23.5672 9.56693C23.5337 9.48699 23.4935 9.59358 23.4935 8.95401C23.527 9.10724 23.5471 9.32709 23.5672 9.56693C23.5672 9.58026 23.5805 9.59358 23.5805 9.62023V9.61357Z" fill="#886D56"/>
<path d="M79.427 71.3591C79.581 71.2925 79.6947 71.1592 79.7549 71.006C79.8352 70.7861 79.8352 70.8861 79.8152 71.046C79.8085 71.1059 79.7817 71.1592 79.7549 71.2058C79.8419 71.0926 79.9088 70.9527 79.9088 70.7995V69.1672C79.8954 69.034 79.8888 68.8874 79.8754 68.7475C79.8085 67.968 79.7616 67.2285 79.9088 66.3691V59.96C79.8553 58.8408 79.8285 57.5883 79.9088 56.3957V52.4117C79.7014 52.3051 79.4873 52.0586 79.427 47.8281C79.5007 46.6356 79.3869 43.7042 79.6412 43.8907C79.7282 43.0713 79.4137 42.2985 79.6211 41.3857L79.7282 40.926L79.8888 44.9633C79.8553 45.1099 79.7817 45.4164 79.8018 45.7828C79.8352 45.6229 79.8754 45.7295 79.9155 45.956V33.7975L79.7951 32.0586C79.6278 31.932 79.6144 33.7042 79.4873 34.6835L79.5341 35.7828C78.8516 34.6502 79.3735 29.5536 79.3668 25.7961C79.3468 25.5163 79.3334 25.03 79.3267 24.2305C79.3534 24.7102 79.3668 25.2365 79.3668 25.7961C79.4471 27.1019 79.6077 23.8707 79.7415 25.4297L79.7683 24.024C79.7683 24.7502 79.8486 25.8961 79.9222 27.3551V17.6549C79.8085 13.3844 79.6412 9.31377 79.4538 5.62956C79.5007 5.84275 79.5676 6.42237 79.6211 5.75614C79.6278 4.43036 79.5274 3.37107 79.407 2.50498C79.3468 2.09858 79.2865 1.71217 79.2263 1.35908C79.2263 1.41904 79.2129 1.47233 79.2062 1.53229L79.1728 1.23916L79.1393 1.1259C79.1393 1.1259 79.1192 1.06594 79.1126 1.04595C79.0925 1.01264 79.0791 0.979328 79.0523 0.959342C79.0791 0.979328 79.0992 1.01264 79.1126 1.04595C79.1192 1.05928 79.1326 1.06594 79.1393 1.08592L79.1795 1.17253C79.1795 1.17253 79.2062 1.22583 79.2196 1.33243C79.2196 1.33909 79.2196 1.35241 79.2196 1.36574C79.233 1.2658 79.2397 1.17253 79.2464 1.0726C79.2665 0.966004 79.2464 0.832759 79.1594 0.74615C79.0724 0.652879 78.9252 0.659542 78.7981 0.672866C78.5706 0.679528 78.3364 0.692853 78.0955 0.706177C76.9646 0.752813 75.7869 0.832759 74.7899 0.852746C72.6152 0.652879 71.1765 0.426364 67.4896 0.56627L67.6167 0.399715L64.639 0.313106C65.3751 0.286457 65.074 0.213172 64.9201 0.179861C65.1342 0.133226 65.2881 0.166537 65.81 0.179861C65.8502 0.126564 65.7966 0.0666035 65.703 0.0133057H63.5283C63.1468 0.0133057 62.8457 0.319768 62.8457 0.692853V4.75015C63.0732 4.69685 63.3275 4.7235 63.4413 3.89738C63.6219 1.08592 63.5751 5.84275 63.7558 3.03129C63.8695 6.08259 62.9996 3.99732 63.0933 8.09458L63.2004 7.89472C63.3677 9.58026 63.0331 12.4917 63.3275 13.6442C63.2807 17.0819 63.0599 15.0966 62.8524 15.1032V17.3551C62.9929 19.2871 63.1067 22.0053 63.3677 22.1386V18.7208C63.3677 19.2738 63.448 18.8474 63.4747 19.0739C63.1335 21.4324 64.5186 27.6482 63.4814 25.9094C63.4212 25.4563 63.4547 24.2505 63.3409 23.8974C63.1 24.0706 63.2205 26.409 63.2004 28.1679C63.448 29.98 63.8628 32.0453 63.7223 34.8767C63.6554 35.8561 63.5149 35.2765 63.448 36.2558C63.7089 42.0386 63.1402 41.7988 63.2539 47.8747C62.9528 51.6722 63.1669 56.3224 62.8725 60.1132C63.0866 59.5336 62.9729 62.6316 62.9394 63.4044C62.9126 63.551 62.8859 63.8108 62.8524 64.1439V70.8061C62.8524 71.1859 63.1602 71.4857 63.5349 71.4857H78.0352L78.9453 71.439C79.1126 71.4257 79.2865 71.439 79.4337 71.3657L79.427 71.3591ZM63.3744 12.0986C63.5149 9.26047 63.5483 12.9047 63.729 12.2785L63.7424 14.8168C63.555 14.8901 63.5349 12.3517 63.3677 12.0986H63.3744ZM78.7847 11.9054L78.8784 10.1932C79.0858 12.3051 79.0055 14.3837 79.0523 16.7288C78.8114 15.6695 78.8717 13.2578 78.7646 11.8454C78.7178 11.7388 78.6642 11.8921 78.6709 11.0992C78.7111 11.2858 78.7445 11.5456 78.7646 11.8454C78.7646 11.8587 78.778 11.8721 78.7847 11.8987V11.9054Z" fill="#E77F25"/>
<path d="M73.7929 0H70.8487C70.8152 0 70.7817 0.0133244 70.7483 0.0199867C72.1334 0.0732845 73.01 0.05996 73.7929 0Z" fill="#E77F25"/>
<path d="M111.981 70.6063V67.1952C111.927 65.9427 111.9 64.5437 111.981 63.2046V58.7475C111.773 58.6276 111.559 58.3478 111.499 53.6176C111.573 52.2852 111.459 49.0007 111.713 49.2139C111.8 48.2945 111.486 47.4284 111.693 46.4091L111.8 45.8961L111.961 50.4131C111.927 50.5797 111.854 50.9194 111.874 51.3325C111.907 51.1526 111.947 51.2659 111.987 51.5257V37.9281L111.867 35.9827C111.7 35.8428 111.686 37.8215 111.566 38.9208L111.606 40.1533C110.924 38.8875 111.445 33.1846 111.439 28.9741C111.419 28.6609 111.405 28.1146 111.399 27.2219C111.425 27.7615 111.439 28.3545 111.439 28.9741C111.519 30.4331 111.68 26.8155 111.807 28.5677L111.834 26.9954C111.834 27.8082 111.914 29.094 111.987 30.7262V19.8668C111.874 15.09 111.706 10.533 111.519 6.40911C111.566 6.64895 111.633 7.29519 111.686 6.54902C111.693 5.06334 111.593 3.87747 111.472 2.91144C111.405 2.45841 111.352 1.97873 111.292 1.61897C111.292 1.68559 111.278 1.75222 111.271 1.8255L111.211 1.21258C111.191 1.13263 111.178 1.06601 111.124 1.01271C111.178 0.992723 111.238 1.24589 111.292 1.61897C111.372 0.706248 111.385 0.586327 110.013 0.699585C108.749 0.746221 107.431 0.826167 106.313 0.846154C103.877 0.646287 102.265 0.419772 98.1429 0.559678L98.2835 0.393123L94.9511 0.306514C95.7809 0.279865 95.4396 0.206581 95.2656 0.173269C95.5065 0.126634 95.6805 0.159945 96.2626 0.173269C96.3095 0.119972 96.2493 0.0600117 96.1422 0.00671387H87.9452C88.0054 0.226567 87.9787 0.486394 88.9088 0.599652C92.0671 0.779532 86.7207 0.726234 89.879 0.906114C88.166 0.959412 87.8917 0.77287 87.4701 0.586327C87.2627 0.493056 87.0151 0.393123 86.5333 0.333163C86.2924 0.299852 85.9913 0.273203 85.6099 0.259878C85.4025 0.259878 85.2687 0.239892 85.0679 0.259878C84.8805 0.286527 84.6798 0.41311 84.5727 0.619639C84.633 0.59299 84.6999 0.566341 84.7668 0.559678C84.5393 0.866141 84.6731 1.18593 84.6397 1.84549C84.6263 2.43176 84.6196 3.05801 84.6062 3.66427C84.5794 4.8768 84.5727 6.01604 84.7133 6.66228C84.6664 10.5064 84.4456 8.28786 84.2382 8.29452V10.8195C84.372 12.9847 84.4925 16.0227 84.7534 16.1693V12.3452C84.7534 12.9647 84.8337 12.4851 84.8605 12.7382C84.5259 15.3765 85.8976 22.3318 84.8672 20.3865C84.8069 19.8801 84.8404 18.5344 84.7266 18.1346C84.4858 18.3278 84.6062 20.9461 84.5861 22.9181C84.8337 24.9434 85.2486 27.2552 85.1081 30.4264C85.0411 31.5257 84.9006 30.8728 84.8337 31.9721C85.0947 38.4411 84.5259 38.1746 84.6397 44.9767C84.3452 49.2272 84.5527 54.4238 84.2582 58.6743C84.4724 58.028 84.3586 61.4924 84.3252 62.3585C84.2984 62.5184 84.2716 62.8182 84.2382 63.1846V70.6329C84.2382 71.1126 84.6263 71.499 85.1081 71.499H101.167L103.389 71.4058C103.811 71.4191 103.369 71.4657 103.161 71.499H105.604C106.628 71.4258 107.571 71.3325 108.689 71.499H111.091C111.573 71.499 111.961 71.1126 111.961 70.6329L111.981 70.6063ZM84.7802 4.9301C84.9207 1.75888 84.9542 5.8295 85.1348 5.12996L85.1482 7.96807C84.9608 8.04802 84.9408 5.20991 84.7802 4.92344V4.9301ZM110.863 13.4311L110.957 11.519C111.164 13.8841 111.077 16.2026 111.131 18.8342C110.89 17.6483 110.95 14.9567 110.843 13.3711C110.796 13.2512 110.743 13.4244 110.75 12.5384C110.79 12.7515 110.823 13.038 110.843 13.3711C110.843 13.3845 110.857 13.4044 110.863 13.4311Z" fill="#886D56"/>
<path d="M105.202 0H101.91C101.87 0 101.837 0.0133244 101.796 0.0199867C103.342 0.0732845 104.332 0.05996 105.202 0Z" fill="#886D56"/>
<path d="M52.8488 0H50.1187C50.1187 0 50.0584 0 50.025 0.00666222C51.3097 0.0399733 52.1261 0.0266489 52.8488 0Z" fill="#886D56"/>
<path d="M48.1715 8.7342C48.2785 6.12927 48.2451 10.5397 48.3521 7.93473C48.4191 10.7662 47.9105 8.83413 47.964 12.6316L48.0243 12.4451C48.1179 14.0107 47.9306 16.7089 48.0979 17.7815C48.0711 20.9727 47.9373 19.1406 47.8168 19.1406V21.2259C47.8971 23.018 47.964 25.5363 48.1179 25.6629V22.4917C48.1179 23.0047 48.1648 22.6116 48.1849 22.8181C47.9841 25.01 48.7938 30.7728 48.1849 29.1539C48.1514 28.7342 48.1648 27.6149 48.0979 27.2885C47.9573 27.4484 48.0309 29.6203 48.0109 31.2525C48.1581 32.9314 48.399 34.8435 48.3187 37.475C48.2785 38.3811 48.1982 37.8481 48.1581 38.7542C48.312 44.1173 47.9774 43.8974 48.0443 49.5337C47.8704 53.058 47.9908 57.3684 47.8168 60.8861C47.944 60.3531 47.877 63.2179 47.857 63.9374C47.8436 64.0706 47.8235 64.3171 47.8034 64.6236V70.7995C47.8034 71.1792 48.1112 71.479 48.486 71.479H57.7803C58.1617 71.479 58.4629 71.1726 58.4629 70.7995V67.8148L58.4093 65.9827C58.416 65.6296 58.4428 65.996 58.4629 66.1759V64.1572C58.416 63.3111 58.3625 62.5317 58.4629 61.6123V55.6696C58.4294 54.6303 58.416 53.471 58.4629 52.3584V48.6609C58.3424 48.561 58.2153 48.3278 58.1818 44.4104C58.2287 43.3045 58.1617 40.5863 58.309 40.7595C58.3625 39.9934 58.1751 39.2805 58.2956 38.4344L58.3558 38.008L58.4495 41.7522C58.4294 41.8921 58.3893 42.1719 58.3959 42.5117C58.416 42.3651 58.4361 42.4584 58.4629 42.6716V31.3991L58.3893 29.7868C58.2889 29.6669 58.2822 31.3125 58.2086 32.2185L58.2354 33.2379C57.8339 32.1919 58.1417 27.4617 58.135 23.9707C58.1216 23.7109 58.1149 23.2578 58.1082 22.5183C58.1283 22.9647 58.135 23.4511 58.135 23.9707C58.1818 25.1832 58.2755 22.1852 58.3558 23.6309L58.3692 22.3251C58.3692 22.998 58.416 24.064 58.4562 25.4164V16.4224C58.3893 12.4584 58.2889 8.6809 58.1818 5.26318C58.2086 5.46305 58.2487 6.00269 58.2822 5.37644C58.2822 4.14392 58.2287 3.16458 58.1551 2.35845C58.1149 1.9787 58.0814 1.60562 58.048 1.27917C58.048 1.33913 58.048 1.39909 58.0413 1.45905L58.0012 0.919408C57.9945 0.766177 57.9878 0.699555 57.9677 0.659581C57.961 0.639595 57.9476 0.62627 57.9409 0.612946C57.9543 0.62627 57.961 0.639595 57.9677 0.659581C57.9677 0.659581 57.9677 0.666243 57.9744 0.672906C57.9811 0.692892 57.9878 0.712879 57.9945 0.80615C58.0078 0.952719 58.0279 1.10595 58.0413 1.27251C58.0413 1.27251 58.0413 1.27251 58.0413 1.27917C58.0413 1.1326 58.0547 0.992693 58.0614 0.846124C58.0614 0.712879 58.0681 0.672906 58.0614 0.619608C58.048 0.56631 58.0212 0.519675 57.9811 0.473039C57.9409 0.433066 57.8874 0.399754 57.8339 0.38643C57.7803 0.373106 57.7335 0.379768 57.5796 0.379768C57.3253 0.379768 57.0644 0.393092 56.8034 0.399755C55.7528 0.426403 54.6421 0.459715 53.7387 0.486363C52.7283 0.426403 51.8919 0.366443 50.8748 0.32647C50.3663 0.306483 49.8176 0.293159 49.1819 0.293159C48.8875 0.306483 48.4458 0.253186 48.312 0.339794C48.2183 0.38643 48.138 0.479701 48.1179 0.592959C48.0979 0.666243 48.1179 0.899421 48.1179 1.11261L48.0176 0.999355L47.964 3.74419C47.944 3.06464 47.9038 3.34446 47.8837 3.48436C47.857 3.2845 47.877 3.14459 47.8837 2.66491C47.8503 2.6316 47.8168 2.67824 47.7834 2.76484V9.527C47.9172 9.48037 48.0644 9.50035 48.1313 8.7342H48.1715ZM48.1313 16.3558C48.2116 13.7242 48.2317 17.102 48.3388 16.5223V18.8741C48.2384 18.9407 48.225 16.589 48.1313 16.3491V16.3558ZM57.8138 11.0327C57.8138 11.0327 57.8205 11.066 57.8272 11.0926L57.8807 9.50702C58.0012 11.4657 57.9543 13.3911 57.9811 15.5696C57.8406 14.577 57.874 12.3385 57.8071 11.0327C57.7803 10.9461 57.7469 11.066 57.7536 10.3531C57.7803 10.5197 57.7937 10.7662 57.8071 11.0327H57.8138Z" fill="#886D56"/>
<path d="M37.1909 6.30917V12.7182C37.3247 12.6716 37.4719 12.6916 37.5388 11.9654C37.6459 9.49371 37.6124 13.6776 37.7195 11.2059C37.7864 13.8908 37.2779 12.0587 37.3314 15.6563L37.3916 15.483C37.4853 16.9621 37.2979 19.5204 37.4652 20.5397C37.4384 23.5643 37.3046 21.8255 37.1842 21.8255V23.7975C37.2645 25.4964 37.3314 27.8881 37.4853 28.0014V24.9967C37.4853 25.4831 37.5321 25.11 37.5522 25.3098C37.3515 27.3818 38.1611 32.8448 37.5522 31.3192C37.5187 30.9194 37.5321 29.8601 37.4652 29.547C37.3247 29.7002 37.3983 31.7589 37.3782 33.3045C37.5254 34.8968 37.7663 36.7089 37.686 39.2006C37.6459 40.06 37.5656 39.5537 37.5254 40.4131C37.6793 45.4964 37.3448 45.2898 37.4117 50.6329C37.2377 53.9707 37.3581 58.0547 37.1842 61.3924C37.3113 60.8861 37.2444 63.6043 37.2243 64.2838C37.2109 64.4104 37.1909 64.6436 37.1708 64.9301V70.7862C37.1708 71.1659 37.4786 71.4657 37.8533 71.4657H42.8853C43.2667 71.4657 43.5678 71.1593 43.5678 70.7862V64.3038L43.5142 62.565C43.5209 62.2319 43.5477 62.5783 43.5678 62.7449V60.8328C43.5209 60.0267 43.4674 59.2938 43.5678 58.4211V52.7848C43.5343 51.7988 43.5209 50.6996 43.5678 49.6469V46.1426C43.4473 46.0493 43.3202 45.8295 43.2867 42.112C43.3336 41.066 43.2667 38.4877 43.4139 38.6476C43.4674 37.9214 43.28 37.2485 43.4005 36.4491L43.4607 36.0427L43.5544 39.5936C43.5343 39.7269 43.4942 39.9934 43.5009 40.3132C43.5209 40.1733 43.541 40.2665 43.5678 40.4664V29.7802L43.4942 28.2545C43.3938 28.1413 43.3871 29.7002 43.3135 30.5597L43.3403 31.5257C42.9388 30.533 43.2466 26.0493 43.2399 22.7449C43.2265 22.4984 43.2198 22.072 43.2131 21.3658C43.2332 21.7855 43.2399 22.2519 43.2399 22.7449C43.2867 23.8908 43.3804 21.0527 43.4607 22.4251L43.4741 21.1859C43.4741 21.8255 43.5209 22.8315 43.5611 24.1173V15.5896C43.4942 11.8322 43.3938 8.25454 43.2867 5.01669C43.3135 5.20324 43.3537 5.71623 43.3871 5.12329C43.3871 3.9574 43.3336 3.02469 43.26 2.2652C43.2198 1.90544 43.1864 1.55234 43.1529 1.23921C43.1529 1.29917 43.1529 1.35247 43.1462 1.41243L43.1061 0.899439C43.0994 0.746208 43.0927 0.686248 43.0726 0.646275C43.0659 0.63295 43.0592 0.626288 43.0458 0.606301C43.0592 0.619626 43.0659 0.63295 43.0726 0.646275C43.086 0.666261 43.0927 0.686248 43.0994 0.786181C43.1128 0.919426 43.1328 1.07266 43.1462 1.22589C43.1462 1.22589 43.1462 1.22589 43.1462 1.23255C43.1462 1.09931 43.1596 0.959399 43.1663 0.819492C43.1663 0.69291 43.173 0.652937 43.1663 0.606301C43.1529 0.559666 43.1328 0.506368 43.0927 0.466394C42.999 0.379786 42.9522 0.346474 42.7447 0.366461C42.5038 0.366461 42.2563 0.379786 42.0087 0.386448C41.0117 0.413097 39.9544 0.446408 39.1046 0.473057C38.6563 0.446408 38.2347 0.413097 37.8199 0.386448C37.7195 0.386448 37.6191 0.439746 37.5589 0.533017C37.5254 0.579652 37.5121 0.63295 37.5054 0.69291L37.492 1.03935C37.4518 1.99871 37.4384 3.11796 37.4853 4.73022L37.3849 4.62362L37.3314 7.22855C37.3113 6.58232 37.2712 6.84881 37.2511 6.98205C37.2243 6.79551 37.2444 6.66226 37.2511 6.20257C37.2176 6.16926 37.1842 6.20923 37.1507 6.29584L37.1909 6.30917ZM37.5054 19.1939C37.5857 16.7022 37.6057 19.9001 37.7128 19.3538V21.5856C37.6124 21.6523 37.599 19.4204 37.5054 19.1939ZM42.9254 10.4997C42.9254 10.4997 42.9321 10.5264 42.9388 10.553L42.9923 9.04734C43.1128 10.9061 43.0659 12.7316 43.0927 14.7968C42.9522 13.8575 42.9856 11.7389 42.9187 10.4997C42.8919 10.4198 42.8585 10.5264 42.8652 9.85347C42.8919 10.0134 42.9053 10.2465 42.9187 10.4997H42.9254Z" fill="#886D56"/>
<path d="M37.2042 1.88541C37.2109 1.41905 37.2176 1.03264 37.2243 0.686209C37.2243 0.339773 37.4853 0.0866089 37.7529 0.0333111C37.9336 0.0199867 38.1009 0.0133244 38.2749 0H37.8801C37.4987 0 37.1976 0.306462 37.1976 0.679547V1.80546C37.1976 1.80546 37.1976 1.8521 37.2042 1.89207V1.88541Z" fill="#886D56"/>
<path d="M28.8601 1.69883C28.8534 1.53894 28.84 1.39237 28.8333 1.23914V3.6975C28.8333 3.6975 28.84 3.74413 28.8467 3.77744C28.8801 2.89137 28.8801 2.23847 28.8601 1.69217V1.69883Z" fill="#886D56"/>
<path d="M29.3017 13.5843C29.4422 11.1859 29.4021 15.2499 29.5426 12.8448C29.6296 15.4564 28.947 13.6709 29.0273 17.1752L29.1076 17.002C29.2348 18.4411 28.9805 20.9327 29.208 21.9187C29.1746 24.8568 28.9939 23.1712 28.8333 23.1712V25.09C28.9404 26.7422 29.034 29.0673 29.2348 29.1806V26.2558C29.2348 26.7289 29.295 26.3624 29.3218 26.5556C29.0541 28.5743 30.1381 33.8841 29.3285 32.3984C29.2816 32.012 29.3084 30.9794 29.2147 30.6796C29.0273 30.8261 29.121 32.8315 29.1009 34.3305C29.295 35.8761 29.6162 37.6416 29.5091 40.0666C29.4556 40.9061 29.3418 40.4064 29.295 41.2459C29.5024 46.1892 29.0541 45.9827 29.1478 51.1792C28.9136 54.4237 29.0809 58.4011 28.8467 61.6456C29.014 61.1526 28.9203 63.7975 28.9002 64.4637C28.8801 64.5903 28.8534 64.8101 28.8333 65.0966V70.7928C28.8333 71.1726 29.1411 71.4724 29.5158 71.4724H32.4132C32.7946 71.4724 33.0957 71.1659 33.0957 70.7928V62.5583L33.0221 60.8661C33.0355 60.5463 33.069 60.8794 33.0957 61.0393V59.1806C33.0355 58.4011 32.9619 57.6816 33.0957 56.8355V51.3524C33.0556 50.3931 33.0288 49.3271 33.0957 48.3011V44.8901C32.9351 44.7968 32.7678 44.5836 32.721 40.9727C32.7812 39.9534 32.6875 37.4417 32.8883 37.6083C32.9619 36.9021 32.7143 36.2492 32.8749 35.4697L32.9552 35.0766L33.0823 38.5277C33.0556 38.6543 33.002 38.9141 33.0087 39.2272C33.0355 39.094 33.069 39.1806 33.0957 39.3738V28.9807L33.002 27.495C32.8682 27.3884 32.8615 28.9008 32.7611 29.7402L32.7946 30.6796C32.2593 29.7135 32.6675 25.3498 32.6608 22.1319C32.6474 21.8921 32.634 21.479 32.6273 20.7995C32.6474 21.2059 32.6608 21.6589 32.6608 22.1319C32.7277 23.2445 32.8481 20.493 32.9485 21.8255L32.9686 20.6196C32.9686 21.2392 33.0288 22.2185 33.089 23.471V15.1766C33.002 11.5257 32.8682 8.04799 32.721 4.89676C32.7611 5.0833 32.808 5.5763 32.8548 5.00335C32.8615 3.86411 32.7812 2.96471 32.6875 2.21854C32.6407 1.87211 32.5939 1.51235 32.547 1.23253C32.547 1.28583 32.5403 1.33247 32.5336 1.38576C32.5203 1.23253 32.5002 1.01934 32.4868 0.919407C32.4667 0.859447 32.46 0.80615 32.4199 0.766176C32.46 0.752852 32.5069 0.946056 32.5537 1.23253C32.6206 0.539661 32.6206 0.433065 31.6035 0.526336C31.1218 0.546323 30.6266 0.572972 30.1448 0.592958C30.0244 0.592958 29.9039 0.606283 29.7902 0.606283L29.6697 0.619607C29.5961 0.632932 29.5359 0.692892 29.5091 0.752852C29.4556 0.819474 29.4489 0.846123 29.4221 0.999354C29.4021 1.21921 29.382 1.4324 29.3619 1.63893C29.3218 2.06531 29.2883 2.48503 29.2682 2.95139C29.2147 3.8841 29.2013 4.97004 29.2549 6.53566L29.121 6.42907L29.0541 8.96071C29.034 8.33446 28.9738 8.58763 28.947 8.72087C28.9069 8.53433 28.9337 8.40775 28.947 7.96138C28.9069 7.92807 28.8601 7.96804 28.8132 8.05465V14.2905C28.9872 14.2439 29.1946 14.2638 29.2749 13.5576L29.3017 13.5843ZM29.2549 20.6129C29.3619 18.1879 29.3954 21.2992 29.5359 20.7662L29.5493 22.9381C29.4021 22.998 29.3887 20.8328 29.2615 20.6129H29.2549ZM32.2325 10.2798L32.3061 8.82081C32.4667 10.6263 32.3998 12.3984 32.4467 14.4104C32.2526 13.4977 32.3061 11.4324 32.2191 10.2265C32.1857 10.1466 32.1455 10.2532 32.1455 9.60029C32.179 9.75352 32.1991 9.98003 32.2191 10.2265C32.2191 10.2399 32.2325 10.2532 32.2325 10.2798Z" fill="#886D56"/>
<path d="M9.94344 94.0106C9.42151 93.3444 8.78582 92.958 8.02969 92.8447C8.70553 92.7115 9.28099 92.3517 9.74939 91.7788C10.2178 91.2058 10.452 90.453 10.452 89.5136C10.452 88.5742 10.104 87.7881 9.40143 87.1285C8.69883 86.469 7.74196 86.1359 6.53082 86.1359H0V100H6.6981C7.9494 100 8.92634 99.6602 9.64901 98.974C10.365 98.2878 10.7263 97.3817 10.7263 96.2558C10.7263 95.423 10.4654 94.6702 9.94344 94.004V94.0106ZM2.08103 87.968H6.13602C6.81855 87.968 7.34717 88.1612 7.72858 88.5409C8.10999 88.9207 8.30404 89.4137 8.30404 90.0066C8.30404 90.5996 8.11668 91.0926 7.72858 91.4656C7.34717 91.8387 6.81186 92.0253 6.13602 92.0253H2.08103V87.968ZM7.9494 97.5949C7.52784 97.9813 6.95907 98.1812 6.24309 98.1812H2.08103V93.8574H6.23639C6.97245 93.8574 7.54122 94.0639 7.95609 94.4703C8.37096 94.8767 8.5717 95.403 8.5717 96.0493C8.5717 96.6955 8.36426 97.2085 7.94271 97.6016L7.9494 97.5949Z" fill="#886D56"/>
<path d="M30.011 86.1426V100.007H32.092V86.1426H30.011Z" fill="#886D56"/>
<path d="M62.9796 86.1426L58.9313 95.936L54.8763 86.1426H51.8986V100.007H53.9796V89.1539L58.4963 100.007H59.3729L63.8762 89.1539V100.007H65.9639V86.1426H62.9796Z" fill="#886D56"/>
<path d="M85.7571 96.2558C85.7571 97.375 86.1118 98.2811 86.8345 98.974C87.5504 99.6602 88.5341 100 89.7854 100H96.4835V86.1359H89.946C88.7348 86.1359 87.7779 86.4623 87.0753 87.1285C86.3727 87.7881 86.0181 88.5876 86.0181 89.5136C86.0181 90.4397 86.2523 91.2058 86.7207 91.7788C87.1891 92.3517 87.7645 92.7115 88.4471 92.8447C87.6909 92.958 87.0553 93.3444 86.5333 94.0106C86.0114 94.6768 85.7504 95.4297 85.7504 96.2625L85.7571 96.2558ZM94.4024 92.0253H90.3474C89.6649 92.0253 89.1363 91.8387 88.7482 91.4656C88.3668 91.0926 88.1727 90.6062 88.1727 90.0066C88.1727 89.4137 88.3668 88.9207 88.7482 88.5409C89.1296 88.1612 89.6649 87.968 90.3474 87.968H94.4024V92.0253ZM87.9118 96.0426C87.9118 95.403 88.1192 94.87 88.5274 94.4636C88.9356 94.0506 89.511 93.8507 90.2404 93.8507H94.4024V98.1745H90.2404C89.5177 98.1745 88.9489 97.9746 88.5341 97.5882C88.1125 97.1952 87.9051 96.6822 87.9051 96.0359L87.9118 96.0426Z" fill="#E77F25"/>
<path d="M122.466 86.1426H119.857L114.323 100.007H116.712L121.155 88.2678L125.618 100.007H128L122.466 86.1426Z" fill="#886D56"/>
</g>
<defs>
<clipPath id="clip0_174_171">
<rect width="128" height="100" fill="white"/>
</clipPath>
</defs>
</svg>
