<svg width="164" height="60" viewBox="0 0 164 60" fill="none" xmlns="http://www.w3.org/2000/svg">
<g clip-path="url(#clip0_174_260)">
<path d="M1.03655 34.9524C1.03655 46.3568 8.8173 55.9946 19.3945 58.9244V59.9958C8.23948 57.0354 0 46.9297 0 34.9524C0 22.9752 8.23948 12.8695 19.3945 9.90906V10.9804C8.8173 13.9146 1.03655 23.548 1.03655 34.9524Z" fill="#F5A977"/>
<path d="M52.2995 34.9524C52.2995 46.9253 44.06 57.0354 32.905 59.9958V58.9244C43.4822 55.9902 51.263 46.3568 51.263 34.9524C51.263 23.548 43.4822 13.9102 32.905 10.9804V9.90906C44.06 12.8695 52.2995 22.9752 52.2995 34.9524Z" fill="#F5A977"/>
<path d="M64.619 49.5752H63.1811L62.912 50.2181H62.6871L63.8604 47.4675H63.9486L65.1175 50.2181H64.8881L64.619 49.5752ZM63.2649 49.3828H64.5352L63.9001 47.8523L63.2605 49.3828H63.2649Z" fill="#F5A977"/>
<path d="M69.6165 47.5113V50.2618H69.5283L67.7199 47.966V50.2181H67.5037V47.4675H67.5875L69.4004 49.7808V47.5113H69.6165Z" fill="#F5A977"/>
<path d="M75.2315 47.5112H76.943V47.7036H75.4477V48.6613H76.6121V48.8537H75.4477V50.0256H76.9915V50.218H75.2315V47.5068V47.5112Z" fill="#F5A977"/>
<path d="M81.8214 47.4719V50.2225H81.6052V48.0229L80.6437 49.3785H80.5599L79.5939 48.0229V50.2225H79.3778V47.4719H79.4616L80.5996 49.0811L81.7331 47.4719H81.817H81.8214Z" fill="#F5A977"/>
<path d="M84.9619 50.0781C84.7502 49.9557 84.5781 49.7852 84.4546 49.5709C84.3311 49.3566 84.2694 49.1205 84.2694 48.8669C84.2694 48.6132 84.3311 48.3727 84.4546 48.1585C84.5781 47.9486 84.7502 47.778 84.9619 47.6556C85.178 47.5331 85.4118 47.4719 85.6676 47.4719C85.9235 47.4719 86.1572 47.5331 86.3734 47.6556C86.5895 47.778 86.7615 47.9486 86.885 48.1585C87.0129 48.3727 87.0747 48.6045 87.0747 48.8669C87.0747 49.1292 87.0129 49.361 86.885 49.5709C86.7615 49.7852 86.5895 49.9513 86.3734 50.0781C86.1572 50.2006 85.9235 50.2618 85.6676 50.2618C85.4118 50.2618 85.1736 50.2006 84.9619 50.0781ZM86.2675 49.9032C86.4483 49.7983 86.5895 49.654 86.6909 49.4703C86.7924 49.2867 86.8453 49.0855 86.8453 48.8625C86.8453 48.6395 86.7924 48.4383 86.6909 48.259C86.5895 48.0798 86.4483 47.9311 86.2675 47.8261C86.0867 47.7212 85.8882 47.6687 85.672 47.6687C85.4559 47.6687 85.253 47.7212 85.0722 47.8261C84.8913 47.9311 84.7502 48.0754 84.6487 48.259C84.5473 48.4427 84.4943 48.6439 84.4943 48.8669C84.4943 49.0899 84.5473 49.2954 84.6487 49.4747C84.7502 49.654 84.8913 49.7983 85.0722 49.9076C85.253 50.0169 85.4515 50.065 85.672 50.065C85.8926 50.065 86.0867 50.0126 86.2675 49.9076V49.9032Z" fill="#F5A977"/>
<path d="M90.1094 47.7036H89.1125V47.5112H91.3268V47.7036H90.3255V50.218H90.1094V47.7036Z" fill="#F5A977"/>
<path d="M93.6513 47.5112H93.8674V50.2224H93.6513V47.5112Z" fill="#F5A977"/>
<path d="M97.0035 50.0781C96.7918 49.9557 96.6198 49.7852 96.4963 49.5709C96.3728 49.3566 96.311 49.1205 96.311 48.8669C96.311 48.6132 96.3728 48.3727 96.4963 48.1585C96.6198 47.9486 96.7918 47.778 97.0035 47.6556C97.2197 47.5331 97.4534 47.4719 97.7093 47.4719C97.9651 47.4719 98.1989 47.5331 98.415 47.6556C98.6311 47.778 98.8031 47.9486 98.9267 48.1585C99.0546 48.3727 99.1163 48.6045 99.1163 48.8669C99.1163 49.1292 99.0546 49.361 98.9267 49.5709C98.8031 49.7852 98.6311 49.9513 98.415 50.0781C98.1989 50.2006 97.9651 50.2618 97.7093 50.2618C97.4534 50.2618 97.2152 50.2006 97.0035 50.0781ZM98.3091 49.9032C98.49 49.7983 98.6311 49.654 98.7326 49.4703C98.834 49.2867 98.887 49.0855 98.887 48.8625C98.887 48.6395 98.834 48.4383 98.7326 48.259C98.6311 48.0798 98.49 47.9311 98.3091 47.8261C98.1283 47.7212 97.9298 47.6687 97.7137 47.6687C97.4975 47.6687 97.2946 47.7212 97.1138 47.8261C96.9329 47.9311 96.7918 48.0754 96.6904 48.259C96.5889 48.4427 96.536 48.6439 96.536 48.8669C96.536 49.0899 96.5889 49.2954 96.6904 49.4747C96.7918 49.654 96.9329 49.7983 97.1138 49.9076C97.2946 50.0169 97.4931 50.065 97.7137 50.065C97.9342 50.065 98.1283 50.0126 98.3091 49.9076V49.9032Z" fill="#F5A977"/>
<path d="M103.673 47.5113V50.2618H103.585L101.776 47.966V50.2181H101.56V47.4675H101.644L103.457 49.7808V47.5113H103.673Z" fill="#F5A977"/>
<path d="M109.283 47.5112H109.499V50.2224H109.283V47.5112Z" fill="#F5A977"/>
<path d="M114.241 47.5113V50.2618H114.153L112.344 47.966V50.2181H112.128V47.4675H112.212L114.025 49.7808V47.5113H114.241Z" fill="#F5A977"/>
<path d="M122.295 47.4719V50.2225H122.079V48.0229L121.118 49.3785H121.034L120.068 48.0229V50.2225H119.852V47.4719H119.936L121.074 49.0811L122.207 47.4719H122.291H122.295Z" fill="#F5A977"/>
<path d="M125.436 50.0781C125.224 49.9557 125.052 49.7852 124.929 49.5709C124.805 49.3566 124.743 49.1205 124.743 48.8669C124.743 48.6132 124.805 48.3727 124.929 48.1585C125.052 47.9486 125.224 47.778 125.436 47.6556C125.652 47.5331 125.886 47.4719 126.142 47.4719C126.397 47.4719 126.631 47.5331 126.847 47.6556C127.063 47.778 127.236 47.9486 127.359 48.1585C127.487 48.3727 127.549 48.6045 127.549 48.8669C127.549 49.1292 127.487 49.361 127.359 49.5709C127.236 49.7852 127.063 49.9513 126.847 50.0781C126.631 50.2006 126.397 50.2618 126.142 50.2618C125.886 50.2618 125.648 50.2006 125.436 50.0781ZM126.742 49.9032C126.922 49.7983 127.063 49.654 127.165 49.4703C127.266 49.2867 127.319 49.0855 127.319 48.8625C127.319 48.6395 127.266 48.4383 127.165 48.259C127.063 48.0798 126.922 47.9311 126.742 47.8261C126.561 47.7212 126.362 47.6687 126.146 47.6687C125.93 47.6687 125.727 47.7212 125.546 47.8261C125.365 47.9311 125.224 48.0754 125.123 48.259C125.021 48.4427 124.968 48.6439 124.968 48.8669C124.968 49.0899 125.021 49.2954 125.123 49.4747C125.224 49.654 125.365 49.7983 125.546 49.9076C125.727 50.0169 125.925 50.065 126.146 50.065C126.367 50.065 126.561 50.0126 126.742 49.9076V49.9032Z" fill="#F5A977"/>
<path d="M130.579 47.7036H129.582V47.5112H131.796V47.7036H130.795V50.218H130.579V47.7036Z" fill="#F5A977"/>
<path d="M134.121 47.5112H134.337V50.2224H134.121V47.5112Z" fill="#F5A977"/>
<path d="M137.473 50.0781C137.261 49.9557 137.089 49.7852 136.966 49.5709C136.842 49.3566 136.781 49.1205 136.781 48.8669C136.781 48.6132 136.842 48.3727 136.966 48.1585C137.089 47.9486 137.261 47.778 137.473 47.6556C137.689 47.5331 137.923 47.4719 138.179 47.4719C138.435 47.4719 138.668 47.5331 138.885 47.6556C139.101 47.778 139.273 47.9486 139.396 48.1585C139.524 48.3727 139.586 48.6045 139.586 48.8669C139.586 49.1292 139.524 49.361 139.396 49.5709C139.273 49.7852 139.101 49.9513 138.885 50.0781C138.668 50.2006 138.435 50.2618 138.179 50.2618C137.923 50.2618 137.685 50.2006 137.473 50.0781ZM138.779 49.9032C138.96 49.7983 139.101 49.654 139.202 49.4703C139.304 49.2867 139.357 49.0855 139.357 48.8625C139.357 48.6395 139.304 48.4383 139.202 48.259C139.101 48.0798 138.96 47.9311 138.779 47.8261C138.598 47.7212 138.399 47.6687 138.183 47.6687C137.967 47.6687 137.764 47.7212 137.583 47.8261C137.403 47.9311 137.261 48.0754 137.16 48.259C137.058 48.4427 137.006 48.6439 137.006 48.8669C137.006 49.0899 137.058 49.2954 137.16 49.4747C137.261 49.654 137.403 49.7983 137.583 49.9076C137.764 50.0169 137.963 50.065 138.183 50.065C138.404 50.065 138.598 50.0126 138.779 49.9076V49.9032Z" fill="#F5A977"/>
<path d="M144.142 47.5113V50.2618H144.054L142.246 47.966V50.2181H142.03V47.4675H142.113L143.926 49.7808V47.5113H144.142Z" fill="#F5A977"/>
<path d="M72.2983 22.07L72.2719 22.1444L78.9852 38.3108L75.752 37.5893L73.9965 33.0459L68.086 33.4438L66.2819 38.3108L62.7753 37.5893L68.8358 21.0511L72.2939 22.07H72.2983ZM71.0456 25.424L68.8931 31.2836L73.2026 30.9863L71.0501 25.424H71.0456Z" fill="#F5A977"/>
<path d="M83.696 20.6532V38.3108L80.5643 37.6155V19.9579L83.696 20.6532Z" fill="#F5A977"/>
<path d="M92.2133 38.2102C91.8296 38.1096 91.3444 37.9041 90.7622 37.5893C90.1755 37.2744 89.7433 37.0164 89.461 36.8196V43.8949L86.3293 43.1996C86.2807 32.1888 86.2807 26.5697 86.3293 26.3379C87.3834 26.0406 88.2215 25.8307 88.8478 25.7038C89.4742 25.5814 90.1887 25.4983 90.9915 25.4546C91.7943 25.4152 92.5574 25.5114 93.2852 25.7519C94.013 25.9924 94.7584 26.3598 95.5259 26.8583C96.5272 27.5186 97.2638 28.3013 97.7313 29.2065C98.1989 30.1073 98.4018 30.995 98.3444 31.8652C98.2871 32.7354 98.0621 33.5969 97.6696 34.4496C97.277 35.3023 96.7786 36.0325 96.1787 36.636C95.5788 37.2394 94.9216 37.6898 94.2114 37.9872C93.5013 38.2846 92.8397 38.3589 92.2177 38.2102H92.2133ZM93.8939 34.4845C94.3261 33.9073 94.6746 33.2907 94.9348 32.6348C95.1951 31.9789 95.3362 31.3623 95.3627 30.7851C95.3891 30.2079 95.3362 29.6569 95.2127 29.1322C95.0892 28.6118 94.851 28.1876 94.4982 27.864C94.1453 27.5404 93.7439 27.3218 93.2852 27.2081C92.8264 27.09 92.2619 27.1425 91.5958 27.3568C90.9298 27.5711 90.2196 27.9515 89.4654 28.4981L89.4169 35.5253C89.7168 35.7221 90.1005 35.8576 90.5681 35.9232C91.0356 35.9888 91.5914 35.9145 92.2354 35.7002C92.8794 35.4859 93.4351 35.0793 93.9027 34.4845H93.8939Z" fill="#F5A977"/>
<path d="M102.16 28.8742L100.806 26.6134C101.975 26.3161 103.271 26.0362 104.7 25.7694C106.13 25.5027 107.025 25.3803 107.391 25.3978C107.757 25.4152 108.494 25.9575 109.597 27.0245C110.699 28.0914 111.44 28.9092 111.824 29.4689C111.956 29.6657 112.022 30.3347 112.022 31.4673C112.022 32.5999 112 33.8986 111.961 35.3548C111.921 36.8109 111.908 37.7948 111.921 38.3108L108.816 37.5893L108.842 36.3212C107.488 37.6636 106.385 38.3327 105.534 38.3327C104.731 38.3152 103.712 37.563 102.477 36.0719C101.242 34.5808 100.625 33.5138 100.625 32.8666C100.625 32.355 100.978 31.8827 101.675 31.4498C102.376 31.0213 103.232 30.6845 104.242 30.444C105.252 30.2035 106.147 30.0199 106.932 29.8843C107.717 29.7531 108.384 29.6613 108.935 29.6132L108.961 28.9441C108.979 28.1483 108.551 27.7197 107.682 27.6542C106.879 27.6061 105.194 27.9603 102.623 28.7211H102.596L102.57 28.7474H102.522L102.495 28.7736H102.447L102.42 28.7998H102.372L102.345 28.8261H102.27L102.244 28.8523H102.195L102.169 28.8786H102.142L102.16 28.8742ZM103.412 35.1055C103.562 35.3373 103.845 35.4859 104.264 35.5515C104.683 35.6171 105.314 35.5078 106.156 35.2148C106.999 34.9262 107.912 34.4146 108.9 33.6887L108.926 31.5023C104.52 32.7791 102.68 33.9773 103.417 35.1011L103.412 35.1055Z" fill="#F5A977"/>
<path d="M119.314 29.2458C118.462 28.8479 117.827 28.2444 117.408 27.4311C117.443 27.1643 117.69 26.8276 118.158 26.4122C118.626 25.9968 119 25.7606 119.287 25.6907C120.138 26.0711 120.765 26.6571 121.166 27.4529C120.884 28.1657 120.266 28.7604 119.314 29.2414V29.2458ZM119.314 38.1358C118.462 37.7379 117.827 37.1344 117.408 36.3211C117.443 36.0587 117.69 35.7176 118.158 35.3022C118.626 34.8868 119 34.6507 119.287 34.5807C120.138 34.9611 120.765 35.5471 121.166 36.343C120.884 37.0557 120.266 37.6504 119.314 38.1315V38.1358Z" fill="#F5A977"/>
<path d="M137.473 37.5892V33.3169H133.565C133.565 34.1609 133.45 34.8737 133.225 35.4509C133.001 36.0325 132.723 36.4391 132.401 36.6797C132.074 36.9202 131.721 37.0776 131.338 37.1519C130.954 37.2263 130.619 37.2394 130.336 37.1913C130.054 37.1432 129.825 37.0601 129.661 36.942C128.576 36.2118 127.69 35.4421 127.006 34.6332C126.839 34.4364 126.733 34.1784 126.68 33.8635C126.631 33.5487 126.653 33.2076 126.755 32.8447C126.856 32.4817 127.033 32.1363 127.293 31.8127C127.553 31.4891 127.959 31.2354 128.506 31.043C129.057 30.8506 129.71 30.7763 130.46 30.8069V29.1408C129.807 29.1889 129.423 29.1496 129.309 29.0184C128.806 28.5199 128.219 27.9952 127.544 27.4398C126.869 26.8844 126.353 26.4428 126.005 26.1105C125.705 25.8437 125.559 25.4851 125.568 25.0304C125.577 24.5756 125.714 24.1383 125.983 23.7272C126.252 23.3118 126.583 22.9358 126.984 22.599C127.386 22.258 127.818 22.0787 128.285 22.0524C128.753 22.0262 129.203 22.1793 129.639 22.5116C129.891 22.7259 130.266 23.0363 130.769 23.443C131.271 23.8497 131.651 24.1602 131.907 24.3744C132.167 24.5887 132.462 24.8511 132.798 25.1572C133.133 25.4633 133.406 25.7388 133.622 25.988L133.574 28.0476V30.8769L137.482 30.8506V24.5931H133.874L132.921 22.2099H142.466V24.5931H140.587V38.971L137.482 37.5805L137.473 37.5892ZM130.46 26.8626C130.46 25.3714 130.411 24.58 130.31 24.4794C129.926 24.0814 129.481 24.0333 128.969 24.3307C128.457 24.6281 128.127 25.0347 127.968 25.5464C127.809 26.058 127.84 26.4559 128.056 26.7401C128.422 27.02 129.225 27.0637 130.46 26.8626ZM130.433 33.2207C129.917 33.1551 129.498 33.212 129.181 33.3956C128.863 33.5793 128.7 33.7936 128.691 34.0428C128.682 34.2921 128.744 34.5238 128.881 34.7381C129.031 34.8562 129.225 34.9349 129.459 34.9742C129.692 35.0136 129.913 34.878 130.125 34.5632C130.332 34.2483 130.438 33.8023 130.438 33.2207H130.433Z" fill="#F5A977"/>
<path d="M142.232 24.6018V22.2186H149.171V24.6018H147.243V38.9798L144.138 37.5892V24.6018H142.232Z" fill="#F5A977"/>
<path d="M158.994 37.563V34.0866C157.992 35.2454 156.974 35.827 155.937 35.827C153.948 35.827 152.13 34.2396 150.476 31.0606C150.123 30.4003 150.34 29.6044 151.116 28.6774C151.892 27.7503 152.832 27.02 153.934 26.4909C155.037 25.9618 155.831 25.8525 156.312 26.1673C157.146 26.7795 158.041 27.383 158.994 27.9821V24.6062H148.924V22.223H164.004V24.6062H162.125V38.958L158.994 37.5674V37.563ZM152.907 32.5954C153.092 32.8097 153.374 32.9846 153.758 33.1158C154.142 33.247 154.609 33.317 155.161 33.3257C155.712 33.3345 156.334 33.1333 157.026 32.7179C157.719 32.3025 158.376 31.6815 158.994 30.855V29.2896C157.723 28.6599 156.572 28.5199 155.536 28.8654C154.499 29.2152 153.696 29.8099 153.118 30.6539C152.541 31.4979 152.47 32.145 152.907 32.5911V32.5954Z" fill="#F5A977"/>
<path d="M26.6724 0.00012207H25.6315V60.0001H26.6724V0.00012207Z" fill="#F5A977"/>
<path d="M30.1129 4.74463H29.1116V60.0001H30.1129V4.74463Z" fill="#F5A977"/>
<path d="M23.1879 4.74463H22.1866V60.0001H23.1879V4.74463Z" fill="#F5A977"/>
</g>
<defs>
<clipPath id="clip0_174_260">
<rect width="164" height="60" fill="white"/>
</clipPath>
</defs>
</svg>
