<svg width="131" height="60" viewBox="0 0 131 60" fill="none" xmlns="http://www.w3.org/2000/svg">
<g clip-path="url(#clip0_174_732)">
<path d="M8.03425 7.6311C8.03425 7.6311 8.05219 7.6311 8.05219 7.64879C8.03425 7.66648 8.01794 7.68256 8 7.70025C8.01794 7.68256 8.01794 7.64879 8.03425 7.6311C8.02229 7.6311 8.02229 7.6311 8.03425 7.6311Z" fill="white"/>
<path d="M32.7726 24.3615C33.3633 19.8122 34.0422 15.2646 34.5606 10.7154C34.7581 8.96101 34.3103 7.16963 32.9877 5.93303C31.0568 4.14164 28.6075 3.92777 25.9976 4.01782C26.4984 5.1097 26.8563 6.11313 26.9623 7.18732C27.4085 11.6819 27.2833 16.1957 27.1051 20.6902C27.0521 22.123 27.0152 22.123 25.5498 21.9976C22.6607 21.75 20.0011 22.5556 17.9418 24.1524C15.1987 26.2799 14.3288 29.3497 14.1635 29.9849C13.82 31.2986 13.759 32.6703 13.7445 33.127C13.7221 33.8699 13.6932 34.846 13.9307 36.0022C14.096 36.8063 14.4941 38.7649 16.1072 40.3794C17.1826 41.4552 18.5967 42.1965 20.2756 42.5197C22.2947 42.9137 24.3155 42.7529 26.2994 42.2689C26.7648 42.1611 26.9783 42.2158 27.1934 42.6451C27.6219 43.5055 28.2479 44.2387 28.9638 44.8836C29.8931 45.7246 30.983 46.1379 32.2349 46.0478C33.0936 45.9947 33.2718 45.6008 32.771 44.9189C32.4676 44.5073 32.3055 44.0233 32.1627 43.5392C31.519 41.5163 31.4115 39.421 31.5014 37.3434C31.6796 32.9919 32.2156 28.6759 32.771 24.3598L32.7726 24.3615ZM26.6059 29.1969C26.4454 32.2233 26.2304 35.2497 26.0153 38.276C25.9623 38.9916 25.4792 39.4049 24.8532 39.6011C23.7264 39.942 22.5644 40.0127 21.4216 39.7265C19.7764 39.2972 18.9899 38.223 18.7941 36.2161C18.7588 35.7691 18.7941 35.3204 18.7941 34.8734C18.7588 33.3152 18.9546 31.7923 19.6881 30.3788C20.7779 28.3189 23.0122 27.227 25.301 27.6564C26.1597 27.8172 26.6589 28.3543 26.6059 29.1969Z" fill="white"/>
<path d="M62.2031 25.2829C62.7922 20.7353 63.4727 16.1828 63.9911 11.6352C64.187 9.8792 63.7392 8.08782 62.4166 6.85604C60.4857 5.06466 58.038 4.84757 55.4265 4.93923L55.4297 4.94244C55.6079 5.33963 55.7732 5.72557 55.9128 6.10829C56.1552 6.77242 56.3237 7.42851 56.3928 8.11033C56.7603 11.8298 56.7395 15.5701 56.6175 19.296C56.6111 19.5067 56.603 19.7238 56.5966 19.9457C56.5083 22.7759 56.3334 26.1335 56.0364 30.1199C55.9979 30.8323 55.9562 31.5463 55.9145 32.2586C55.9112 32.3117 55.908 32.3648 55.908 32.413C55.5469 40.5112 56.5709 43.4122 56.6239 43.5601C56.6271 43.5633 56.6271 43.5666 56.6271 43.5666C57.054 44.4269 57.6816 45.1618 58.3975 45.8066C59.3268 46.646 60.4167 47.0609 61.6686 46.9692C62.5273 46.9162 62.7055 46.5238 62.2047 45.842C61.8997 45.4303 61.7392 44.9463 61.5948 44.4622C60.9528 42.4393 60.8452 40.3424 60.9351 38.2664C61.1133 33.915 61.651 29.5989 62.2047 25.2829H62.2031Z" fill="white"/>
<path d="M80.7079 44.9399C79.3677 46.6412 77.9905 48.164 75.8638 48.7011C73.3262 49.346 71.0197 48.3972 69.6249 46.1941C67.7839 43.2932 67.0504 40.016 66.2639 36.7387C65.7808 34.7512 65.6203 32.6735 64.7439 30.7744C64.4406 30.1296 64.1179 29.5024 63.76 28.7868C65.5111 28.4106 67.2639 28.052 69.0503 28.2144C70.3552 28.3398 71.1241 29.5748 71.2846 31.4562C71.6056 35.1998 71.9812 38.9418 72.8928 42.5953C73.0357 43.1501 73.1962 43.6872 73.3936 44.2066C73.9121 45.5493 74.4128 45.7471 75.7178 45.1023C78.2923 43.848 79.6502 41.1979 79.0964 38.387C78.5058 35.396 77.5588 32.5127 75.9328 29.898C75.6295 29.414 75.8253 29.3062 76.2185 29.1824C77.5957 28.7708 78.9712 28.4475 80.4013 28.3591C81.6886 28.2867 82.1525 28.5746 82.6902 29.7565C83.5296 31.6186 83.7977 33.6432 84.1379 35.6308C84.5841 38.2632 84.7463 40.9679 85.3899 43.565C85.5504 44.2452 85.6226 45.2132 86.3738 45.3387C87.088 45.4641 87.5535 44.6231 87.9291 44.049C89.2517 41.9537 90.1634 39.6429 90.9851 37.316C92.5758 32.8922 94.0235 28.4154 95.0604 23.8308C95.5965 21.4846 95.2931 19.1931 94.0765 17.0978C93.7908 16.5961 93.8085 16.4176 94.3799 16.2745C95.757 15.9336 97.0972 15.3788 98.5627 15.612C101.225 16.059 102.174 17.2779 101.959 20.0004C101.781 22.3642 101.262 24.6573 100.582 26.9134C98.8837 32.5722 96.72 38.0348 93.6287 43.1034C92.5019 44.9479 91.1617 46.6138 89.624 48.1174C87.2293 50.4636 84.3145 50.2481 82.4029 47.5256C81.7945 46.7377 81.2954 45.8597 80.7047 44.9463L80.7079 44.9399Z" fill="white"/>
<path d="M46.7929 43.2385C45.8812 43.9011 45.1123 44.5105 44.2552 44.9576C43.4864 45.3515 42.6999 45.6924 41.8236 45.8179C38.4272 46.2842 36.2107 44.7437 35.3712 41.3941C34.5494 38.0638 34.8881 34.6965 34.925 31.3292C34.9603 28.6614 35.3535 25.9743 34.6923 23.3066C34.62 23.0203 34.6569 22.8595 35.0133 22.8402C36.3182 22.7872 37.6231 22.6794 38.9104 23.0734C40.9488 23.7182 41.7529 25.1687 41.3597 27.264C40.6085 31.3115 39.7338 35.3236 39.6439 39.4596C39.6439 39.7281 39.6262 39.9967 39.6439 40.2652C39.6792 42.182 40.4127 42.7722 42.289 42.3075C43.541 42.0035 44.4703 41.2687 45.0947 40.1398C46.8651 36.9703 47.0786 33.513 46.918 29.9849C46.8458 28.5521 46.65 27.137 46.3097 25.7412C46.2568 25.5257 46.0417 25.1864 46.5601 25.2041C47.8297 25.2395 49.117 25.0433 50.385 25.3826C52.1554 25.8489 53.1024 27.0308 53.1377 28.8576C53.2099 31.1684 52.5663 33.4068 52.279 35.6806C51.921 38.5816 51.4203 41.4648 51.4748 44.4028C51.4925 44.9222 51.5278 45.4239 51.8151 45.8709C52.1361 46.355 51.905 46.4804 51.4572 46.5158C50.5985 46.5881 49.7237 46.6058 48.865 46.5158C47.918 46.3903 47.292 45.8886 47.0416 44.9399C46.8988 44.4205 46.7736 43.9011 46.7912 43.2385H46.7929Z" fill="white"/>
<path d="M120.904 41.2316C120.62 41.0644 120.371 41.1995 120.167 41.3812C119.949 41.5838 119.796 41.8475 119.581 42.0678C118.318 43.4395 117.432 43.2513 116.862 41.4793C115.955 38.6217 115.519 35.6613 115.157 32.7056C114.769 29.7002 112.984 28.0358 110.219 27.2929C107.89 26.6529 105.532 26.8732 103.245 27.4827C100.921 28.0969 99.9639 29.5603 100.091 31.9016C100.166 33.4518 100.617 33.7364 102.144 33.336C103.219 33.053 104.164 32.4484 105.185 32.0656C106.752 31.4771 108.61 32.1284 109.174 33.4647C109.548 34.3443 109.381 34.6289 108.411 34.6916C104.588 34.9376 101.209 37.6874 100.306 41.2863C99.4728 44.5635 101.344 47.2313 104.639 47.4806C105.819 47.5787 106.951 47.3053 108.023 46.8036C110.087 45.8532 111.492 44.2564 112.567 42.137C113.008 42.986 113.395 43.7354 113.976 44.3416C115.13 45.5187 116.499 45.8741 118.055 45.3241C119.711 44.7372 120.539 43.3703 121.14 41.8443C121.234 41.6642 121.146 41.3699 120.904 41.2316ZM111.113 41.4149C110.411 42.2672 109.554 42.8574 108.612 43.0793C107.24 43.3237 106.373 42.5325 106.355 41.2075C106.326 39.6123 107.96 37.2645 109.461 36.7242C110.4 36.3929 110.564 36.491 110.774 37.472C110.951 38.2583 111.077 39.0736 111.405 39.7972C111.686 40.4565 111.514 40.9245 111.111 41.4133L111.113 41.4149Z" fill="white"/>
<path d="M65.9676 31.2134C65.9676 31.2134 65.9855 31.2134 65.9855 31.2311C65.9676 31.2488 65.9496 31.2665 65.9317 31.2842C65.9496 31.2665 65.9496 31.2311 65.9676 31.2118C65.9556 31.2118 65.9556 31.2118 65.9676 31.2118V31.2134Z" fill="white"/>
<path d="M28.7102 54.7507C29.4228 54.4082 30.1595 54.1171 30.9043 53.847C31.2767 53.7103 31.6539 53.5897 32.0278 53.461C32.405 53.3404 32.7838 53.2231 33.1658 53.1153C33.5478 53.0108 33.9282 52.8966 34.3135 52.8017C34.6987 52.7053 35.0839 52.6072 35.4707 52.5252C35.8591 52.4431 36.246 52.3547 36.636 52.2775C37.026 52.2035 37.4177 52.1328 37.8093 52.0652L38.9906 51.8916C39.3839 51.8305 39.7803 51.7967 40.1768 51.7469L40.7706 51.6857L41.3661 51.6439L41.9632 51.6021C42.1622 51.586 42.3613 51.5748 42.5603 51.57L43.7561 51.5282C44.1557 51.5217 44.5538 51.5346 44.9534 51.5378L45.5521 51.5458C45.7512 51.5507 45.9486 51.5619 46.1476 51.57L47.337 51.623C48.1283 51.6648 48.9163 51.7259 49.706 51.7758L52.0671 51.9704L54.4233 52.1891L56.7748 52.4383C59.9062 52.7824 63.0345 53.1217 66.1564 53.4836C69.2798 53.8357 72.4033 54.1622 75.5268 54.4291L77.8701 54.6028C78.6518 54.6542 79.4319 54.688 80.2119 54.7314C80.992 54.7652 81.7721 54.7748 82.5521 54.799C82.9406 54.8022 83.329 54.7925 83.7174 54.7909C84.1058 54.7845 84.4943 54.7909 84.8827 54.7732C86.4348 54.696 87.9885 54.5851 89.5326 54.376C89.9194 54.323 90.3062 54.2779 90.6914 54.2201L91.8455 54.0255L92.4233 53.9306L92.9979 53.8164L94.1471 53.5865C97.2 52.9143 100.226 52.054 103.152 50.8817C102.46 51.2596 101.75 51.6086 101.028 51.927C100.309 52.2534 99.5755 52.5493 98.8387 52.8355C98.4712 52.9851 98.0972 53.1105 97.7248 53.2456C97.3541 53.3823 96.9769 53.5045 96.6013 53.6267C95.8517 53.884 95.0893 54.0962 94.3269 54.3165C92.7941 54.7186 91.25 55.0965 89.6802 55.3441C88.8986 55.4936 88.1089 55.5869 87.3208 55.6914C86.9275 55.7477 86.5295 55.7767 86.133 55.8104L84.9421 55.9101C84.544 55.9375 84.146 55.9439 83.7479 55.9616C83.3498 55.9745 82.9502 55.997 82.5537 56.0018C81.7608 55.9938 80.9663 55.997 80.1734 55.9777C79.3821 55.9487 78.5908 55.9278 77.7995 55.8908L75.4321 55.759C72.2781 55.5612 69.1386 55.2492 66.0039 54.9276C62.8676 54.614 59.7441 54.2265 56.6191 53.8775C53.494 53.5398 50.3754 53.1523 47.2583 52.9352L46.0914 52.8628C45.8972 52.8516 45.7014 52.8355 45.5072 52.8291L44.9262 52.8114C44.5393 52.8017 44.1509 52.7841 43.7625 52.7808H42.5988C42.4046 52.7808 42.2104 52.7857 42.0162 52.7953L41.4335 52.8162L40.8509 52.8371L40.2699 52.8757C39.8814 52.9014 39.493 52.9143 39.1062 52.9529L37.9425 53.059C34.8431 53.3839 31.7566 53.9322 28.7086 54.7507H28.7102Z" fill="#D54241"/>
</g>
<defs>
<clipPath id="clip0_174_732">
<rect width="113.176" height="52" fill="white" transform="translate(8 4.00012)"/>
</clipPath>
</defs>
</svg>
