<svg width="103" height="100" viewBox="0 0 103 100" fill="none" xmlns="http://www.w3.org/2000/svg">
<g clip-path="url(#clip0_174_203)">
<path d="M52.6538 55.2875C52.5352 55.2907 52.4166 55.2939 52.2948 55.2939C48.8752 55.2939 45.5741 53.8801 43.4652 51.5151C40.8084 48.5364 40.4142 44.4491 40.6609 42.0585C40.709 41.599 40.4847 41.1684 40.1097 40.9177L39.6257 40.9113C38.5457 40.5097 37.7252 39.6742 37.2701 38.5335C37.2701 38.5303 37.2669 38.5239 37.2637 38.5174C36.5298 37.1486 36.4465 35.2303 37.0554 33.1384C38.1002 29.5492 40.7282 26.487 43.7505 25.3398C44.4395 25.0796 45.1703 24.9093 45.9234 24.8321C46.1734 24.8064 46.3272 24.5783 46.2888 24.3534C45.9427 23.9453 45.6029 23.5372 45.244 23.1452C43.9524 21.7217 43.2441 20.205 43.1031 18.6016C42.8948 16.995 43.2858 15.2309 43.9011 13.7978C43.8082 13.7014 43.6447 13.6403 43.4236 13.5729C38.863 12.1944 34.4145 15.835 34.828 20.6485C34.8664 21.1015 34.7895 21.214 34.3248 21.2333C29.2738 21.4357 25.2292 25.2145 24.5273 30.3525C23.8896 35.0278 26.774 39.671 31.2993 41.2937C29.8251 41.8528 28.5816 42.8811 27.7515 44.1985C26.8862 43.9414 25.9663 43.8065 25.0177 43.8065C20.8224 43.8065 17.2457 46.4606 15.8708 50.1848C14.951 49.7767 13.9351 49.5486 12.8646 49.5486C10.1084 49.5486 7.70467 51.0556 6.4227 53.292C6.08939 53.2278 5.74646 53.1956 5.39713 53.1956C3.23701 53.1956 1.36854 54.4649 0.5 56.3029H33.7896V56.3318H67.4894V56.3029H102.5C101.692 54.3203 99.7534 52.9257 97.4875 52.9257C96.4779 52.9257 95.5325 53.2021 94.7248 53.6873C93.4076 51.634 91.1033 50.2748 88.4848 50.2748C87.4176 50.2748 86.4016 50.5029 85.4818 50.911C84.1037 47.1868 80.527 44.5295 76.3318 44.5295C75.412 44.5295 74.521 44.658 73.6781 44.9022C74.2357 44.221 74.678 43.4145 74.9569 42.4955C75.0979 42.0295 75.3158 41.8046 75.7773 41.6536C79.8316 40.3265 82.5333 36.5831 82.5429 32.3287C82.5557 26.0982 76.9119 21.41 70.8321 22.6214C70.3418 22.721 70.1687 22.7242 70.127 22.1105C69.9636 19.6781 68.7105 17.9718 66.483 16.9982C66.4702 16.9918 66.4542 16.9854 66.4414 16.9821C66.3805 17.1332 66.3612 17.297 66.3869 17.4577C66.4285 17.718 66.4702 18.0136 66.5151 18.3703C66.5856 18.9519 66.624 19.4628 66.6273 19.8934C66.6305 20.3143 66.7619 20.7256 67.0279 21.0501C67.2586 21.3361 67.4926 21.6639 67.624 21.9627C67.8067 22.3772 68.0054 22.4832 68.3707 22.676C68.6688 22.8303 69.0406 23.0263 69.4059 23.4247C70.0405 24.1124 70.6943 24.8257 70.7776 25.854C70.8449 26.683 70.5244 27.5184 70.2296 28.0936C70.079 28.3924 70.0181 28.733 70.0629 29.064C70.3193 31.0595 70.4603 35.7797 67.0182 39.9088C64.4447 42.9967 61.1564 44.1599 58.8585 44.5937C58.5572 44.6483 58.4835 45.0404 58.7367 45.2171C59.5219 45.773 60.1373 46.5088 60.4449 47.3379C61.3263 49.7253 59.5796 52.161 58.4098 53.2213C57.0061 54.4938 54.9741 55.22 52.6538 55.2875ZM10.634 52.1095L10.2943 52.1995L10.1276 52.2349L9.96735 52.2959C9.86159 52.3377 9.75583 52.3763 9.65327 52.4084C9.55392 52.4598 9.45777 52.508 9.35842 52.553C9.25906 52.5915 9.17253 52.6558 9.08279 52.7104C8.99626 52.7683 8.90332 52.8197 8.8264 52.8904C8.49309 53.1378 8.21105 53.4463 7.97709 53.7997C7.74634 54.1468 7.55084 54.5645 7.42585 54.9372L7.17907 55.6827L6.71756 55.1493C6.615 55.0304 6.51244 54.9083 6.39065 54.8408C6.26887 54.7669 6.13426 54.7059 5.9676 54.7059C5.80095 54.7059 5.62147 54.7284 5.43879 54.7958C5.25291 54.8537 5.06702 54.9404 4.88434 55.0465C4.97728 54.8537 5.11509 54.6834 5.27855 54.5291C5.4452 54.3845 5.64391 54.2464 5.88428 54.1789C6.12144 54.105 6.40668 54.105 6.65987 54.1885C6.68871 54.195 6.71756 54.2078 6.7464 54.2207C6.84896 53.8865 6.98677 53.578 7.17266 53.2792C7.4579 52.8197 7.85851 52.418 8.33605 52.1449C8.44822 52.0646 8.57642 52.0164 8.6982 51.9617C8.82319 51.9071 8.94819 51.8493 9.07959 51.8236C9.21099 51.7914 9.33919 51.7593 9.47059 51.7304C9.60199 51.7175 9.73339 51.7111 9.86159 51.7047C10.1212 51.6725 10.3808 51.7304 10.6308 51.7561C10.8776 51.8043 11.1211 51.8878 11.3519 51.9714C11.1019 52.0292 10.8647 52.0646 10.634 52.1095ZM25.9311 46.3482L25.1779 46.4381C24.9312 46.4735 24.678 46.4703 24.4376 46.5377C24.1972 46.5892 23.9537 46.6406 23.7133 46.6856C23.5915 46.7016 23.4729 46.737 23.3575 46.7755L23.0114 46.8848C22.7806 46.9587 22.5403 47.0133 22.3256 47.1258C22.1076 47.2222 21.8801 47.3089 21.6653 47.415C20.8096 47.852 20.0501 48.4529 19.3866 49.1694C18.7264 49.8956 18.1752 50.7439 17.7297 51.6886C17.7906 50.6347 18.1848 49.6 18.7969 48.7099C19.4027 47.8102 20.252 47.0551 21.2295 46.557C21.7294 46.3385 22.2326 46.104 22.7678 46.0043L23.162 45.9112L23.3607 45.8662C23.428 45.8565 23.4953 45.8533 23.5627 45.8469C23.8287 45.8212 24.0979 45.8051 24.3639 45.7891C24.6299 45.7601 24.8959 45.7891 25.1619 45.8051L25.9503 45.8758C26.4663 45.9851 26.9791 46.104 27.4759 46.2582C26.9471 46.316 26.4375 46.3225 25.9311 46.3482ZM27.274 30.7317C26.8669 33.6911 27.7323 36.3003 29.6969 38.5464C29.8443 38.7134 30.0783 38.8227 30.1135 39.1119C30.0398 39.1119 29.9725 39.1312 29.9308 39.1087C27.0753 37.4121 25.3734 33.5979 25.9535 30.1951C26.5753 26.548 29.3572 23.5468 32.7159 22.8945C32.873 22.8656 33.0653 22.7146 33.1133 23.0231C29.8187 24.5654 27.7803 27.0911 27.274 30.7317ZM36.0683 19.6491C36.1837 17.2906 37.8919 15.2084 40.1898 14.6236C40.3244 14.5786 40.4686 14.5079 40.459 14.7586C36.2221 16.8247 35.8984 22.5443 39.8212 25.0988C39.8469 25.221 39.8212 25.2884 39.6802 25.2402C37.3631 24.3919 35.9433 22.1941 36.0683 19.6491ZM79.3091 34.5105C80.4212 31.5222 79.8219 27.1746 75.8062 24.3951C79.8316 25.7865 82.4948 30.6803 80.6777 35.3427C78.9342 39.822 74.0851 41.6118 70.5405 40.3908C74.803 40.4133 77.8156 38.5303 79.3091 34.5105ZM80.7834 49.6835C79.6969 48.9188 78.5047 48.3436 77.2484 47.9934C75.992 47.6367 74.6684 47.5178 73.3384 47.5756C72.0083 47.6431 70.6719 47.8648 69.345 48.2504C70.5148 47.4985 71.8737 47.0454 73.2646 46.8302C73.9633 46.7145 74.678 46.692 75.3895 46.7241C76.101 46.7627 76.8093 46.8848 77.5048 47.0647C78.8893 47.4439 80.1777 48.1604 81.2449 49.0923C82.3122 50.0306 83.1775 51.1648 83.7832 52.4116C82.8474 51.3898 81.8635 50.4547 80.7834 49.6835ZM97.2824 54.2657C96.9747 54.2464 96.6702 54.2817 96.3786 54.3653C96.0901 54.452 95.8113 54.5741 95.5421 54.7219C95.2793 54.8697 95.0069 55.0529 94.7953 55.2328L94.4396 55.5349L94.2089 55.114C94.0646 54.844 93.914 54.5741 93.7025 54.3653C93.6063 54.2464 93.4813 54.166 93.3692 54.0632C93.2442 53.9829 93.1192 53.8929 92.9781 53.8319C92.6993 53.6969 92.3917 53.5973 92.0615 53.5459C91.7346 53.488 91.3949 53.4688 91.0392 53.4752C91.3533 53.3049 91.709 53.2181 92.0744 53.1764C92.4365 53.1442 92.8179 53.1635 93.1865 53.276C93.3756 53.3274 93.5486 53.4141 93.7249 53.5009C93.8884 53.6101 94.0582 53.713 94.196 53.8544C94.3499 53.9829 94.4685 54.1371 94.587 54.2946C94.6159 54.3299 94.6383 54.3653 94.6639 54.4038C94.8434 54.2849 95.0293 54.1821 95.228 54.0889C95.5549 53.9411 95.9107 53.8351 96.276 53.7933C96.6414 53.7483 97.0196 53.7997 97.3593 53.9122C97.7054 54.0247 97.9971 54.2496 98.231 54.497C97.9009 54.3845 97.5997 54.2689 97.2824 54.2657ZM70.1366 25.9054C70.1046 25.5005 69.9572 25.1567 69.7392 24.8289C69.9347 25.2017 70.0725 25.5969 70.1398 25.9921C70.1398 25.9632 70.1398 25.9343 70.1398 25.9054H70.1366ZM69.4957 29.6295C69.4957 29.8802 69.5181 30.134 69.5565 30.3911C69.5437 30.1115 69.5213 29.8577 69.4957 29.6295ZM66.4285 21.3329C66.3805 21.2751 66.3356 21.2172 66.2939 21.153C66.4766 21.5064 66.717 21.8502 67.015 22.1748C66.8868 21.9049 66.6497 21.5932 66.4285 21.3329ZM66.0087 20.43C65.9927 20.3207 65.9831 20.2115 65.9863 20.1022C65.9959 19.5881 65.9446 18.9872 65.8773 18.4506C65.8356 18.0939 65.7876 17.7565 65.7331 17.4384C65.7235 17.3838 65.717 17.326 65.717 17.2681C65.6978 17.3677 65.6946 17.4834 65.7138 17.6184C65.7651 18.0007 65.9061 18.3896 65.8709 18.7655C65.8164 19.36 65.8613 19.9126 66.0087 20.43ZM54.987 43.9318C54.8491 43.7486 54.7113 43.5526 54.5671 43.347C54.3556 43.0385 54.1697 42.7525 54.0159 42.489C53.9325 42.3444 53.7306 42.3284 53.6281 42.4633C53.0255 43.2538 52.641 44.1053 52.4422 44.8636C52.3814 45.095 52.657 45.2621 52.8332 45.0982C52.9871 44.9536 53.1569 44.8251 53.3364 44.7126C53.8556 44.3849 54.487 44.1953 55.1793 44.1599C55.1119 44.0892 55.0478 44.0121 54.987 43.9318Z" fill="#ED2C68"/>
<path d="M30.5398 39.2982C30.6263 39.3753 30.7 39.4171 30.7417 39.4782C30.777 39.5328 30.7481 39.6131 30.6744 39.5971C30.6007 39.581 30.527 39.5264 30.4693 39.4749C30.4565 39.4621 30.5045 39.385 30.5398 39.2982Z" fill="#F2628F"/>
<path d="M24.6748 65.6245L16.9894 85.2222H13.8229L6.16632 65.6245H9.83917L15.4189 79.8496L20.9731 65.6245H24.6748Z" fill="#ED2C68"/>
<path d="M33.0589 66.2415L32.8057 65.6245H29.4117L29.1585 66.2415L21.7263 85.2222H25.6234L27.0528 81.5398H35.1581L36.5875 85.2222H40.4847L33.0525 66.2415H33.0589ZM28.4021 78.137L31.1231 71.2188L33.8152 78.137H28.4021Z" fill="#ED2C68"/>
<path d="M23.4633 98.3259C23.3928 98.2423 23.3383 98.162 23.303 98.0816C23.2646 97.9981 23.2966 97.9081 23.396 97.8085L24.3062 96.9088C24.3895 96.8381 24.4664 96.8124 24.5433 96.8349C24.6203 96.8574 24.7004 96.9056 24.7805 96.9763C24.9183 97.1144 25.0689 97.2494 25.2356 97.3908C25.4023 97.5322 25.5849 97.6607 25.7772 97.7732C25.9727 97.8888 26.1811 97.9788 26.4086 98.0463C26.6329 98.1138 26.8733 98.1491 27.1265 98.1491C27.3989 98.1491 27.6393 98.1138 27.8476 98.0431C28.0559 97.9692 28.2322 97.8728 28.3828 97.7507C28.5303 97.6286 28.6456 97.4872 28.7226 97.3297C28.7995 97.1691 28.8379 97.0052 28.8379 96.8317C28.8379 96.6132 28.7706 96.43 28.6392 96.279C28.5078 96.128 28.3476 96.0027 28.1585 95.8966C27.9694 95.7906 27.7643 95.707 27.5431 95.6396C27.322 95.5721 27.1201 95.5175 26.9374 95.4693C25.8413 95.1415 25.0081 94.7431 24.4344 94.2643C23.8607 93.7887 23.5722 93.1654 23.5722 92.3942C23.5722 91.9764 23.6588 91.5941 23.835 91.2535C24.0145 90.9064 24.2613 90.6108 24.5818 90.3602C24.9023 90.1095 25.2901 89.9167 25.742 89.7818C26.1939 89.6468 26.6938 89.5793 27.2355 89.5793C27.8316 89.5793 28.4053 89.7207 28.9533 90.0035C29.5014 90.2831 29.9789 90.6301 30.3859 91.035C30.5462 91.2085 30.5462 91.3852 30.3731 91.5684L29.6263 92.3717C29.5366 92.4552 29.4501 92.4777 29.37 92.4456C29.2866 92.4167 29.2033 92.362 29.1136 92.2881C29.0046 92.1982 28.8796 92.0985 28.7418 91.9893C28.6008 91.8833 28.4469 91.7772 28.2803 91.684C28.1136 91.5876 27.9374 91.5073 27.7515 91.4463C27.5656 91.3852 27.3733 91.3499 27.1746 91.3499C27.0015 91.3499 26.8252 91.3627 26.6394 91.3916C26.4567 91.4206 26.29 91.472 26.1394 91.5491C25.992 91.6262 25.867 91.7354 25.7676 91.8768C25.6651 92.0182 25.617 92.2078 25.617 92.4424C25.617 92.6159 25.6651 92.7637 25.758 92.889C25.8542 93.0175 25.992 93.1268 26.165 93.2232C26.3413 93.3164 26.5496 93.4063 26.79 93.4867C27.0304 93.5702 27.2932 93.6505 27.5848 93.7341C28.0463 93.8691 28.479 94.0233 28.8892 94.1904C29.293 94.3575 29.652 94.5631 29.9533 94.8073C30.2545 95.0515 30.4981 95.3439 30.6776 95.6781C30.857 96.0155 30.95 96.4204 30.95 96.8927C30.95 97.3651 30.8474 97.7925 30.6391 98.178C30.4308 98.5636 30.1552 98.8914 29.8026 99.1645C29.4533 99.4376 29.0527 99.6465 28.5944 99.7911C28.1361 99.9357 27.6649 100.01 27.1746 100.01C26.4695 100.01 25.7901 99.8521 25.1395 99.5469C24.4889 99.2416 23.9312 98.8368 23.4697 98.3355L23.4633 98.3259Z" fill="#B0EF22"/>
<path d="M31.5653 91.3178V90.026C31.5653 89.8525 31.6486 89.7657 31.8217 89.7657H38.9495C39.1289 89.7657 39.2219 89.8525 39.2219 90.026V91.3178C39.2219 91.5009 39.1289 91.5909 38.9495 91.5909H36.3439V99.5951C36.3439 99.7751 36.2573 99.8683 36.0875 99.8683H34.6196C34.4465 99.8683 34.3632 99.7783 34.3632 99.5951V91.5909H31.8249C31.6518 91.5909 31.5685 91.5041 31.5685 91.3178H31.5653Z" fill="#B0EF22"/>
<path d="M37.4015 99.5791L41.2314 90.026C41.3147 89.8525 41.4269 89.7657 41.5711 89.7657H42.7089C42.8723 89.7657 42.9845 89.8525 43.0486 90.026L46.8785 99.5791C46.9234 99.669 46.9266 99.7397 46.8849 99.7911C46.8464 99.8393 46.7823 99.865 46.6894 99.865H45.2087C45.0485 99.865 44.9331 99.7815 44.869 99.6208L44.2184 97.9885H40.052L39.4142 99.6208C39.3501 99.7815 39.2347 99.865 39.0745 99.865H37.581C37.3823 99.865 37.3246 99.7686 37.4015 99.5791ZM42.1384 92.3781L40.6866 96.2308H43.5646L42.1384 92.3781Z" fill="#B0EF22"/>
<path d="M45.8753 91.3178V90.026C45.8753 89.8525 45.9586 89.7657 46.1317 89.7657H53.2595C53.4389 89.7657 53.5319 89.8525 53.5319 90.026V91.3178C53.5319 91.5009 53.4389 91.5909 53.2595 91.5909H50.6539V99.5951C50.6539 99.7751 50.5673 99.8683 50.3975 99.8683H48.9296C48.7565 99.8683 48.6732 99.7783 48.6732 99.5951V91.5909H46.1349C45.9618 91.5909 45.8785 91.5041 45.8785 91.3178H45.8753Z" fill="#B0EF22"/>
<path d="M54.9805 99.5918V90.0484C54.9805 89.8588 55.0703 89.7625 55.2529 89.7625H56.7176C56.8907 89.7625 56.974 89.8588 56.974 90.0484V99.5918C56.974 99.7718 56.8907 99.865 56.7176 99.865H55.2529C55.0703 99.865 54.9805 99.775 54.9805 99.5918Z" fill="#B0EF22"/>
<path d="M69.0341 94.8138C69.0341 95.5303 68.8963 96.2051 68.6271 96.8349C68.3547 97.4679 67.9829 98.0142 67.515 98.4833C67.0439 98.9492 66.4894 99.322 65.8581 99.5919C65.2267 99.8618 64.5504 100 63.8357 100C63.121 100 62.448 99.8618 61.8166 99.5919C61.1885 99.3188 60.6404 98.9492 60.1757 98.4833C59.711 98.0174 59.3424 97.4679 59.0732 96.8349C58.8072 96.2051 58.6726 95.5303 58.6726 94.8138C58.6726 94.0972 58.8072 93.4096 59.0732 92.7798C59.3424 92.15 59.7078 91.6005 60.1757 91.1314C60.6404 90.6654 61.1885 90.2959 61.8166 90.026C62.448 89.7529 63.1178 89.6179 63.8357 89.6179C64.5536 89.6179 65.2235 89.7529 65.8581 90.026C66.4894 90.2991 67.0439 90.6654 67.515 91.1314C67.9829 91.6005 68.3547 92.15 68.6271 92.7798C68.8995 93.4128 69.0341 94.0908 69.0341 94.8138ZM67.0375 94.8138C67.0375 94.3511 66.9573 93.9205 66.7939 93.522C66.6336 93.1236 66.4093 92.7766 66.1241 92.4809C65.8388 92.1885 65.4991 91.954 65.1113 91.7805C64.7235 91.6069 64.2973 91.5234 63.839 91.5234C63.3806 91.5234 62.964 91.6069 62.5762 91.7805C62.1852 91.954 61.8487 92.1853 61.5635 92.4809C61.2782 92.7766 61.0571 93.1236 60.8968 93.522C60.7398 93.9237 60.6629 94.3543 60.6629 94.8138C60.6629 95.2733 60.743 95.6942 60.8968 96.0926C61.0571 96.4943 61.2782 96.8381 61.5635 97.1338C61.8487 97.4294 62.1852 97.6639 62.5762 97.8342C62.964 98.0078 63.3839 98.0945 63.839 98.0945C64.2941 98.0945 64.7235 98.0078 65.1113 97.8342C65.4991 97.6639 65.8388 97.4294 66.1241 97.1338C66.4093 96.8413 66.6336 96.4943 66.7939 96.0926C66.9573 95.6942 67.0375 95.2668 67.0375 94.8138Z" fill="#B0EF22"/>
<path d="M70.7552 90.0646C70.7552 89.9843 70.784 89.9136 70.8321 89.8557C70.8802 89.7947 70.9539 89.7657 71.0564 89.7657H72.6429C72.7166 89.7657 72.7903 89.7818 72.8672 89.814C72.9441 89.8429 73.0018 89.8975 73.0371 89.9714L77.5047 96.4076V89.9714C77.5336 89.8879 77.572 89.8332 77.6329 89.8075C77.6906 89.7786 77.7483 89.7657 77.8028 89.7657H79.1713C79.245 89.7657 79.3155 89.7947 79.3892 89.8493C79.4597 89.9039 79.495 89.9746 79.495 90.0678V99.5694C79.495 99.7686 79.3892 99.8683 79.1681 99.8683H77.8252C77.7163 99.8683 77.6361 99.849 77.5881 99.8072C77.54 99.7654 77.4855 99.714 77.431 99.6498L72.7198 92.8441V99.5694C72.7294 99.7686 72.63 99.8683 72.4217 99.8683H71.0532C70.8545 99.8683 70.752 99.7686 70.752 99.5694V90.0678L70.7552 90.0646Z" fill="#B0EF22"/>
<path d="M50.702 65.6245H42.5422V85.2222H46.3561V78.137H50.5065V78.1659C53.955 78.1659 56.7593 75.3543 56.7593 71.8968C56.7593 68.4393 54.0672 65.7402 50.702 65.6277V65.6245ZM50.6731 74.7341C50.6154 74.7341 50.561 74.763 50.5065 74.763C50.3366 74.792 50.1411 74.8177 49.9745 74.8177H46.3561V68.9695H49.9745C50.1411 68.9695 50.3398 68.9984 50.5065 69.0241C50.5642 69.0241 50.6187 69.0531 50.6731 69.0531C51.9359 69.3615 52.8877 70.5151 52.8877 71.8936C52.8877 73.2721 51.9359 74.4256 50.6731 74.7341Z" fill="#ED2C68"/>
<path d="M92.991 77.0959C94.6447 75.9712 95.7408 74.0593 95.7408 71.8936C95.7408 68.4618 93.0487 65.737 89.6835 65.6245H81.5237V85.2222H85.3376V78.137H89.2636L92.6288 85.2222H96.8369L92.9942 77.0959H92.991ZM85.3344 74.8177V68.9695H88.9528C89.1226 68.9695 89.3181 68.9984 89.4848 69.0241C89.5425 69.0241 89.597 69.0531 89.6546 69.0531C90.9174 69.3615 91.8692 70.5151 91.8692 71.8936C91.8692 73.2721 90.9142 74.4256 89.6546 74.7341C89.597 74.7341 89.5425 74.763 89.4848 74.763C89.3149 74.792 89.1194 74.8177 88.9528 74.8177H85.3344Z" fill="#ED2C68"/>
<path d="M70.4988 65.6246C69.7681 65.4286 68.9829 65.3418 68.172 65.3418C67.3612 65.3418 66.6016 65.4253 65.8453 65.6246C61.4417 66.6657 58.1599 70.6565 58.1599 75.38C58.1599 80.1035 61.6084 84.2647 66.1529 85.2223C66.826 85.3347 67.499 85.4183 68.172 85.4183C68.8451 85.4183 69.547 85.3347 70.1911 85.2223C74.7614 84.2679 78.1842 80.216 78.1842 75.38C78.1842 70.5441 74.9312 66.6624 70.4988 65.6246ZM68.172 81.7648C64.6658 81.7648 61.8327 78.8953 61.8327 75.3832C61.8327 71.8712 64.6658 69.0274 68.172 69.0274C71.6782 69.0274 74.537 71.8679 74.537 75.3832C74.537 78.8986 71.675 81.7648 68.172 81.7648Z" fill="#ED2C68"/>
<path d="M52.2948 55.9333C48.6957 55.9333 45.2151 54.4423 42.9877 51.9424C39.9302 48.5106 39.7059 43.9189 40.0808 41.5121C38.2989 41.088 37.5233 40.0276 37.1419 39.5038L37.0778 39.4171C35.9305 37.8747 35.6965 35.5194 36.4432 32.9584C37.5425 29.1828 40.3212 25.9567 43.5261 24.7389C44.1255 24.5107 44.7568 24.3469 45.4074 24.2505C43.4364 22.0076 42.7986 20.2628 42.5935 19.3984C42.0134 16.9499 42.8883 14.0098 44.0165 12.1814C44.3434 11.6545 44.8498 10.4527 44.8882 10.0253C44.9107 9.73294 44.8946 9.42447 44.8337 9.11599C44.6607 8.16165 45.2568 7.2523 46.1894 7.03701C47.0483 6.83779 48.8399 6.50361 51.1891 6.50361C52.3621 6.50361 53.5383 6.58715 54.6857 6.75746L55.5959 6.8892C56.176 6.97596 56.7112 7.05308 57.2048 7.12055C56.9676 6.82493 56.7657 6.50361 56.6086 6.16621C55.7369 4.28003 56.3554 1.83795 58.0733 0.359846C58.3393 0.131704 58.679 0.00317383 59.0284 0.00317383C59.4803 0.00317383 59.9001 0.208823 60.1821 0.565495C60.4642 0.922167 60.5667 1.37845 60.4642 1.82188C60.3937 2.12714 60.368 2.34243 60.3584 2.49345C60.634 2.45168 61.0122 2.34243 61.3776 2.23318C62.1756 2.00182 63.0762 1.74155 64.0633 1.74155C64.7427 1.74155 65.3773 1.87008 65.9542 2.12393C67.8868 2.97866 68.6303 4.95481 69.0309 6.0184C70.7712 10.6744 68.2137 15.414 67.0086 17.2648C67.0631 17.5894 67.1112 17.9364 67.1561 18.2995C67.2426 18.9968 67.2843 19.6105 67.2746 20.1246C67.2746 20.1375 67.2746 20.1471 67.2746 20.16C67.3099 20.2757 67.3548 20.3849 67.406 20.4942L67.4156 20.507C67.5695 20.687 67.7041 20.8605 67.8195 21.0243L68.2617 21.7955C68.3355 21.9273 68.3899 21.9594 68.6752 22.1072C68.9829 22.2679 69.4444 22.5121 69.8834 22.9909C70.252 23.3861 70.5533 23.7235 70.8161 24.1219C71.175 24.6618 71.3737 25.2112 71.4186 25.8025V25.841L71.4218 25.9053C71.4218 25.9053 71.4218 25.931 71.4218 25.9599C71.4603 26.9592 71.0564 27.9264 70.7103 28.5595C70.6687 28.6398 70.659 28.7105 70.6654 28.749C70.6975 28.945 70.7295 29.1668 70.7616 29.4142L70.7744 29.4752V29.562C70.7936 29.7162 70.8097 29.8865 70.8193 30.06V30.0665L70.8353 30.1629V30.3685C70.9475 32.5182 70.659 36.689 67.4894 40.3361C66.8484 41.0751 66.1401 41.7435 65.3901 42.3251C63.3582 43.906 61.2141 44.69 59.5924 45.0756C60.2623 45.6604 60.7686 46.3674 61.0443 47.1096C61.9192 49.481 60.5667 52.1255 58.8361 53.6936C57.2464 55.1364 54.9228 55.93 52.2948 55.93V55.9333ZM53.7915 43.3437C53.6761 43.5268 53.5736 43.7132 53.4774 43.9028C53.6537 43.8225 53.8396 43.755 54.0319 43.7004C53.9485 43.5783 53.8652 43.4594 53.7915 43.3437Z" fill="white"/>
<path d="M52.2948 55.612C48.7854 55.612 45.3946 54.1596 43.2249 51.7271C40.161 48.2889 40.0039 43.5622 40.4462 41.2583C38.5649 40.9113 37.7893 39.8477 37.3983 39.3111L37.3342 39.2243C36.2445 37.7623 36.033 35.5098 36.7477 33.0452C37.8182 29.3628 40.5231 26.2202 43.6351 25.0378C44.3947 24.7486 45.1991 24.5686 46.0356 24.4947L45.9651 24.3919C43.7857 22.0301 43.1095 20.2018 42.898 19.3214C42.3371 16.9628 43.1896 14.1191 44.2825 12.3486C44.603 11.8312 45.1542 10.5749 45.1991 10.0543C45.2247 9.73298 45.2055 9.39237 45.1414 9.05498C45.0004 8.27094 45.4875 7.52547 46.2535 7.34874C47.0964 7.15273 48.8655 6.82176 51.1827 6.82176C52.3397 6.82176 53.5031 6.90531 54.6344 7.06918L55.5446 7.20093C56.4997 7.34231 57.3426 7.46442 58.0861 7.55117C57.5797 7.13988 57.1695 6.62575 56.8939 6.02487C56.083 4.26722 56.6631 1.98259 58.2752 0.597669C58.4835 0.417726 58.7463 0.318115 59.022 0.318115C59.3745 0.318115 59.7046 0.478778 59.9257 0.758332C60.1469 1.03789 60.227 1.39456 60.1469 1.74159C59.9963 2.40352 60.0251 2.712 60.0475 2.82125C60.0668 2.82125 60.0988 2.82767 60.1437 2.82767C60.4578 2.82767 60.9449 2.68629 61.4609 2.53527C62.2365 2.31034 63.1146 2.05649 64.0601 2.05649C64.6915 2.05649 65.2844 2.17538 65.8228 2.41316C67.6336 3.21327 68.3451 5.10909 68.7297 6.1277C70.4283 10.6713 67.89 15.3241 66.717 17.1138C66.6945 17.1492 66.6785 17.1974 66.6785 17.236V17.2713C66.7362 17.5991 66.7875 17.9589 66.8324 18.3349C66.9189 19.0161 66.9574 19.617 66.9477 20.1182C66.9477 20.1504 66.9477 20.1825 66.9509 20.2211C66.999 20.3753 67.0567 20.5263 67.1272 20.6677C67.14 20.6838 67.1529 20.6999 67.1657 20.7159C67.3131 20.8894 67.4445 21.0565 67.5535 21.214L67.9797 21.9562C68.1015 22.1715 68.2329 22.239 68.5214 22.3932C68.8258 22.5539 69.2393 22.7724 69.6431 23.2094C69.9988 23.595 70.2937 23.9195 70.5437 24.3019C70.8706 24.7968 71.0533 25.298 71.0949 25.8314V25.87V25.9086C71.0949 25.9246 71.0949 25.9471 71.0949 25.9696C71.1302 26.9015 70.7488 27.8108 70.4219 28.4117C70.3514 28.5434 70.3225 28.688 70.345 28.8133C70.377 29.0029 70.4091 29.2214 70.4379 29.4624L70.4507 29.5203V29.5749C70.4732 29.7741 70.4892 29.9637 70.502 30.1501L70.5148 30.1758V30.3814C70.6238 32.5022 70.3386 36.5766 67.2458 40.1337C66.6176 40.8567 65.9254 41.5089 65.1914 42.0777C62.9512 43.8193 60.5795 44.5808 58.8489 44.915C59.7206 45.5127 60.4065 46.3192 60.743 47.2318C61.5667 49.465 60.2719 51.9713 58.6213 53.4687C57.0894 54.8568 54.8427 55.6216 52.2948 55.6216V55.612ZM53.8043 42.7589C53.33 43.4048 53.0127 44.0731 52.8268 44.6804C52.9358 44.5937 53.048 44.5134 53.1633 44.4394C53.58 44.1792 54.0575 43.9992 54.5735 43.906C54.487 43.7839 54.3972 43.6618 54.3075 43.5333C54.1152 43.2602 53.9486 43.0031 53.8043 42.7621V42.7589Z" fill="white"/>
<path d="M70.1398 25.9888C70.1398 25.9599 70.1398 25.931 70.1398 25.9021C70.1078 25.4972 69.9604 25.1534 69.7424 24.8256C69.5277 24.4979 69.2425 24.1862 68.938 23.8584C68.2329 23.0905 67.5054 23.2736 67.0407 22.2165C67.0343 22.2036 67.0279 22.1875 67.0214 22.1747C67.0214 22.1747 67.0215 22.1715 67.0182 22.1715C66.89 21.9016 66.6529 21.5899 66.4317 21.3296C66.3837 21.2718 66.3388 21.2139 66.2971 21.1497C66.1786 20.9151 66.0856 20.6773 66.0151 20.4331C66.0119 20.4299 66.0119 20.4267 66.0119 20.4267C65.9959 20.3174 65.9863 20.2082 65.9895 20.0989C65.9991 19.5848 65.9478 18.9839 65.8805 18.4473C65.8388 18.0906 65.7908 17.7532 65.7363 17.4351C65.7267 17.3805 65.7202 17.3227 65.7202 17.2648V17.252C65.717 17.0174 65.7876 16.786 65.9157 16.5868C66.874 15.1216 69.4123 10.6969 67.8323 6.47147C67.4701 5.50749 66.8804 3.93299 65.4382 3.29676C63.0922 2.26209 60.4257 4.56279 59.3521 3.50884C59.0957 3.25499 58.945 2.70552 59.2142 1.52625C59.2559 1.34631 59.0476 1.20814 58.9066 1.33024C57.6246 2.43239 57.1342 4.24146 57.772 5.62316C58.4931 7.19124 60.4513 8.02026 62.2461 7.44508C62.4512 7.38082 62.5987 7.64752 62.4416 7.79212C61.0186 9.09349 58.7367 8.63721 54.4998 8.02347C50.6923 7.46758 47.622 8.02026 46.4747 8.28696C46.2087 8.34801 46.0452 8.60507 46.0933 8.87177C46.1606 9.22523 46.2022 9.65581 46.1638 10.1378C46.0933 10.9154 45.4202 12.3485 45.1062 12.853C44.1319 14.4339 43.3499 17.027 43.8402 19.0964C43.9908 19.7294 44.5453 21.4421 46.7246 23.7877C46.9137 24.0673 47.0932 24.3276 47.2535 24.5654C47.5034 24.9285 47.2438 25.4201 46.8048 25.4233C45.9971 25.4297 45.0132 25.5454 43.9812 25.9374C38.8373 27.8911 35.7253 35.4487 38.1066 38.6459C38.472 39.1343 39.1258 40.1979 41.1385 40.381C41.4141 40.4068 41.5872 40.6735 41.5166 40.9369C41.5166 40.9402 41.5134 40.9466 41.5134 40.9498C41.0263 42.5918 40.85 47.6109 43.946 51.0844C47.6669 55.2552 54.7145 55.7051 57.9804 52.7425C59.2142 51.6243 60.5475 49.4585 59.8456 47.5563C59.0187 45.3134 55.5831 44.057 53.6793 45.2524C53.3909 45.4355 52.9678 45.7793 52.6185 46.4445C52.5256 46.6244 52.6634 46.8429 52.8653 46.8397C53.6793 46.8365 55.3235 46.9104 55.5061 47.582C55.6183 47.9868 55.1792 48.5492 54.6857 48.7323C53.7018 49.0986 52.2243 47.839 51.8493 47.0389C51.3718 46.0235 51.7339 43.8546 53.1601 42.0166L54.1537 41.4061C54.1985 41.4414 54.2338 41.4928 54.2594 41.5507C54.4485 41.9941 54.7754 42.5147 55.0959 42.9742C55.2401 43.1798 55.3779 43.3726 55.5126 43.5558C55.8266 43.9767 56.3298 44.2113 56.8522 44.1856C58.4034 44.1084 61.6404 43.6168 64.6113 41.3065C65.2716 40.7956 65.9158 40.1947 66.5279 39.491C69.3226 36.2745 69.6783 32.6307 69.563 30.4039C69.563 30.3974 69.563 30.3942 69.5597 30.3878C69.5469 30.1082 69.5245 29.8544 69.4989 29.6262C69.4989 29.6166 69.4957 29.6102 69.4957 29.6005C69.4668 29.3596 69.4348 29.1443 69.4059 28.9675C69.345 28.6141 69.4187 28.2542 69.5886 27.9393C69.845 27.4701 70.1751 26.7118 70.143 25.9888H70.1398Z" fill="white"/>
<path d="M69.5854 27.9393C69.4156 28.2542 69.3419 28.6141 69.4027 28.9675C69.4316 29.1443 69.4636 29.3596 69.4925 29.6005C69.4925 29.6102 69.4957 29.6166 69.4957 29.6262C69.5213 29.8544 69.5438 30.1082 69.5566 30.3878C69.5598 30.3942 69.5598 30.3974 69.5598 30.4039C69.6752 32.6307 69.3194 36.2745 66.5247 39.491C65.9126 40.1947 65.2684 40.7956 64.6082 41.3065C61.6372 43.6168 58.4002 44.1084 56.849 44.1856C56.3266 44.2113 55.8235 43.9767 55.5094 43.5558C55.3748 43.3726 55.237 43.1798 55.0927 42.9742C54.7722 42.5147 54.4453 41.9941 54.2563 41.5507C54.2306 41.4928 54.1954 41.4414 54.1505 41.4061C54.0095 41.2904 53.7947 41.2904 53.6569 41.435C53.4775 41.6246 53.3108 41.8174 53.157 42.0166C51.7308 43.8546 51.3686 46.0235 51.8462 47.0389C52.2211 47.839 53.6986 49.0986 54.6825 48.7323C55.1761 48.5492 55.6151 47.9868 55.503 47.582C55.3203 46.9104 53.6762 46.8365 52.8621 46.8397C52.6602 46.8429 52.5224 46.6244 52.6153 46.4445C52.9647 45.7793 53.3877 45.4355 53.6762 45.2524C55.5799 44.057 59.0156 45.3134 59.8424 47.5563C60.5443 49.4585 59.2111 51.6243 57.9772 52.7425C54.7114 55.7051 47.6637 55.2552 43.9428 51.0844C40.8468 47.6109 41.0231 42.5918 41.5103 40.9498C41.5103 40.9466 41.5135 40.9402 41.5135 40.9369C41.584 40.6735 41.4109 40.4068 41.1353 40.381C39.1226 40.1979 38.4688 39.1343 38.1034 38.6459C35.7222 35.4487 38.8341 27.8911 43.9781 25.9374C45.01 25.5454 45.994 25.4297 46.8016 25.4233C47.2407 25.4233 47.5003 24.9285 47.2503 24.5654C47.09 24.3276 46.9106 24.0673 46.7215 23.7877C44.5421 21.4421 43.9877 19.7294 43.837 19.0964C43.3467 17.027 44.1287 14.4339 45.103 12.853C45.4171 12.3485 46.0901 10.9154 46.1606 10.1378C46.1991 9.65581 46.1574 9.22523 46.0901 8.87177C46.042 8.60507 46.2055 8.34801 46.4715 8.28696C47.6189 8.02026 50.6892 7.46758 54.4966 8.02347C58.7335 8.63721 61.0154 9.09349 62.4384 7.79212C62.5955 7.64752 62.448 7.38082 62.2429 7.44508C60.4482 8.02026 58.49 7.19124 57.7689 5.62316C57.1311 4.24146 57.6214 2.43239 58.9034 1.33024C59.0444 1.20814 59.2527 1.34631 59.2111 1.52625C58.9419 2.70552 59.0925 3.25499 59.3489 3.50884C60.4225 4.56279 63.089 2.26209 65.435 3.29676C66.8773 3.93299 67.467 5.50749 67.8291 6.47147C69.4092 10.6969 66.8709 15.1216 65.9126 16.5868C65.7844 16.786 65.7139 17.0174 65.7171 17.252V17.2648C65.7171 17.3227 65.7235 17.3805 65.7331 17.4351C65.7876 17.7532 65.8357 18.0906 65.8773 18.4473C65.9446 18.9839 65.9959 19.5848 65.9863 20.0989C65.9831 20.2082 65.9927 20.3174 66.0087 20.4267C66.0087 20.4267 66.0087 20.4299 66.0119 20.4331C66.0536 20.6869 66.1465 20.9312 66.294 21.1464C66.3356 21.2139 66.3805 21.2718 66.4286 21.3296C66.6497 21.5899 66.8869 21.9016 67.0151 22.1715C67.0183 22.1715 67.0183 22.1747 67.0183 22.1747C67.0247 22.1875 67.0311 22.2036 67.0375 22.2165C67.5022 23.2736 68.2297 23.0905 68.9348 23.8584C69.2393 24.1862 69.5245 24.4979 69.7393 24.8256C69.9572 25.1534 70.1046 25.4972 70.1367 25.9021C70.1367 25.931 70.1367 25.9599 70.1367 25.9888C70.1687 26.7118 69.8386 27.4701 69.5822 27.9393H69.5854Z" fill="#00B000"/>
<path d="M47.7566 8.76573C49.3014 8.57293 53.032 8.48617 56.0959 11.4135C56.208 11.5227 56.3907 11.4006 56.333 11.2528C56.1311 10.7258 55.5029 9.83896 53.6056 8.87498C53.4838 8.81393 53.5255 8.62756 53.6633 8.63077C54.6376 8.65648 58.0445 9.30877 60.5635 11.5131C60.7174 11.648 60.9225 11.3813 60.7975 11.2239C60.4962 10.8479 60.0475 10.3563 59.4642 9.91286C59.3457 9.82289 59.4001 9.63331 59.5508 9.62688C60.4129 9.59154 62.2109 9.36018 63.2236 8.1295C63.8678 7.34868 63.2012 6.16941 62.198 6.30758C60.5411 6.53572 58.3425 6.19833 58.3521 3.43814C58.3521 3.36423 58.4611 3.34816 58.4771 3.42207C58.6854 4.34428 60.3039 5.24078 62.1243 4.40854C66.4157 2.44524 69.5117 8.3705 65.2203 15.234C65.0761 15.4622 64.778 15.5232 64.5921 15.3272C64.3838 15.1055 64.0729 14.8292 63.6499 14.5882C63.4768 14.4886 63.2813 14.6878 63.3935 14.8549C63.8934 15.6003 64.5921 17.0624 64.5825 19.4048C64.5825 19.8161 64.3486 20.1985 63.98 20.3817C63.6114 20.5648 63.1275 20.8958 62.7044 21.487C62.5987 21.6381 62.7749 21.8244 62.9256 21.7216C63.5505 21.291 64.4767 20.8219 64.9639 21.3971C65.6786 22.2422 68.4348 27.0556 68.3355 31.1461C68.3291 31.4192 67.9605 31.4996 67.8387 31.2554C67.8355 31.2489 67.8323 31.2425 67.8291 31.2329C67.7426 31.0561 67.4766 31.1172 67.4798 31.3164C67.5246 33.8517 66.8965 41.8109 57.3618 43.0448C57.0734 43.0834 56.7881 42.9549 56.6151 42.7235L55.035 40.6124C54.6825 40.14 54.0511 39.9697 53.5159 40.2107C52.9038 40.4839 52.1089 40.9948 51.4551 41.9266C49.6732 44.4651 50.4872 50.6474 55.1119 49.3557C56.8618 48.8159 57.3682 46.4702 53.6729 46.2677C53.5127 46.2581 53.4582 46.046 53.5992 45.9657C54.9613 45.1977 56.4708 45.1495 57.4804 45.8532C58.9258 46.859 59.0155 49.1661 58.3233 50.5093C56.8266 53.4108 50.3206 54.4262 46.2215 51.4957C43.1095 49.2721 41.6897 44.9985 42.6095 40.6799C42.6832 40.3393 42.4397 40.0147 42.0903 39.9858C41.2955 39.9215 40.0328 39.6548 39.145 38.633C38.4303 37.8136 37.9784 36.5058 38.2701 34.4269C38.9367 29.6873 42.3275 27.5922 43.7216 26.9239C44.0742 26.7536 44.4972 26.8403 44.7536 27.1392C45.0421 27.4798 45.3529 27.9778 45.5965 28.5112C45.651 28.6301 45.8241 28.5819 45.8113 28.4534C45.7728 28.0582 45.7375 27.6597 45.6895 27.2677C45.6574 26.9849 45.8786 26.7375 46.1606 26.7439C46.6125 26.7568 47.2599 26.7247 47.7663 26.4869C48.0483 26.3551 48.3944 26.4772 48.5354 26.7568C48.7886 27.2581 49.0803 28.071 49.0418 29.1218C49.0322 29.3788 49.3078 29.5459 49.529 29.4206C49.6187 29.3724 49.6764 29.2856 49.6956 29.186C49.8142 28.5048 50.1283 25.7703 48.0803 23.807C45.7247 21.5513 44.1415 19.257 44.5613 16.8246C44.9491 14.585 46.8881 11.9854 47.0291 9.52085C47.0516 9.12883 47.356 8.81393 47.747 8.76573H47.7566Z" fill="#B0EF22"/>
<path d="M56.1183 19.2475L56.4516 19.8291C56.4516 19.8291 53.0352 21.2108 52.8974 17.6955C52.7788 14.6429 57.224 16.5483 56.1151 19.2475H56.1183Z" fill="#00B000"/>
<path d="M55.7099 18.6657C56.0102 18.3184 55.8112 17.6524 55.2655 17.1781C54.7198 16.7039 54.034 16.601 53.7338 16.9483C53.4335 17.2956 53.6324 17.9616 54.1781 18.4359C54.7238 18.9101 55.4096 19.013 55.7099 18.6657Z" fill="white"/>
<path d="M48.7405 19.5752C48.7405 19.5752 50.734 19.739 50.5 18.1774C50.2661 16.6158 48.5995 16.0149 47.8271 16.5772C47.0548 17.1395 47.3817 18.9871 49.1283 19.3277C49.1283 19.3277 48.8591 19.5398 48.7405 19.5752Z" fill="#00B000"/>
<path d="M50.0148 18.4719C50.2837 18.1608 50.106 17.5647 49.6179 17.1404C49.1297 16.7161 48.5159 16.6244 48.2469 16.9355C47.9779 17.2466 48.1556 17.8427 48.6438 18.267C49.132 18.6913 49.7458 18.783 50.0148 18.4719Z" fill="white"/>
<path d="M59.3457 33.9899C59.3521 34.1988 59.3489 34.4076 59.336 34.6165C59.2816 35.513 59.0604 36.3934 58.6822 37.2096C58.5444 37.5084 58.3842 37.8008 58.2047 38.0804C57.8393 38.6524 57.3874 39.1793 56.8554 39.6356C56.5638 39.8895 56.2497 40.1208 55.91 40.3297H55.9068L55.1664 40.7828L54.5767 41.1459H54.5735L54.1505 41.4061L53.1569 42.0166L50.7789 43.4755L48.6444 44.7833C47.7791 45.3135 46.6477 45.0403 46.1189 44.1695L44.1735 40.982L41.8788 37.2192L40.9301 35.6672L40.5295 35.0085C40.0007 34.1377 40.2731 33.0034 41.1417 32.4733L41.1609 32.4604L42.1128 31.8788L44.0774 30.6738L45.5517 29.7709L48.404 28.0229C48.5675 27.9233 48.7341 27.8301 48.904 27.7433C49.1828 27.5987 49.4681 27.4766 49.7597 27.3738C52.0096 26.5737 54.4966 26.9625 56.3875 28.341C56.6119 28.5049 56.8298 28.6848 57.0381 28.8808C57.5156 29.3178 57.9387 29.8319 58.2912 30.4136C58.6342 30.9727 58.8906 31.5639 59.0636 32.1648C59.1502 32.4604 59.2143 32.7592 59.2623 33.0581C59.3104 33.3698 59.3392 33.6782 59.3457 33.9899Z" fill="#00B000"/>
<path d="M47.6893 44.0892C47.3816 44.0892 47.0996 43.9318 46.9394 43.6683L41.3532 34.5041C41.1 34.0896 41.2314 33.5465 41.6448 33.2959L48.9072 28.8455C49.8879 28.2446 51.0096 27.9265 52.1506 27.9265C53.4614 27.9265 54.7658 28.3507 55.8234 29.1218C56.4868 29.6038 57.0445 30.2079 57.4772 30.9181C57.9098 31.625 58.1919 32.3962 58.3169 33.2091C58.7079 35.7155 57.5669 38.1865 55.41 39.5103L48.1476 43.9607C48.0098 44.0442 47.8528 44.0892 47.6925 44.0892H47.6893Z" fill="white"/>
<path d="M61.6756 31.58L59.2655 33.0581C59.1245 32.1487 58.804 31.249 58.2944 30.4136C57.7849 29.5781 57.1343 28.8841 56.3875 28.341L58.8008 26.8629L61.6756 31.58Z" fill="#00B000"/>
<path d="M59.8809 31.551C59.6886 30.9823 59.4322 30.4328 59.1149 29.9122C58.7976 29.3917 58.4259 28.9097 58.0092 28.4791L58.4835 28.1899L60.3584 31.2618L59.8841 31.551H59.8809Z" fill="white"/>
<path d="M54.0736 39.3176L48.4938 42.7397C48.0419 43.016 47.449 42.8746 47.1734 42.4216L42.1128 34.1217L48.9713 29.9155C50.3623 29.064 52.2211 29.3886 53.1345 30.7446C53.9454 31.9463 53.7723 33.5048 52.8397 34.5041C52.7852 34.5651 52.7307 34.6166 52.6698 34.6712C51.9744 35.4424 51.8365 36.6056 52.4038 37.5374C52.766 38.1286 53.3397 38.5078 53.9678 38.6363C54.2947 38.7038 54.3652 39.144 54.08 39.3176H54.0736Z" fill="#ED2C68"/>
<path d="M46.0869 31.5478C46.0869 31.5478 45.6638 28.6205 43.9075 28.0903C42.2474 27.5922 37.5233 33.5239 39.2924 36.4801C39.536 36.885 39.9398 37.1742 40.3981 37.2802C41.0071 37.4184 41.7859 37.3991 42.2089 37.0264C42.4012 36.8561 42.6063 36.7083 42.8435 36.6119C43.1768 36.4737 43.6063 36.2006 43.712 35.6832C43.837 35.0791 44.2761 34.5682 44.8882 34.5072C45.7504 34.4204 46.5676 33.8035 46.0837 31.5542L46.0869 31.5478Z" fill="#00B000"/>
<path d="M54.894 38.8355C54.894 38.8355 53.2082 35.1756 56.035 35.227C56.3554 35.2335 56.6439 35.0246 56.7144 34.7097C56.9099 33.8421 57.6374 32.5215 60.336 34.6872C62.8935 36.7405 60.9481 39.1986 59.086 40.6446C58.0476 41.4511 56.5445 41.223 55.7721 40.1626C55.4164 39.6742 55.0799 39.1826 54.894 38.8387V38.8355Z" fill="#00B000"/>
<g opacity="0.5">
<path d="M62.6114 20.5231C62.6114 20.5231 63.8293 19.8869 63.5505 17.8432C63.2685 15.7964 61.7205 17.162 62.307 18.9004C62.5634 19.7005 62.7749 20.0989 62.6114 20.5231Z" fill="white"/>
</g>
<g opacity="0.5">
<path d="M47.5003 12.9205C47.5003 12.9205 46.9138 13.8717 46.7215 14.1641C46.5292 14.4565 46.4971 15.6004 47.3881 15.2502C48.2791 14.8999 48.5739 13.4732 48.5611 13.3158C48.5483 13.1583 48.6637 12.6603 48.2438 12.5478C47.824 12.4353 47.5003 12.9205 47.5003 12.9205Z" fill="white"/>
</g>
<g opacity="0.5">
<path d="M47.7919 12.2554C47.7919 12.2554 48.154 12.0851 48.3111 12.0626C48.4681 12.0401 48.795 11.6995 48.6957 11.5324C48.5963 11.3653 47.9169 11.3525 47.7374 11.5903C47.5579 11.8281 47.4682 12.2136 47.7951 12.2586L47.7919 12.2554Z" fill="white"/>
</g>
<g opacity="0.5">
<path d="M49.029 22.6792C49.029 22.6792 50.2052 23.3733 50.2276 24.514C50.25 25.6547 49.1123 24.1863 48.9649 23.8681C48.8174 23.55 48.2341 22.7178 49.029 22.676V22.6792Z" fill="white"/>
</g>
<g opacity="0.5">
<path d="M62.7878 15.1762C62.7878 15.1762 63.0922 15.3112 63.0858 15.7803C63.0987 16.0278 63.1756 16.333 62.8551 16.2109C62.5346 16.0888 62.291 15.9217 62.3519 15.4976C62.4128 15.0734 62.7878 15.1762 62.7878 15.1762Z" fill="white"/>
</g>
<path d="M43.664 29.9991C43.664 29.9991 45.1318 31.9431 45.3562 32.2837C45.5805 32.6243 45.7728 34.1603 43.8563 33.5497C41.9397 32.9392 41.4974 30.902 42.1865 30.0666C42.6929 29.3211 43.5838 29.8738 43.664 29.9991Z" fill="white"/>
<path d="M40.8661 32.0651C41.1385 32.1294 41.3724 32.2933 41.5551 32.5054C41.8884 32.8974 42.5519 33.7071 42.6929 34.1024C42.8115 34.4269 43.1736 34.9057 43.0134 35.2527C42.805 35.7058 41.9846 35.6865 41.8916 35.6865C40.9366 35.6576 39.8982 34.8607 39.7251 33.8099C39.6354 33.2669 39.7251 32.3222 40.3308 32.0876C40.5103 32.0169 40.6994 32.0266 40.8661 32.0651Z" fill="white"/>
<path d="M57.7015 34.6326C57.4836 34.8318 57.4355 35.1596 57.5413 35.4327C57.8425 36.2135 58.7175 38.0836 60.1982 38.1029C61.259 38.1029 61.2526 36.5734 60.4674 35.7283C60.2078 35.4456 58.4899 33.9064 57.6983 34.6326H57.7015Z" fill="white"/>
<path d="M56.2337 36.0496C56.4708 36.0753 56.6823 36.2039 56.8522 36.3742C57.3169 36.8465 58.4643 38.0772 58.6438 38.9416C58.8681 40.0276 56.6375 40.7956 55.6215 38.8741C54.7338 37.1903 55.2946 35.9436 56.2369 36.0496H56.2337Z" fill="white"/>
<path opacity="0.8" d="M49.9328 32.3286C50.1824 32.3286 50.3847 32.1258 50.3847 31.8756C50.3847 31.6253 50.1824 31.4225 49.9328 31.4225C49.6832 31.4225 49.4809 31.6253 49.4809 31.8756C49.4809 32.1258 49.6832 32.3286 49.9328 32.3286Z" fill="white"/>
<path opacity="0.8" d="M50.7917 31.1204C50.9492 31.1204 51.0769 30.9924 51.0769 30.8344C51.0769 30.6765 50.9492 30.5485 50.7917 30.5485C50.6342 30.5485 50.5065 30.6765 50.5065 30.8344C50.5065 30.9924 50.6342 31.1204 50.7917 31.1204Z" fill="white"/>
<path opacity="0.8" d="M50.2341 35.8279C50.5668 35.8279 50.8366 35.5575 50.8366 35.2238C50.8366 34.8902 50.5668 34.6198 50.2341 34.6198C49.9013 34.6198 49.6315 34.8902 49.6315 35.2238C49.6315 35.5575 49.9013 35.8279 50.2341 35.8279Z" fill="white"/>
<path opacity="0.8" d="M49.0162 40.4164C49.549 40.4164 49.9809 39.9834 49.9809 39.4492C49.9809 38.9151 49.549 38.4821 49.0162 38.4821C48.4834 38.4821 48.0515 38.9151 48.0515 39.4492C48.0515 39.9834 48.4834 40.4164 49.0162 40.4164Z" fill="white"/>
<path d="M63.6178 27.1681C63.6178 27.1681 63.6114 27.1521 63.605 27.1456L61.2013 23.203C61.0795 23.007 60.8263 22.9459 60.6308 23.0648C60.4353 23.1837 60.3744 23.4407 60.493 23.6368L61.2942 24.9478L61.0186 25.1149L60.7462 25.2819C60.5443 24.9542 60.1917 24.7743 59.8328 24.7743C59.6437 24.7743 59.4514 24.8257 59.2783 24.9317C58.7719 25.2402 58.6117 25.9021 58.9226 26.4098L62.1499 31.6988C62.4576 32.2065 63.1178 32.364 63.621 32.0555C64.1242 31.7503 64.2844 31.0883 63.98 30.5838L64.2524 30.4167L64.528 30.2497L65.326 31.5607C65.4446 31.7567 65.701 31.8177 65.8965 31.6988C66.0888 31.5799 66.1529 31.3229 66.0311 31.1269L63.6306 27.1874C63.6306 27.1874 63.621 27.1746 63.6178 27.1681Z" fill="white"/>
<path d="M66.2234 23.9934C66.076 23.9581 65.9254 23.942 65.7747 23.942C65.4318 23.942 65.0921 24.0352 64.7908 24.2184C63.8999 24.7646 63.6178 25.9375 64.1627 26.8307C64.4287 27.2645 64.8421 27.5666 65.3357 27.6855C65.826 27.8044 66.3356 27.724 66.7683 27.4605C67.1977 27.1938 67.5022 26.7793 67.6208 26.2845C67.7394 25.7929 67.6592 25.2819 67.3932 24.8482C67.1304 24.4176 66.7138 24.1123 66.2234 23.9934Z" fill="#383838"/>
<path d="M68.1913 24.3469C67.6688 23.489 66.7554 22.9781 65.7523 22.9781C65.2299 22.9781 64.7139 23.1227 64.2652 23.3958C63.7813 23.6946 63.4031 24.1188 63.1691 24.6233L61.9961 22.6985C61.7429 22.2872 61.3039 22.0398 60.8231 22.0398C60.5699 22.0398 60.3232 22.1105 60.1052 22.2422C59.5572 22.5796 59.3296 23.2416 59.5155 23.8328C59.2463 23.8714 58.9867 23.9645 58.7527 24.1091C57.7945 24.694 57.4932 25.9536 58.0765 26.9111L61.3039 32.2034C61.6756 32.8139 62.3262 33.177 63.0409 33.177C63.4127 33.177 63.7813 33.0741 64.0986 32.8781C64.3389 32.7335 64.5376 32.544 64.6915 32.3287C64.9447 32.5793 65.2876 32.7239 65.6562 32.7239C65.9093 32.7239 66.1561 32.6532 66.3741 32.5215C67.0182 32.123 67.2234 31.2747 66.8292 30.6256L65.6529 28.6977C65.6882 28.6977 65.7202 28.7041 65.7587 28.7041C66.2811 28.7041 66.7971 28.5563 67.2458 28.2832C68.5887 27.4574 69.0117 25.6933 68.1913 24.3469ZM66.0311 31.1269C66.1529 31.3229 66.0888 31.58 65.8965 31.6989C65.701 31.8178 65.4446 31.7567 65.326 31.5607L64.528 30.2497L64.2524 30.4168L63.98 30.5839C64.2844 31.0883 64.1242 31.7503 63.621 32.0555C63.1178 32.364 62.4576 32.2066 62.15 31.6989L58.9226 26.4098C58.6117 25.9021 58.772 25.2402 59.2783 24.9317C59.4514 24.8257 59.6437 24.7743 59.8328 24.7743C60.1918 24.7743 60.5443 24.9542 60.7462 25.282L61.0186 25.1149L61.2942 24.9478L60.493 23.6368C60.3744 23.4408 60.4353 23.1837 60.6308 23.0648C60.8263 22.9459 61.0795 23.007 61.2013 23.203L63.605 27.1457C63.605 27.1457 63.6114 27.1585 63.6178 27.1682C63.621 27.1746 63.6274 27.181 63.6306 27.1874L66.0311 31.1269ZM67.6208 26.2845C67.5022 26.7794 67.1977 27.1939 66.7683 27.4606C66.3356 27.7241 65.826 27.8044 65.3357 27.6855C64.8421 27.5666 64.4287 27.2646 64.1627 26.8308C63.6178 25.9375 63.8999 24.7646 64.7908 24.2184C65.0921 24.0352 65.4318 23.942 65.7747 23.942C65.9254 23.942 66.076 23.9581 66.2234 23.9935C66.7138 24.1124 67.1304 24.4176 67.3932 24.8482C67.6592 25.282 67.7394 25.7929 67.6208 26.2845Z" fill="#00B000"/>
<path d="M67.6208 26.2845C67.5022 26.7793 67.1977 27.1938 66.7683 27.4605C66.3356 27.724 65.826 27.8044 65.3357 27.6855C64.8421 27.5666 64.4287 27.2645 64.1627 26.8307C63.6178 25.9375 63.8999 24.7646 64.7908 24.2184C65.0921 24.0352 65.4318 23.942 65.7747 23.942C65.9254 23.942 66.076 23.9581 66.2234 23.9934C66.7138 24.1123 67.1304 24.4176 67.3932 24.8482C67.6592 25.2819 67.7394 25.7929 67.6208 26.2845Z" fill="white"/>
<path d="M59.6726 27.4285L55.7882 29.8866L57.5862 33.0228L61.4513 30.5518L59.6726 27.4285Z" fill="white"/>
</g>
<defs>
<clipPath id="clip0_174_203">
<rect width="102" height="100" fill="white" transform="translate(0.5)"/>
</clipPath>
</defs>
</svg>
