<svg width="128" height="100" viewBox="0 0 128 100" fill="none" xmlns="http://www.w3.org/2000/svg">
<mask id="mask0_174_298" style="mask-type:luminance" maskUnits="userSpaceOnUse" x="39" y="0" width="49" height="56">
<path d="M70.1545 30.4611L73.4204 32.3494L67.9055 40.9521L67.1651 38.6656L70.1545 30.4611ZM74.2591 19.2156L71.518 26.736L75.5383 29.0554L79.5117 22.8563L79.999 22.0926L74.3856 18.8548L74.2544 19.2156H74.2591ZM78.195 8.4247L77.7265 9.70856L77.2439 11.0205L75.7491 15.1298L82.1122 18.8033L84.8111 14.5956L85.9075 12.8807L78.195 8.42939V8.4247ZM67.7555 44.7803L68.8894 46.8888L74.1982 42.6717L75.0369 42.0017V36.2759L74.1982 37.2552L67.7602 44.7756L67.7555 44.7803ZM84.7783 24.8946L78.9447 31.7121V38.8951L84.8111 34.233L87.5662 32.0401V21.6381L84.7783 24.8993V24.8946ZM71.429 48.3694H75.6742L87.5662 41.505V37.2599L84.7783 39.181L71.429 48.3741V48.3694ZM68.524 50.3233L67.3338 48.1211L66.392 46.3687L65.5205 44.7568L65.4924 44.7053L65.2065 44.1852L65.1738 44.1196L64.1757 42.2688L65.8766 41.0318L65.0191 38.3938H62.1703L61.3128 41.0318L63.0137 42.2688L62.0157 44.1196L61.9829 44.1852L61.697 44.7053L61.6689 44.7568L60.7974 46.3687L59.8556 48.1211L58.6655 50.3233H54.9029L63.59 55.3369L72.2771 50.3233H68.5146H68.524ZM61.0692 28.1323L62.1609 34.0549L62.5967 36.4305H64.5927L65.0285 34.0549L66.1202 28.1323L63.5947 26.6751L61.0645 28.1323H61.0692ZM58.7311 15.4344L59.1668 17.8193L60.3148 24.0559L63.5947 22.1582L66.8699 24.0512L68.0179 17.8193L68.4537 15.4297L63.59 12.623L58.7264 15.4344H58.7311ZM63.5947 0L56.6319 4.01556L56.7256 4.5216L57.8783 10.7862L57.986 11.3579L63.5994 8.11546L69.2127 11.3532L69.3205 10.7862L70.4732 4.5216L70.5669 4.01556L63.6041 0H63.5947ZM49.9502 11.0158L49.4676 9.70387L48.9991 8.42002L41.2866 12.8713L42.383 14.5863L45.0866 18.7939L51.4449 15.1251L49.9502 11.0158ZM52.935 19.211L52.8038 18.8548L47.1951 22.0926L47.6777 22.8563L51.6558 29.0601L55.6714 26.7407L52.9303 19.2203L52.935 19.211ZM57.0396 30.4611L53.7737 32.3447L59.2886 40.9474L60.029 38.6609L57.0396 30.4611ZM39.6279 21.6334V32.0354L42.383 34.2283L48.2541 38.8951V31.7121L42.4158 24.8946L39.6279 21.6334ZM52.9959 37.2552L52.1618 36.2759V42.0017L52.9959 42.6671L58.3047 46.8841L59.4386 44.7756L53.0006 37.2552H52.9959ZM42.4158 39.181L39.6279 37.2599V41.505L51.5199 48.3694H55.7651L42.4158 39.1763V39.181Z" fill="white"/>
</mask>
<g mask="url(#mask0_174_298)">
<path d="M81.3297 55.3412H91.6943L99.5708 45.9654C97.0546 45.8342 94.5853 45.5483 92.1816 45.0845C88.8501 48.7908 85.2328 52.2066 81.3297 55.3412Z" fill="#962379"/>
<path d="M52.6773 55.3415H74.5122C70.7168 53.8186 67.0808 52.01 63.5947 49.939C60.1086 52.01 56.4726 53.8186 52.6773 55.3415Z" fill="#962379"/>
<path d="M92.1816 45.0845C86.7135 44.138 81.4844 42.4371 76.6113 40.1459C72.6426 43.8288 68.2757 47.118 63.5994 49.9388C67.0855 52.0098 70.7215 53.8184 74.5169 55.3413H81.3344C85.2375 52.2113 88.8548 48.7908 92.1863 45.0845H92.1816Z" fill="#B22775"/>
<path d="M76.6113 40.1459C81.4843 42.4419 86.7134 44.1381 92.1815 45.0845C95.8222 41.069 99.0834 36.7489 101.932 32.1382C96.4642 32.007 91.2116 30.9668 86.362 29.1582C83.4523 33.1269 80.1864 36.791 76.6113 40.1412V40.1459Z" fill="#EB3C6A"/>
<path d="M101.932 32.1385C102.045 32.0073 102.129 31.8526 102.218 31.698L92.2284 19.7872C90.5088 23.0531 88.5221 26.1831 86.362 29.1631C91.2163 30.9718 96.4642 32.0073 101.932 32.1432V32.1385Z" fill="#F73068"/>
<path d="M35.0126 45.0845C32.6089 45.5483 30.1395 45.8342 27.6234 45.9654L35.4999 55.3412H45.8644C41.9613 52.2113 38.344 48.7908 35.0126 45.0845Z" fill="#962379"/>
<path d="M50.5828 40.1459C45.7098 42.4418 40.4807 44.138 35.0126 45.0845C38.3441 48.7908 41.9613 52.2066 45.8645 55.3413H52.682C56.4773 53.8184 60.1134 52.0098 63.5994 49.9388C58.9232 47.1134 54.5562 43.8288 50.5875 40.1459H50.5828Z" fill="#B22775"/>
<path d="M50.5829 40.1459C54.5516 43.8287 58.9185 47.118 63.5948 49.9388C68.271 47.1134 72.638 43.8287 76.6067 40.1459C71.9304 37.939 67.5635 35.1604 63.5948 31.8945C59.6261 35.1604 55.2591 37.939 50.5829 40.1459Z" fill="#E53074"/>
<path d="M86.3621 29.163C81.6202 27.3965 77.2533 24.9272 73.3502 21.8628C70.4826 25.5691 67.198 28.9427 63.5994 31.8993C67.5681 35.1652 71.9351 37.9438 76.6113 40.1507C80.1864 36.7958 83.4476 33.1363 86.3621 29.1676V29.163Z" fill="#F73068"/>
<path d="M86.3621 29.163C88.5221 26.1876 90.5088 23.053 92.2284 19.7871L81.7514 7.28125C79.6335 12.5525 76.7894 17.449 73.3502 21.8628C77.2533 24.9272 81.6202 27.4012 86.3621 29.163Z" fill="#FB6A29"/>
<path d="M40.8368 29.163C35.9825 30.9716 30.7346 32.0071 25.2665 32.143C28.1107 36.7536 31.3766 41.0738 35.0173 45.0893C40.4854 44.1428 45.7145 42.4419 50.5875 40.1507C47.0124 36.7958 43.7512 33.1364 40.8368 29.1677V29.163Z" fill="#EB3C6A"/>
<path d="M53.8487 21.8581C49.9456 24.9225 45.5786 27.3965 40.8368 29.1582C43.7465 33.1269 47.0124 36.7911 50.5875 40.1413C55.2638 37.9344 59.6307 35.1558 63.5994 31.8899C60.0056 28.9333 56.7163 25.5597 53.8487 21.8534V21.8581Z" fill="#F73068"/>
<path d="M63.5994 31.8946C67.1933 28.938 70.4826 25.5644 73.3501 21.8581C69.6204 18.9249 66.3124 15.4622 63.5994 11.5779C60.8865 15.4576 57.5784 18.9249 53.8487 21.8581C56.7163 25.5644 60.0009 28.938 63.5994 31.8946Z" fill="#FB6A29"/>
<path d="M73.3455 21.858C76.7847 17.4488 79.6335 12.5524 81.7467 7.27641L71.2041 -5.29504C69.7703 0.880574 67.1464 6.57357 63.5947 11.5778C66.3077 15.4575 69.6157 18.9248 73.3455 21.858Z" fill="#FD902F"/>
<path d="M40.8368 29.1631C38.6767 26.1878 36.69 23.0531 34.9704 19.7872L24.9807 31.698C25.0697 31.8526 25.1588 32.0073 25.2665 32.1385C30.7346 32.0073 35.9872 30.9671 40.8368 29.1584V29.1631Z" fill="#F73068"/>
<path d="M53.8487 21.8581C50.4094 17.4489 47.5606 12.5525 45.4474 7.27649L34.9704 19.7824C36.69 23.0482 38.6767 26.1782 40.8368 29.1582C45.5786 27.3918 49.9456 24.9225 53.8487 21.8581Z" fill="#FB6A29"/>
<path d="M63.5994 11.5827C60.0477 6.57377 57.4238 0.885457 55.99 -5.29016L45.4474 7.2813C47.5653 12.5526 50.4095 17.449 53.8487 21.8629C57.5784 18.9297 60.8865 15.467 63.5994 11.5827Z" fill="#FD902F"/>
<path d="M71.2088 -5.2903L63.5994 -14.3569L55.99 -5.2903C57.4238 0.885317 60.0477 6.57832 63.5994 11.5825C67.1511 6.57363 69.7751 0.885317 71.2088 -5.2903Z" fill="#FDAE3A"/>
</g>
<path d="M12.6529 81.1637C12.6529 82.7006 12.0578 83.8532 10.863 84.617C10.1133 85.123 9.14805 85.451 7.97197 85.5963H2.82718L0.695236 85.6197V85.5963C1.12163 85.5307 1.44962 85.3151 1.68858 84.945C1.92286 84.5795 2.04469 84.0688 2.04469 83.4128L2.06812 72.2142H2.04469V72.1908C2.04469 71.5395 1.92755 71.0288 1.68858 70.6586C1.44962 70.2931 1.12163 70.0729 0.695236 70.0073V69.9839L6.81931 69.937C8.15939 69.9839 9.21834 70.265 10.0055 70.771C10.9708 71.3942 11.4534 72.3126 11.4534 73.5402C11.4534 75.1568 10.4647 76.286 8.48738 76.9232C8.25779 76.9888 8.26716 77.0451 8.51081 77.0966C11.2706 77.5698 12.6529 78.924 12.6529 81.1637ZM9.02623 73.7417C9.02623 72.6968 8.75446 71.9471 8.21562 71.488C7.69083 71.0147 6.85211 70.7757 5.69008 70.7757C4.75765 70.7757 4.26098 70.9163 4.19538 71.1928C4.17664 71.2584 4.17195 71.338 4.17195 71.4364V76.6327H5.22621C6.54755 76.6327 7.51278 76.4078 8.11722 75.958C8.72167 75.5082 9.02154 74.7679 9.02154 73.7417H9.02623ZM10.2023 81.4355C10.2023 80.1141 9.76187 79.1161 8.88097 78.4461C8.13128 77.8744 7.14262 77.5886 5.91499 77.5886C5.1981 77.5886 4.61708 77.6308 4.17664 77.7104V83.6377C4.17664 84.4061 4.9685 84.7904 6.55223 84.7904C8.98406 84.7904 10.2023 83.6705 10.2023 81.4355Z" fill="#962379"/>
<path d="M33.307 85.5963L31.1751 85.5729H30.758C30.1067 85.5729 29.343 85.5823 28.4808 85.5963V85.5729C28.9072 85.5073 29.2352 85.2918 29.4742 84.9216C29.7085 84.5561 29.8303 84.0454 29.8303 83.3894L29.8069 78.9287C29.8069 78.5867 29.7647 78.3571 29.685 78.2446C29.6054 78.1322 29.4133 78.0712 29.1228 78.0712H20.6699C20.3092 78.0712 20.0889 78.1181 20.0093 78.2071C19.9296 78.2962 19.8874 78.5211 19.8874 78.8819L19.9109 83.3894C19.9109 84.0407 20.028 84.5514 20.267 84.9216C20.5013 85.2918 20.8339 85.5073 21.2603 85.5729V85.5963L19.1284 85.5729H18.7114C18.0554 85.5729 17.2963 85.5823 16.4342 85.5963V85.5729C16.8606 85.5073 17.1885 85.2918 17.4275 84.9216C17.6618 84.5561 17.7836 84.0454 17.7836 83.3894V72.2892H17.7602V72.2658C17.7602 71.6145 17.643 71.1038 17.4041 70.7336C17.1651 70.3681 16.8371 70.1479 16.4107 70.0823V70.0589H21.2884V70.0823C20.8621 70.1479 20.5341 70.3869 20.2951 70.8039C20.0561 71.2209 19.9249 71.9191 19.8921 72.8983V76.0096C19.8921 76.5672 20.1639 76.8436 20.7027 76.8436H29.0337C29.3617 76.8436 29.5632 76.8108 29.6475 76.7452C29.76 76.6328 29.8209 76.3704 29.8209 75.9627L29.8443 72.2611H29.8209V72.2377C29.8209 71.5864 29.7038 71.0756 29.4648 70.7055C29.2305 70.3353 28.8979 70.1198 28.4715 70.0542V70.0308H33.3492V70.0542C32.9228 70.1198 32.5948 70.3588 32.3558 70.7758C32.1169 71.1928 31.9857 71.8909 31.9529 72.8702V79.9033L31.9763 83.3847C31.9763 84.036 32.0934 84.5467 32.3324 84.9169C32.5667 85.2871 32.8994 85.5026 33.3257 85.5682V85.5916L33.307 85.5963Z" fill="#962379"/>
<path d="M42.3502 85.6245H42.3268L40.1948 85.6011H39.656L37.524 85.6245V85.6011C38.2737 85.5027 38.7142 84.9311 38.8454 83.8862V83.7878C38.8594 83.7081 38.8688 83.5816 38.8688 83.4223L38.8922 72.2237H38.8688V72.2003C38.8688 71.549 38.7517 71.0383 38.5127 70.6681C38.2737 70.3026 37.9457 70.0824 37.5193 70.0168V69.9934L43.6434 69.9465C44.9835 69.9934 46.0425 70.2745 46.8296 70.7806C47.7949 71.4038 48.2728 72.3221 48.2728 73.5498C48.2728 75.1663 47.2607 76.5579 45.2365 77.7153C45.0069 77.7809 44.8523 77.8605 44.7727 77.9589C47.9589 82.5836 51.0373 85.0904 54.008 85.4793L54.842 85.6245L50.9202 85.648C49.3177 85.662 47.9214 84.9686 46.7312 83.5676C45.0632 81.4122 43.6856 79.6785 42.5892 78.3712C41.8723 78.3712 41.3147 78.4134 40.9211 78.4931L40.9961 83.4176C40.9961 84.0689 41.1132 84.5797 41.3522 84.9498C41.5864 85.3153 41.9191 85.5355 42.3455 85.6011V85.6245H42.3502ZM45.855 73.7419C45.855 72.697 45.5833 71.9473 45.0444 71.4881C44.5196 71.0149 43.6809 70.7759 42.5189 70.7759C41.5865 70.7759 41.0898 70.9165 41.0242 71.1929C41.0054 71.2585 41.0007 71.3382 41.0007 71.4366L40.9258 77.4154H41.9051C43.2779 77.4154 44.276 77.0593 44.9085 76.3517C45.5364 75.6395 45.8503 74.7727 45.8503 73.7419H45.855Z" fill="#962379"/>
<path d="M62.4186 69.745C61.9782 69.7778 61.608 69.9137 61.3175 70.148C61.0223 70.387 60.7599 70.6822 60.535 71.0429V83.3661C60.535 83.8253 60.6568 84.2095 60.9052 84.5187C61.0692 84.7624 61.2707 84.9732 61.519 85.1419C61.7626 85.3153 62.0485 85.4324 62.3765 85.498C62.4093 85.5308 62.4186 85.5542 62.3999 85.573C62.3343 85.6245 62.1281 85.6386 61.7861 85.6245C59.6776 85.5449 58.0517 85.5449 56.9084 85.6245C56.6647 85.6386 56.5007 85.6058 56.4164 85.5261C56.974 85.4793 57.4425 85.2778 57.8267 84.9264C58.211 84.5749 58.4171 84.1626 58.4499 83.6894V71.8067C58.4499 71.4787 58.3843 71.1929 58.2531 70.9492C58.1219 70.6212 57.9486 70.3401 57.7284 70.1058C57.5081 69.8715 57.2645 69.7497 57.0068 69.7497C57.138 69.7169 58.061 69.6982 59.776 69.6888C61.4909 69.6794 62.3718 69.7029 62.4233 69.7497L62.4186 69.745Z" fill="#962379"/>
<path d="M69.9156 78.0011V83.3661C69.9156 83.8253 70.0374 84.2095 70.281 84.5187C70.445 84.7624 70.6465 84.9732 70.8949 85.1419C71.1385 85.3153 71.4243 85.4324 71.7523 85.498C71.7851 85.5308 71.7945 85.5542 71.7757 85.573C71.7101 85.6245 71.504 85.6386 71.1619 85.6245C69.0534 85.5449 67.4275 85.5449 66.2842 85.6245C66.0406 85.6386 65.8766 85.6058 65.7922 85.5261C66.3451 85.4793 66.8184 85.2778 67.2026 84.9264C67.5868 84.5749 67.793 84.1626 67.8258 83.6894C67.793 75.6348 67.7133 71.4881 67.5821 71.2444C67.4509 70.9164 67.2776 70.6353 67.0574 70.401C66.8371 70.1667 66.5935 70.0449 66.3358 70.0449C66.467 70.0121 67.39 69.9934 69.105 69.984C70.8199 69.9746 71.7008 69.9981 71.7523 70.0449C71.3119 70.0777 70.9417 70.2136 70.6512 70.4479C70.356 70.6822 70.0936 70.982 69.8687 71.3428L69.9156 77.1998C72.1693 75.3209 74.2591 73.5638 76.1896 71.9332C76.5644 71.6052 76.8081 71.3334 76.9112 71.1132C77.0189 70.893 77.0236 70.7056 76.9252 70.551C76.8268 70.3963 76.6535 70.2698 76.4004 70.1714C76.1474 70.073 75.8569 69.984 75.5289 69.8997L76.7284 69.9465L80.5519 69.8997L77.7593 71.9332H77.7827C77.4734 72.1441 77.0236 72.4908 76.4332 72.9734C75.8428 73.456 74.2029 74.8336 71.5087 77.1014C72.7176 78.2634 74.8167 80.4891 77.8061 83.7925C78.2466 84.35 78.7198 84.7811 79.2259 85.0904C79.7319 85.3996 80.1911 85.5824 80.5987 85.6292V85.6526L76.9487 85.6058L69.9156 78.0104V78.0011Z" fill="#962379"/>
<path d="M96.8531 70.5417C96.6141 70.1715 96.2861 69.956 95.8597 69.8904V69.8669H99.9268V69.8904C99.5004 69.956 99.1724 70.1715 98.9335 70.5417C98.6945 70.9071 98.5774 71.4179 98.5774 72.0739L98.6008 79.032C98.732 81.2201 98.2259 82.9116 97.0827 84.1065C95.9066 85.3294 94.2057 85.9432 91.9847 85.9432C87.2804 85.9432 84.9282 83.7316 84.9282 79.3037L84.9516 72.0739H84.9282V72.0504C84.9282 71.3991 84.8111 70.8884 84.5721 70.5182C84.3331 70.1528 84.0052 69.9325 83.5788 69.8669V69.8435H88.4565V69.8669C88.0301 69.9325 87.7021 70.1715 87.4631 70.5885C87.2242 71.0055 87.093 71.6849 87.0602 72.6361V78.882C87.0602 80.9249 87.4819 82.4197 88.3206 83.3661C89.164 84.3126 90.5228 84.7859 92.4017 84.7859C95.6208 84.7859 97.2279 82.9304 97.2279 79.2241L97.2045 72.0692C97.2045 71.4179 97.0873 70.9071 96.8484 70.537L96.8531 70.5417Z" fill="#962379"/>
<path d="M118.674 69.8903C118.655 71.4084 118.641 72.7063 118.627 73.784H118.529C117.793 72.6922 117.175 71.9613 116.668 71.6052C116.031 71.146 114.935 70.9211 113.384 70.9211H112.451C112.156 70.9539 111.992 71.0195 111.959 71.1179C111.927 71.1647 111.913 71.2303 111.913 71.3147L111.889 83.3707C111.889 83.8299 112.011 84.2141 112.255 84.5234C112.419 84.767 112.625 84.9779 112.868 85.1466C113.112 85.3199 113.398 85.4371 113.726 85.5027C113.759 85.5355 113.768 85.5589 113.749 85.5776C113.684 85.6292 113.478 85.6432 113.136 85.6292C111.027 85.5495 109.401 85.5495 108.258 85.6292C108.014 85.6432 107.85 85.6104 107.766 85.5308C108.319 85.4839 108.792 85.2824 109.176 84.931C109.56 84.5796 109.767 84.1673 109.799 83.694L109.776 71.3194C109.776 71.1554 109.696 71.0335 109.532 70.9539H108.234C106.683 70.9539 105.587 71.1835 104.95 71.638C104.444 71.9988 103.821 72.725 103.09 73.8168H102.991C102.972 72.7391 102.958 71.4412 102.944 69.9231L109.682 69.9465L118.674 69.8996V69.8903Z" fill="#962379"/>
<path d="M127.3 69.745C126.86 69.7778 126.489 69.9137 126.199 70.148C125.904 70.387 125.641 70.6822 125.416 71.0429V83.3661C125.416 83.8253 125.538 84.2095 125.787 84.5187C125.951 84.7624 126.152 84.9732 126.4 85.1419C126.644 85.3153 126.93 85.4324 127.258 85.498C127.291 85.5308 127.3 85.5542 127.281 85.573C127.216 85.6245 127.01 85.6386 126.668 85.6245C124.559 85.5449 122.933 85.5449 121.79 85.6245C121.546 85.6386 121.382 85.6058 121.298 85.5261C121.855 85.4793 122.324 85.2778 122.708 84.9264C123.092 84.5749 123.299 84.1626 123.331 83.6894V71.8067C123.331 71.4787 123.266 71.1929 123.135 70.9492C123.003 70.6212 122.83 70.3401 122.61 70.1058C122.39 69.8715 122.146 69.7497 121.888 69.7497C122.019 69.7169 122.942 69.6982 124.657 69.6888C126.372 69.6794 127.253 69.7029 127.305 69.7497L127.3 69.745Z" fill="#962379"/>
<path d="M14.4474 98.7537C14.7708 99.1145 15.3002 99.4519 15.989 99.4519C16.8652 99.4519 17.1417 98.9833 17.1417 98.6084C17.1417 98.0227 16.5466 97.8587 15.9 97.6807C15.1128 97.4745 14.2413 97.2543 14.2413 96.2938C14.2413 95.4831 14.9629 94.9349 15.9234 94.9349C16.6731 94.9349 17.2541 95.1833 17.6665 95.619L17.301 96.0689C16.9355 95.6659 16.4201 95.4832 15.8812 95.4832C15.2955 95.4832 14.8738 95.7971 14.8738 96.261C14.8738 96.7529 15.4408 96.8982 16.064 97.0716C16.8652 97.2871 17.7789 97.5354 17.7789 98.5616C17.7789 99.2738 17.2916 100 15.9703 100C15.1175 100 14.4943 99.6768 14.0867 99.2223L14.4474 98.7584V98.7537Z" fill="#962379"/>
<path d="M21.6586 94.9253C23.1065 94.9253 24.0904 96.0124 24.0904 97.4602C24.0904 98.9081 23.1065 99.9951 21.6586 99.9951C20.2108 99.9951 19.2268 98.9081 19.2268 97.4602C19.2268 96.0124 20.2061 94.9253 21.6586 94.9253ZM21.6586 95.4688C20.5575 95.4688 19.8593 96.3122 19.8593 97.4602C19.8593 98.6082 20.5575 99.4516 21.6586 99.4516C22.7597 99.4516 23.4579 98.5988 23.4579 97.4602C23.4579 96.3216 22.7503 95.4688 21.6586 95.4688Z" fill="#962379"/>
<path d="M25.7819 95.0049H26.3911V97.9896C26.3911 98.8846 26.8784 99.4515 27.778 99.4515C28.6776 99.4515 29.1649 98.8846 29.1649 97.9896V95.0049H29.7741V97.9943C29.7741 99.2126 29.104 99.995 27.7733 99.995C26.4426 99.995 25.7726 99.2079 25.7726 98.0037V95.0049H25.7819Z" fill="#962379"/>
<path d="M31.1563 95.0049H31.8545L33.5085 99.2407L35.1625 95.0049H35.8607L33.8833 99.906H33.1243L31.1563 95.0049Z" fill="#962379"/>
<path d="M37.2335 95.0049H40.4432V95.5484H37.8426V97.1275H40.3916V97.671H37.8426V99.3625H40.4432V99.906H37.2335V95.0049Z" fill="#962379"/>
<path d="M42.7625 95.9514V99.906H42.1534V95.0049H42.7766L45.5973 98.8799V95.0049H46.2064V99.906H45.6207L42.7625 95.9514Z" fill="#962379"/>
<path d="M48.0947 95.0049H48.7039V99.906H48.0947V95.0049Z" fill="#962379"/>
<path d="M52.1712 97.9617H51.1919V99.9109H50.5828V95.0098H52.5507C53.4457 95.0098 54.0876 95.5814 54.0876 96.4857C54.0876 97.39 53.4831 97.8539 52.8178 97.9102L54.1391 99.9109H53.4175L52.1665 97.9617H52.1712ZM52.4804 95.5533H51.1919V97.4275H52.4804C53.0614 97.4275 53.4597 97.0386 53.4597 96.4857C53.4597 95.9328 53.0614 95.5533 52.4804 95.5533Z" fill="#962379"/>
<path d="M55.8541 98.7535C56.1774 99.1142 56.7069 99.4516 57.3956 99.4516C58.2718 99.4516 58.5483 98.983 58.5483 98.6082C58.5483 98.0225 57.9532 97.8585 57.3066 97.6805C56.5194 97.4743 55.6479 97.2541 55.6479 96.2935C55.6479 95.4829 56.3695 94.9347 57.33 94.9347C58.0797 94.9347 58.6607 95.183 59.0731 95.6188L58.7076 96.0686C58.3421 95.6656 57.8267 95.4829 57.2879 95.4829C56.7022 95.4829 56.2805 95.7968 56.2805 96.2607C56.2805 96.7527 56.8474 96.898 57.4706 97.0713C58.2718 97.2869 59.1855 97.5352 59.1855 98.5613C59.1855 99.2736 58.6982 99.9998 57.3769 99.9998C56.5241 99.9998 55.9009 99.6765 55.4933 99.222L55.8541 98.7581V98.7535Z" fill="#962379"/>
<path d="M63.4635 95.0049H66.6731V95.5484H64.0726V97.1275H66.6216V97.671H64.0726V99.906H63.4635V95.0049Z" fill="#962379"/>
<path d="M69.8265 97.9617H68.8472V99.9109H68.2381V95.0098H70.2061C71.101 95.0098 71.7429 95.5814 71.7429 96.4857C71.7429 97.39 71.1385 97.8539 70.4731 97.9102L71.7945 99.9109H71.0729L69.8218 97.9617H69.8265ZM70.1358 95.5533H68.8472V97.4275H70.1358C70.7168 97.4275 71.1151 97.0386 71.1151 96.4857C71.1151 95.9328 70.7168 95.5533 70.1358 95.5533Z" fill="#962379"/>
<path d="M75.6788 94.9253C77.1267 94.9253 78.1107 96.0124 78.1107 97.4602C78.1107 98.9081 77.1267 99.9951 75.6788 99.9951C74.231 99.9951 73.247 98.9081 73.247 97.4602C73.247 96.0124 74.2263 94.9253 75.6788 94.9253ZM75.6788 95.4688C74.5777 95.4688 73.8796 96.3122 73.8796 97.4602C73.8796 98.6082 74.5777 99.4516 75.6788 99.4516C76.78 99.4516 77.4781 98.5988 77.4781 97.4602C77.4781 96.3216 76.7706 95.4688 75.6788 95.4688Z" fill="#962379"/>
<path d="M83.9911 95.8297L82.323 99.9109H82.0747L80.416 95.8297V99.9109H79.8069V95.0098H80.6831L82.2059 98.7442L83.7334 95.0098H84.6096V99.9109H84.0005V95.8297H83.9911Z" fill="#962379"/>
<path d="M89.7263 95.9514V99.906H89.1172V95.0049H89.7403L92.5611 98.8799V95.0049H93.1702V99.906H92.5845L89.7263 95.9514Z" fill="#962379"/>
<path d="M95.0538 95.0049H98.2634V95.5484H95.6629V97.1275H98.2119V97.671H95.6629V99.3625H98.2634V99.906H95.0538V95.0049Z" fill="#962379"/>
<path d="M99.9737 95.0049H101.942C102.926 95.0049 103.479 95.6796 103.479 96.4809C103.479 97.2821 102.912 97.9568 101.942 97.9568H100.583V99.906H99.9737V95.0049ZM101.871 95.5484H100.583V97.4133H101.871C102.452 97.4133 102.851 97.0291 102.851 96.4809C102.851 95.9326 102.452 95.5484 101.871 95.5484Z" fill="#962379"/>
<path d="M107.546 98.819H105.062L104.626 99.906H103.952L105.92 95.0049H106.679L108.656 99.906H107.981L107.546 98.819ZM105.236 98.2754H107.358L106.299 95.5484L105.231 98.2754H105.236Z" fill="#962379"/>
<path d="M110.029 95.0049H110.638V99.3625H112.915V99.906H110.029V95.0049Z" fill="#962379"/>
</svg>
