<svg width="231" height="42" viewBox="0 0 231 42" fill="none" xmlns="http://www.w3.org/2000/svg">
<g clip-path="url(#clip0_174_368)">
<path d="M21.0607 16.3639C20.155 16.3639 19.2493 16.0189 18.5624 15.3342L11.0982 7.8928C10.5029 7.29931 10.5029 6.33554 11.0982 5.74205C11.6935 5.14857 12.6602 5.14857 13.2556 5.74205L20.7198 13.1834C20.908 13.3711 21.2082 13.3711 21.3965 13.1834L28.8658 5.73698C29.4611 5.1435 30.4278 5.1435 31.0231 5.73698C31.6184 6.33046 31.6184 7.29424 31.0231 7.88772L23.5538 15.3342C22.8669 16.0189 21.9613 16.3639 21.0556 16.3639H21.0607Z" fill="#ED217C"/>
<path d="M13.6372 36.4968C13.5049 36.4968 13.3726 36.4816 13.2403 36.4461C12.4262 36.2279 11.9428 35.396 12.1616 34.5844L14.8939 24.4192C14.9397 24.2518 14.8837 24.1199 14.8481 24.059C14.8125 23.9931 14.726 23.8815 14.5581 23.8358L4.35652 21.1119C3.54243 20.8938 3.05906 20.0619 3.27785 19.2503C3.49664 18.4387 4.33617 17.9568 5.14517 18.1749L15.3468 20.8988C16.2575 21.1423 17.0207 21.7257 17.4939 22.5373C17.9671 23.3489 18.0892 24.3025 17.845 25.2105L15.1127 35.3758C14.9295 36.0555 14.3139 36.5019 13.6372 36.5019V36.4968Z" fill="#5E47DD"/>
<path d="M28.4841 36.5017C27.8125 36.5017 27.1917 36.0553 27.0086 35.3756L24.2763 25.2052C24.032 24.2972 24.1592 23.3487 24.6274 22.532C25.1005 21.7153 25.8587 21.1371 26.7745 20.8936L36.971 18.1697C37.7851 17.9515 38.6196 18.4334 38.8383 19.245C39.0571 20.0566 38.5738 20.8936 37.7597 21.1066L27.5632 23.8306C27.4054 23.8711 27.3189 23.9777 27.2731 24.0538C27.2375 24.1197 27.1816 24.2516 27.2274 24.4139L29.9597 34.5843C30.1784 35.3959 29.6951 36.2328 28.881 36.4459C28.7487 36.4814 28.6164 36.4966 28.4841 36.4966V36.5017Z" fill="#ED7524"/>
<path d="M12.1769 12.6814C15.6895 12.6814 18.537 9.84258 18.537 6.34075C18.537 2.83892 15.6895 0.00012207 12.1769 0.00012207C8.66434 0.00012207 5.81683 2.83892 5.81683 6.34075C5.81683 9.84258 8.66434 12.6814 12.1769 12.6814Z" fill="#ED217C"/>
<path d="M4.74831 23.4402C6.85586 23.4402 8.56436 21.7369 8.56436 19.6358C8.56436 17.5347 6.85586 15.8314 4.74831 15.8314C2.64076 15.8314 0.932251 17.5347 0.932251 19.6358C0.932251 21.7369 2.64076 23.4402 4.74831 23.4402Z" fill="#5E47DD"/>
<path d="M13.6219 41.3208C17.1345 41.3208 19.982 38.482 19.982 34.9802C19.982 31.4783 17.1345 28.6395 13.6219 28.6395C10.1093 28.6395 7.26178 31.4783 7.26178 34.9802C7.26178 38.482 10.1093 41.3208 13.6219 41.3208Z" fill="#5E47DD"/>
<path d="M28.4893 38.7845C30.5968 38.7845 32.3053 37.0813 32.3053 34.9802C32.3053 32.8791 30.5968 31.1758 28.4893 31.1758C26.3817 31.1758 24.6732 32.8791 24.6732 34.9802C24.6732 37.0813 26.3817 38.7845 28.4893 38.7845Z" fill="#ED7524"/>
<path d="M37.3629 25.9764C40.8755 25.9764 43.723 23.1376 43.723 19.6358C43.723 16.134 40.8755 13.2952 37.3629 13.2952C33.8503 13.2952 31.0028 16.134 31.0028 19.6358C31.0028 23.1376 33.8503 25.9764 37.3629 25.9764Z" fill="#ED7524"/>
<path d="M29.9445 10.1451C32.052 10.1451 33.7605 8.44185 33.7605 6.34075C33.7605 4.23965 32.052 2.53638 29.9445 2.53638C27.8369 2.53638 26.1284 4.23965 26.1284 6.34075C26.1284 8.44185 27.8369 10.1451 29.9445 10.1451Z" fill="#ED217C"/>
<path d="M66.9441 10.769C66.9441 14.5481 64.2729 17.0843 60.2279 17.0843H56.3101V23.4757H52.723V4.7074H60.3551C64.3238 4.7074 66.9441 7.1422 66.9441 10.769ZM63.2553 10.8958C63.2553 8.9683 61.9578 7.67481 59.9735 7.67481H56.3101V14.1169H59.9735C62.0087 14.1169 63.2553 12.8234 63.2553 10.8958Z" fill="white"/>
<path d="M82.7426 14.8776V23.4755H79.2827V15.4356C79.2827 13.6602 78.0107 12.4935 76.0772 12.4935C74.1438 12.4935 72.8718 13.6602 72.8718 15.4356V23.4755H69.4119V3.69275H72.8718V11.4537C73.9148 10.1855 75.4921 9.55149 77.2729 9.55149C80.5547 9.55149 82.7426 11.6819 82.7426 14.8776Z" fill="white"/>
<path d="M97.3963 14.8776V23.4755H94.0636L93.9872 21.5226C93.0714 22.9429 91.4941 23.7292 89.815 23.7292C86.9657 23.7292 85.0577 22.0299 85.0577 19.4936C85.0577 16.9574 87.3982 15.1313 90.909 15.1313C91.8503 15.1313 92.8933 15.2327 93.9364 15.4356V15.182C93.9364 13.3559 92.7152 12.2653 90.6291 12.2653C89.3317 12.2653 88.2886 12.6457 87.4236 13.3559L85.9227 11.3269C87.3982 10.1349 89.1281 9.55151 91.5195 9.55151C95.0303 9.55151 97.3963 11.6566 97.3963 14.8776ZM93.9364 17.769C93.046 17.5914 92.1301 17.49 91.3415 17.49C89.7133 17.49 88.6702 18.2509 88.6702 19.4175C88.6702 20.5842 89.408 21.269 90.8072 21.269C92.4099 21.269 93.9109 20.0009 93.9364 17.769Z" fill="white"/>
<path d="M109.175 9.55151L108.946 12.7218C106.097 12.7218 104.214 14.0914 104.214 16.1458V23.4755H100.754V9.80514H104.087L104.138 11.6312C105.232 10.287 106.962 9.55151 109.175 9.55151Z" fill="white"/>
<path d="M132.758 14.8776V23.4755H129.298V15.4356C129.298 13.6602 128.179 12.4936 126.475 12.4936C124.77 12.4936 123.676 13.6602 123.676 15.4356V23.4755H120.216V15.4356C120.216 13.6602 119.097 12.4936 117.392 12.4936C115.688 12.4936 114.594 13.6602 114.594 15.4356V23.4755H111.134V9.80514H114.467L114.518 11.4283C115.484 10.1856 116.934 9.55151 118.614 9.55151C120.42 9.55151 121.87 10.3124 122.76 11.6059C123.752 10.2617 125.355 9.55151 127.187 9.55151C130.52 9.55151 132.758 11.682 132.758 14.8776Z" fill="white"/>
<path d="M147.437 14.8776V23.4755H144.105L144.028 21.5226C143.113 22.9429 141.535 23.7292 139.856 23.7292C137.007 23.7292 135.099 22.0299 135.099 19.4936C135.099 16.9574 137.439 15.1313 140.95 15.1313C141.891 15.1313 142.935 15.2327 143.978 15.4356V15.182C143.978 13.3559 142.756 12.2653 140.67 12.2653C139.373 12.2653 138.33 12.6457 137.465 13.3559L135.964 11.3269C137.439 10.1349 139.169 9.55151 141.561 9.55151C145.072 9.55151 147.437 11.6566 147.437 14.8776ZM143.978 17.769C143.087 17.5914 142.171 17.49 141.383 17.49C139.754 17.49 138.711 18.2509 138.711 19.4175C138.711 20.5842 139.449 21.269 140.848 21.269C142.451 21.269 143.952 20.0009 143.978 17.769Z" fill="white"/>
<path d="M162.753 17.7184C162.753 21.3198 160.005 23.7293 155.578 23.7293C153.263 23.7293 151.05 23.0445 149.829 21.8525L151.177 19.2401C152.093 20.2039 153.543 20.7619 155.171 20.7619C157.563 20.7619 159.038 19.5445 159.038 17.7437C159.038 15.943 157.614 14.8017 155.451 14.8017C154.484 14.8017 153.645 15.0046 152.882 15.4104L151.915 13.6096L157.105 7.67481H150.694V4.7074H161.786V6.9393L156.927 12.0879C160.437 12.164 162.753 14.4212 162.753 17.7184Z" fill="white"/>
<path d="M182.774 14.0915C182.774 19.722 179.06 23.4757 173.488 23.4757H166.085V4.7074H173.488C179.06 4.7074 182.774 8.46105 182.774 14.0915ZM179.034 14.0915C179.034 10.2364 176.821 7.67481 173.488 7.67481H169.672V20.5082H173.488C176.821 20.5082 179.034 17.9466 179.034 14.0915Z" fill="white"/>
<path d="M184.402 21.472C184.402 20.2292 185.42 19.2147 186.667 19.2147C187.913 19.2147 188.931 20.2292 188.931 21.472C188.931 22.7147 187.913 23.7292 186.667 23.7292C185.42 23.7292 184.402 22.7147 184.402 21.472Z" fill="white"/>
<path d="M206.459 16.7037C206.459 20.9139 203.584 23.7291 199.896 23.7291C197.784 23.7291 196.258 22.8668 195.291 21.4211L195.215 23.4755H191.882V3.69275H195.342V11.7834C196.308 10.3885 197.809 9.55149 199.896 9.55149C203.584 9.55149 206.459 12.4175 206.459 16.7037ZM202.872 16.653C202.872 14.1675 201.346 12.4935 199.107 12.4935C196.868 12.4935 195.342 14.1675 195.342 16.6276C195.342 19.0878 196.843 20.7617 199.107 20.7617C201.371 20.7617 202.872 19.1132 202.872 16.653Z" fill="white"/>
<path d="M208.876 5.54436C208.876 4.35232 209.741 3.48999 210.937 3.48999C212.132 3.48999 212.972 4.35232 212.972 5.54436C212.972 6.73639 212.132 7.57336 210.937 7.57336C209.741 7.57336 208.876 6.73639 208.876 5.54436ZM209.207 9.80525H212.667V23.4756H209.207V9.80525Z" fill="white"/>
<path d="M215.389 16.6277C215.389 12.3921 218.34 9.55151 222.741 9.55151C227.142 9.55151 230.068 12.3921 230.068 16.6277C230.068 20.8632 227.117 23.7292 222.741 23.7292C218.365 23.7292 215.389 20.8886 215.389 16.6277ZM226.481 16.6277C226.481 14.1421 224.98 12.4936 222.741 12.4936C220.502 12.4936 218.976 14.1421 218.976 16.6277C218.976 19.1132 220.477 20.7617 222.741 20.7617C225.005 20.7617 226.481 19.1132 226.481 16.6277Z" fill="white"/>
<path d="M58.6302 34.478C58.6302 36.436 57.3379 37.7397 55.4044 37.7397H52.8298V31.2164H55.4044C57.343 31.2164 58.6302 32.5201 58.6302 34.478ZM57.3328 34.478C57.3328 33.1389 56.5645 32.2461 55.4044 32.2461H54.0764V36.7049H55.4044C56.5645 36.7049 57.3328 35.8121 57.3328 34.473V34.478Z" fill="#5E47DD"/>
<path d="M61.0369 31.2164H62.2835V37.7397H61.0369V31.2164Z" fill="#5E47DD"/>
<path d="M64.8224 37.0091L65.2905 36.1721C65.8451 36.6287 66.4659 36.7961 67.0663 36.7961C67.8905 36.7961 68.3637 36.512 68.3637 36.0098C68.3637 35.4823 67.8142 35.2489 66.995 35.0207L66.6236 34.9142C65.5449 34.625 64.741 34.1736 64.741 33.1084C64.741 31.9163 65.7027 31.125 67.163 31.125C68.0025 31.125 68.7453 31.3736 69.3763 31.8757L68.8166 32.7381C68.3281 32.3525 67.8091 32.1547 67.1731 32.1547C66.4811 32.1547 66.0334 32.4439 66.0334 32.9055C66.0334 33.4279 66.5575 33.6105 67.1986 33.7982L67.5802 33.9047C68.5876 34.1787 69.6561 34.7265 69.6561 35.8982C69.6561 37.07 68.6487 37.8308 67.1426 37.8308C66.242 37.8308 65.4025 37.5468 64.8173 37.0091H64.8224Z" fill="#5E47DD"/>
<path d="M71.671 34.4628C71.671 32.4591 73.0601 31.1301 75.136 31.1301C76.2045 31.1301 77.0746 31.4852 77.7207 32.1801L76.9321 32.9714C76.5607 32.4946 75.9348 32.1598 75.1564 32.1598C73.8385 32.1598 72.9634 33.083 72.9634 34.4678C72.9634 35.8526 73.8589 36.7961 75.1767 36.7961C76.062 36.7961 76.6726 36.4005 77.0847 35.7664L77.9243 36.5171C77.2984 37.3744 76.3419 37.8309 75.1462 37.8309C73.0702 37.8309 71.671 36.4816 71.671 34.4628Z" fill="#5E47DD"/>
<path d="M79.5728 34.478C79.5728 32.4693 80.9516 31.1301 83.0123 31.1301C85.073 31.1301 86.4417 32.4693 86.4417 34.478C86.4417 36.4867 85.0628 37.8258 83.0123 37.8258C80.9618 37.8258 79.5728 36.4867 79.5728 34.478ZM85.1493 34.478C85.1493 33.083 84.2894 32.1598 83.0072 32.1598C81.725 32.1598 80.86 33.083 80.86 34.478C80.86 35.8729 81.725 36.7961 83.0072 36.7961C84.2894 36.7961 85.1493 35.8678 85.1493 34.478Z" fill="#5E47DD"/>
<path d="M87.8307 31.2164H89.1587L91.2092 36.1976L93.2342 31.2164H94.5673L91.7841 37.7397H90.624L87.8307 31.2164Z" fill="#5E47DD"/>
<path d="M101.09 36.71V37.7397H96.572V31.2164H101.019V32.2461H97.8186V33.9201H100.739V34.9447H97.8186V36.71H101.09Z" fill="#5E47DD"/>
<path d="M106.143 35.3404H104.81V37.7397H103.563V31.2164H106.305C107.684 31.2164 108.595 32.0432 108.595 33.2809C108.595 34.128 108.142 34.7773 107.384 35.107L109.109 37.7447H107.639L106.143 35.3454V35.3404ZM104.81 34.3107H106.076C106.819 34.3107 107.313 33.8947 107.313 33.2809C107.313 32.6672 106.855 32.2512 106.163 32.2512H104.81V34.3157V34.3107Z" fill="#5E47DD"/>
<path d="M116.192 31.2164L113.856 35.3353V37.7447H112.61V35.3353L110.264 31.2164H111.597L113.235 34.2295L114.864 31.2164H116.192Z" fill="#5E47DD"/>
<path d="M124.801 35.0258C124.801 34.3816 125.223 33.9606 125.869 33.9606C126.515 33.9606 126.938 34.3816 126.938 35.0258C126.938 35.67 126.515 36.091 125.869 36.091C125.223 36.091 124.801 35.67 124.801 35.0258Z" fill="#5E47DD"/>
<path d="M142.278 34.478C142.278 36.436 140.986 37.7397 139.052 37.7397H136.478V31.2164H139.052C140.991 31.2164 142.278 32.5201 142.278 34.478ZM140.976 34.478C140.976 33.1389 140.207 32.2461 139.047 32.2461H137.719V36.7049H139.047C140.207 36.7049 140.976 35.8121 140.976 34.473V34.478Z" fill="#ED7524"/>
<path d="M147.27 35.3404H145.937V37.7397H144.69V31.2164H147.432C148.811 31.2164 149.722 32.0432 149.722 33.2809C149.722 34.128 149.269 34.7773 148.511 35.107L150.236 37.7447H148.765L147.27 35.3454V35.3404ZM145.931 34.3107H147.198C147.941 34.3107 148.435 33.8947 148.435 33.2809C148.435 32.6672 147.977 32.2512 147.285 32.2512H145.931V34.3157V34.3107Z" fill="#ED7524"/>
<path d="M152.241 35.2744V31.2164H153.487V35.2186C153.487 36.1621 154.144 36.7962 155.115 36.7962C156.087 36.7962 156.723 36.1621 156.723 35.2186V31.2164H157.97V35.2744C157.97 36.8063 156.83 37.831 155.115 37.831C153.401 37.831 152.241 36.8063 152.241 35.2744Z" fill="#ED7524"/>
<path d="M166.894 34.478C166.894 36.4867 165.638 37.8258 163.668 37.8258C161.699 37.8258 160.3 36.4867 160.3 34.478C160.3 32.4693 161.628 31.1301 163.668 31.1301C164.605 31.1301 165.373 31.3685 165.984 31.8555L165.159 32.6316C164.813 32.312 164.33 32.1649 163.684 32.1649C162.427 32.1649 161.587 33.0881 161.587 34.4831C161.587 35.878 162.417 36.8012 163.674 36.8012C164.762 36.8012 165.48 36.1316 165.582 35.1019H163.892V34.0722H166.874C166.884 34.2142 166.894 34.3461 166.894 34.4881V34.478Z" fill="#ED7524"/>
<path d="M168.869 37.0091L169.337 36.1721C169.891 36.6287 170.512 36.7961 171.112 36.7961C171.937 36.7961 172.415 36.512 172.415 36.0098C172.415 35.4823 171.865 35.2489 171.046 35.0207L170.675 34.9142C169.596 34.625 168.792 34.1736 168.792 33.1084C168.792 31.9163 169.754 31.125 171.214 31.125C172.054 31.125 172.796 31.3736 173.422 31.8757L172.868 32.7381C172.379 32.3525 171.86 32.1547 171.224 32.1547C170.532 32.1547 170.085 32.4439 170.085 32.9055C170.085 33.4279 170.609 33.6105 171.25 33.7982L171.631 33.9047C172.639 34.1787 173.707 34.7265 173.707 35.8982C173.707 37.07 172.7 37.8308 171.194 37.8308C170.293 37.8308 169.454 37.5468 168.869 37.0091Z" fill="#ED7524"/>
<path d="M182.866 35.0258C182.866 34.3816 183.288 33.9606 183.934 33.9606C184.58 33.9606 185.003 34.3816 185.003 35.0258C185.003 35.67 184.58 36.091 183.934 36.091C183.288 36.091 182.866 35.67 182.866 35.0258Z" fill="#ED7524"/>
<path d="M200.338 34.478C200.338 36.436 199.046 37.7397 197.112 37.7397H194.538V31.2164H197.112C199.051 31.2164 200.338 32.5201 200.338 34.478ZM199.041 34.478C199.041 33.1389 198.272 32.2461 197.112 32.2461H195.784V36.7049H197.112C198.272 36.7049 199.041 35.8121 199.041 34.473V34.478Z" fill="#ED217C"/>
<path d="M207.268 36.71V37.7397H202.75V31.2164H207.197V32.2461H203.997V33.9201H206.917V34.9447H203.997V36.71H207.268Z" fill="#ED217C"/>
<path d="M213.811 36.4462H210.794L210.265 37.7397H208.932L211.725 31.2164H212.885L215.679 37.7397H214.346L213.816 36.4462H213.811ZM213.399 35.4114L212.31 32.7585L211.222 35.4114H213.399Z" fill="#ED217C"/>
<path d="M221.82 36.71V37.7397H217.683V31.2164H218.93V36.71H221.82Z" fill="#ED217C"/>
<path d="M223.596 37.0091L224.064 36.1721C224.618 36.6287 225.239 36.7961 225.84 36.7961C226.664 36.7961 227.142 36.512 227.142 36.0098C227.142 35.4823 226.593 35.2489 225.773 35.0207L225.402 34.9142C224.323 34.625 223.519 34.1736 223.519 33.1084C223.519 31.9163 224.481 31.125 225.941 31.125C226.781 31.125 227.524 31.3736 228.15 31.8757L227.595 32.7381C227.107 32.3525 226.588 32.1547 225.952 32.1547C225.26 32.1547 224.812 32.4439 224.812 32.9055C224.812 33.4279 225.336 33.6105 225.977 33.7982L226.359 33.9047C227.366 34.1787 228.435 34.7265 228.435 35.8982C228.435 37.07 227.427 37.8308 225.921 37.8308C225.02 37.8308 224.181 37.5468 223.596 37.0091Z" fill="#ED217C"/>
</g>
<defs>
<clipPath id="clip0_174_368">
<rect width="230" height="41.3207" fill="white" transform="translate(0.5 0.00012207)"/>
</clipPath>
</defs>
</svg>
