<svg width="111" height="100" viewBox="0 0 111 100" fill="none" xmlns="http://www.w3.org/2000/svg">
<path d="M103.425 47.9248C103.425 49.423 103.348 50.8958 103.214 52.3558L84.1005 41.7724C84.1005 41.7724 80.3262 43.8636 79.3316 44.4119L70.8394 37.1948L63.5458 37.233L52.937 23.8381L38.5729 39.4134L33.1155 37.9407L26.9886 43.0539L16.2267 41.0711L14.8624 42.3717C14.8624 42.3717 11.63 45.4319 8.04057 48.811C7.88119 48.9576 7.72817 49.0979 7.58154 49.2317C7.56879 48.7982 7.56879 48.3647 7.56879 47.9311C7.56879 21.4536 29.0288 0 55.4999 0C81.9711 0 103.425 21.4536 103.425 47.9248Z" fill="white"/>
<path d="M99.8354 57.3477C98.1522 56.8122 96.4691 56.2703 94.786 55.7284C96.0356 57.8195 97.2852 59.8979 98.5348 61.9955C99.0894 62.9136 99.625 63.8125 100.167 64.7178C100.314 64.9665 100.467 65.2151 100.613 65.4638C100.428 65.3299 100.231 65.2024 100.046 65.0685C99.3508 64.5839 98.6623 64.093 97.9546 63.6085C92.7075 59.9553 87.4414 56.2766 82.1943 52.6171C80.4984 53.2865 78.777 53.9687 77.0812 54.6381C75.2705 52.547 73.4535 50.4558 71.6428 48.3583C67.8558 47.4529 64.0623 46.5412 60.2753 45.6232C57.0684 42.8371 53.8488 40.0637 50.6291 37.2776C52.1146 40.153 53.6129 43.0219 55.1111 45.8973C54.2823 45.3171 53.4662 44.7561 52.6374 44.1759C53.0582 45.5722 53.4917 46.962 53.9125 48.371C57.8143 50.8001 61.7034 53.2355 65.5988 55.6646C62.8255 54.9824 60.0649 54.2875 57.3043 53.6117C59.7079 56.385 62.1114 59.1584 64.5086 61.9317C60.4219 59.5027 56.3352 57.0672 52.2485 54.6509C49.9214 54.5616 47.5816 54.4915 45.2546 54.415C41.4803 51.8648 37.6868 49.3018 33.9125 46.7516C34.5947 48.9321 35.2896 51.1125 35.9782 53.2865C32.9944 52.5661 29.998 51.8648 27.0142 51.1444C30.355 54.6636 33.7149 58.1638 37.0557 61.6831C29.9597 59.0691 22.8638 56.4552 15.7869 53.8476C14.1803 54.5553 12.5673 55.2438 10.9479 55.9387C10.0426 56.334 9.13089 56.7293 8.21282 57.1246C5.66261 58.2276 3.1124 59.3433 0.562195 60.4399C0.906473 60.2677 4.16436 57.2712 7.71553 53.9878C8.5826 53.1718 9.47517 52.343 10.3422 51.5269C13.9444 48.1351 17.1768 45.0749 17.1768 45.0749L27.7729 47.0194L33.7659 42.0401L39.5485 43.5894L52.4844 29.5632L61.5249 40.9563C64.0878 40.9435 66.6763 40.9435 69.252 40.9308C72.3824 43.5957 75.5191 46.2543 78.6495 48.9065C80.3964 47.9502 82.1306 46.9875 83.8647 46.0312L100.269 55.1163L102.462 56.3277L110.438 60.7459C107.665 59.8661 104.904 58.9735 102.118 58.0809C101.365 57.845 100.594 57.5964 99.8418 57.3477H99.8354Z" fill="white"/>
<path d="M99.8354 57.3477C98.1522 56.8122 96.4691 56.2703 94.786 55.7284C96.0356 57.8195 97.2852 59.8979 98.5348 61.9955C99.0894 62.9136 99.625 63.8125 100.167 64.7178C100.314 64.9665 100.467 65.2151 100.613 65.4638C100.428 65.3299 100.231 65.2024 100.046 65.0685C99.3508 64.5839 98.6623 64.093 97.9546 63.6085C92.7075 59.9553 87.4414 56.2766 82.1943 52.6171C80.4984 53.2865 78.777 53.9687 77.0812 54.6381C75.2705 52.547 73.4535 50.4558 71.6428 48.3583C67.8558 47.4529 64.0623 46.5412 60.2753 45.6232C57.0684 42.8371 53.8488 40.0637 50.6291 37.2776C52.1146 40.153 53.6129 43.0219 55.1111 45.8973C54.2823 45.3171 53.4662 44.7561 52.6374 44.1759C53.0582 45.5722 53.4917 46.962 53.9125 48.371C57.8143 50.8001 61.7034 53.2355 65.5988 55.6646C62.8255 54.9824 60.0649 54.2875 57.3043 53.6117C59.7079 56.385 62.1114 59.1584 64.5086 61.9317C60.4219 59.5027 56.3352 57.0672 52.2485 54.6509C49.9214 54.5616 47.5816 54.4915 45.2546 54.415C41.4803 51.8648 37.6868 49.3018 33.9125 46.7516C34.5947 48.9321 35.2896 51.1125 35.9782 53.2865C32.9944 52.5661 29.998 51.8648 27.0142 51.1444C30.355 54.6636 33.7149 58.1638 37.0557 61.6831C29.9597 59.0691 22.8638 56.4552 15.7869 53.8476C14.1803 54.5553 12.5673 55.2438 10.9479 55.9387C10.0426 56.334 9.13089 56.7293 8.21282 57.1246C5.66261 58.2276 3.1124 59.3433 0.562195 60.4399C0.906473 60.2677 4.16436 57.2712 7.71553 53.9878C8.5826 53.1718 9.47517 52.343 10.3422 51.5269C13.9444 48.1351 17.1768 45.0749 17.1768 45.0749L27.7729 47.0194L33.7659 42.0401L39.5485 43.5894L52.4844 29.5632L61.5249 40.9563C64.0878 40.9435 66.6763 40.9435 69.252 40.9308C72.3824 43.5957 75.5191 46.2543 78.6495 48.9065C80.3964 47.9502 82.1306 46.9875 83.8647 46.0312L100.269 55.1163L102.462 56.3277L110.438 60.7459C107.665 59.8661 104.904 58.9735 102.118 58.0809C101.365 57.845 100.594 57.5964 99.8418 57.3477H99.8354Z" fill="white"/>
<path d="M11.8085 74.5489V82.6075H9.8703V71.546H11.8595L17.5145 79.3943V71.546H19.4527V82.6075H17.5783L11.8085 74.5489Z" fill="white"/>
<path d="M22.8064 71.5461H30.3869V73.2548H24.7446V76.1238H30.2658V77.8324H24.7446V80.899H30.3869V82.6077H22.8064V71.5461Z" fill="white"/>
<path d="M33.3705 71.5461H38.2287C40.5494 71.5461 41.8436 73.14 41.8436 75.0144C41.8436 76.8888 40.5303 78.4827 38.2287 78.4827H35.3087V82.614H33.3705V71.5525V71.5461ZM37.9673 73.2548H35.3151V76.7741H37.9673C39.0639 76.7741 39.8608 76.0791 39.8608 75.0144C39.8608 73.9497 39.0639 73.2548 37.9673 73.2548Z" fill="white"/>
<path d="M50.221 80.4846H44.9803L44.1706 82.6077H42.0475L46.3956 71.5461H48.8183L53.1665 82.6077H51.0434L50.2337 80.4846H50.221ZM45.5286 78.776H49.6727L47.6006 73.1847L45.5286 78.776Z" fill="white"/>
<path d="M55.366 71.5461H57.3041V80.899H62.1814V82.6077H55.366V71.5461Z" fill="white"/>
<path d="M72.8287 73.2548H69.4752V71.5461H78.114V73.2548H74.7669V82.6077H72.8287V73.2548Z" fill="white"/>
<path d="M80.7598 71.5461H88.3403V73.2548H82.698V76.1238H88.2192V77.8324H82.698V80.899H88.3403V82.6077H80.7598V71.5461Z" fill="white"/>
<path d="M98.3372 80.4846H93.0965L92.2868 82.6077H90.1638L94.5119 71.5461H96.9346L101.283 82.6077H99.1596L98.3499 80.4846H98.3372ZM93.6448 78.776H97.7889L95.7168 73.1847L93.6448 78.776Z" fill="white"/>
<path d="M2.88287 94.2748C2.88287 90.8766 5.42033 88.5496 8.60809 88.5496C10.9288 88.5496 12.3059 89.7099 13.1347 91.036L11.4771 91.884C10.9479 90.9723 9.88319 90.2773 8.60809 90.2773C6.50417 90.2773 4.87841 91.9541 4.87841 94.2748C4.87841 96.5955 6.50417 98.2722 8.60809 98.2722C9.88319 98.2722 10.9479 97.59 11.4771 96.6656L13.1347 97.5135C12.2868 98.8396 10.9288 100 8.60809 100C5.42033 100 2.88287 97.6793 2.88287 94.2748Z" fill="white"/>
<path d="M20.8489 88.5496C24.1642 88.5496 26.504 90.9723 26.504 94.2748C26.504 97.5773 24.1642 100 20.8489 100C17.5337 100 15.1938 97.5773 15.1938 94.2748C15.1938 90.9723 17.5337 88.5496 20.8489 88.5496ZM20.8489 90.2773C18.6111 90.2773 17.183 91.986 17.183 94.2748C17.183 96.5636 18.6111 98.2722 20.8489 98.2722C23.0867 98.2722 24.5149 96.5445 24.5149 94.2748C24.5149 92.0051 23.074 90.2773 20.8489 90.2773Z" fill="white"/>
<path d="M29.3731 88.7344H31.3113V98.0873H36.1885V99.7959H29.3731V88.7344Z" fill="white"/>
<path d="M38.9426 88.7344H40.8808V98.0873H45.7581V99.7959H38.9426V88.7344Z" fill="white"/>
<path d="M48.5125 88.7344H56.0929V90.443H50.4506V93.312H55.9718V95.0206H50.4506V98.0873H56.0929V99.7959H48.5125V88.7344Z" fill="white"/>
<path d="M58.5792 94.2748C58.5792 90.8766 61.1167 88.5496 64.3044 88.5496C66.6251 88.5496 68.0022 89.7099 68.8311 91.036L67.1734 91.884C66.6443 90.9723 65.5795 90.2773 64.3044 90.2773C62.2005 90.2773 60.5748 91.9541 60.5748 94.2748C60.5748 96.5955 62.2005 98.2722 64.3044 98.2722C65.5795 98.2722 66.6443 97.59 67.1734 96.6656L68.8311 97.5135C67.9831 98.8396 66.6251 100 64.3044 100C61.1167 100 58.5792 97.6793 58.5792 94.2748Z" fill="white"/>
<path d="M74.0273 90.443H70.6738V88.7344H79.3126V90.443H75.9654V99.7959H74.0273V90.443Z" fill="white"/>
<path d="M81.9519 88.7344H83.8901V99.7959H81.9519V88.7344Z" fill="white"/>
<path d="M86.0832 88.7344H88.2891L91.6427 97.692L94.9898 88.7344H97.1957L92.8476 99.7959H90.4249L86.0768 88.7344H86.0832Z" fill="white"/>
<path d="M99.4017 88.7344H106.982V90.443H101.34V93.312H106.861V95.0206H101.34V98.0873H106.982V99.7959H99.4017V88.7344Z" fill="white"/>
</svg>
