<svg width="248" height="27" viewBox="0 0 248 27" fill="none" xmlns="http://www.w3.org/2000/svg">
<path d="M72.9714 14.9843C73.2294 15.092 73.4506 15.1997 73.7087 15.2715C74.4459 15.5228 75.0357 15.9537 75.5518 16.5282C76.289 17.3899 76.9526 18.2516 77.4686 19.2569C78.5376 21.3034 79.6067 23.35 80.7125 25.3606C80.7863 25.4683 80.8231 25.6119 80.9337 25.7915C80.7863 25.7915 80.6757 25.8274 80.5651 25.8274C77.8741 25.8274 75.1463 25.8274 72.4553 25.8274C72.1973 25.8274 72.0498 25.7555 71.9393 25.5042C70.5753 23.0627 69.2483 20.6212 67.8844 18.1798C67.6632 17.7848 67.4052 17.3899 67.1471 17.0308C66.373 15.9537 65.2303 15.7383 63.9401 15.8101C63.9401 19.1492 63.9401 22.4524 63.9401 25.7915C61.286 25.7915 58.7056 25.7915 56.0515 25.7915C56.0515 25.6478 56.0515 25.5042 56.0515 25.3606C56.0515 17.4617 56.0515 9.52682 56.0515 1.62789C56.0515 1.30475 56.0884 1.16113 56.4939 1.16113C61.2491 1.19704 65.9675 1.16113 70.7228 1.19704C72.013 1.19704 73.3032 1.34065 74.5196 1.6997C76.9157 2.38188 78.6114 4.46432 78.8694 6.86991C79.0169 8.27018 78.9431 9.67044 78.3165 10.963C77.358 13.0095 75.6624 14.1944 73.4506 14.7688C73.3032 14.8048 73.1557 14.8407 73.0083 14.8766C72.9714 14.9125 72.9714 14.9484 72.9714 14.9843ZM63.8664 11.1425C64.9722 11.1425 65.9675 11.1784 66.9997 11.1425C67.8475 11.0707 68.6954 10.9271 69.5063 10.7476C69.8012 10.6758 70.0961 10.4603 70.3173 10.2449C71.0546 9.52683 71.1651 8.62922 70.8334 7.69571C70.5385 6.7981 69.7644 6.36725 68.8797 6.29544C67.2946 6.18773 65.7095 6.18773 64.1613 6.15182C63.8664 6.15182 63.9032 6.33135 63.9032 6.51087C63.9032 7.6239 63.9032 8.73693 63.9032 9.88587C63.8664 10.2808 63.8664 10.6758 63.8664 11.1425Z" fill="white"/>
<path d="M83.4035 25.7917C83.4035 17.5696 83.4035 9.41934 83.4035 1.19727C90.3705 1.19727 97.3375 1.19727 104.341 1.19727C104.341 2.92067 104.341 4.64407 104.341 6.40338C99.9916 6.40338 95.6787 6.40338 91.2921 6.40338C91.2921 7.73184 91.2921 8.98849 91.2921 10.3169C95.3101 10.3169 99.3281 10.3169 103.383 10.3169C103.383 12.0044 103.383 13.656 103.383 15.3435C99.365 15.3435 95.347 15.3435 91.2921 15.3435C91.2921 16.9951 91.2921 18.5749 91.2921 20.1906C95.7524 20.1906 100.25 20.1906 104.747 20.1906C104.747 22.0576 104.747 23.9247 104.747 25.7917C97.6324 25.7917 90.5548 25.7917 83.4035 25.7917Z" fill="white"/>
<path d="M53.3974 25.7915C53.2499 25.7915 53.1393 25.8274 53.0288 25.8274C50.5221 25.8274 48.0523 25.8274 45.5457 25.8274C45.2508 25.8274 45.1402 25.7555 45.0665 25.4683C44.7347 24.3553 44.3661 23.2423 44.0343 22.0933C43.9606 21.842 43.85 21.7343 43.5551 21.7343C40.8273 21.7343 38.0994 21.7343 35.4085 21.7343C35.1136 21.7343 35.003 21.842 34.9293 22.0933C34.6344 23.2423 34.2657 24.3912 33.934 25.5401C33.8602 25.7555 33.7865 25.8274 33.5653 25.8274C31.0587 25.8274 28.552 25.8274 26.0454 25.8274C26.0085 25.8274 25.9348 25.8274 25.8242 25.7915C25.9717 25.3606 26.156 24.9298 26.3034 24.5348C29.2524 16.8872 32.2383 9.20369 35.1873 1.55608C35.2979 1.26885 35.4453 1.16113 35.7402 1.16113C38.3206 1.16113 40.901 1.16113 43.4445 1.16113C43.7394 1.16113 43.9237 1.23294 44.0343 1.55608C47.0939 9.52682 50.1903 17.4617 53.2499 25.4324C53.3237 25.5401 53.3605 25.6478 53.3974 25.7915ZM39.6108 7.73161C39.5739 7.73161 39.5371 7.73161 39.5002 7.73161C38.6155 10.604 37.6939 13.4404 36.8092 16.3486C38.6892 16.3486 40.4955 16.3486 42.3386 16.3486C41.4171 13.4763 40.4955 10.604 39.6108 7.73161Z" fill="white"/>
<path d="M17.4564 9.922C17.3459 9.67068 17.2721 9.45525 17.1984 9.27573C16.5717 7.73184 15.3921 6.76243 13.6965 6.547C11.9271 6.29567 10.342 6.79833 9.19924 8.1986C8.46199 9.09621 8.13023 10.1374 7.98278 11.2146C7.72474 13.2252 7.76161 15.1999 8.24082 17.2106C8.90434 19.8316 11.0424 20.7292 13.4016 20.5138C15.5027 20.3342 16.6455 19.0776 17.309 17.2824C17.4933 16.7797 17.6408 16.313 17.7882 15.7744C20.0737 16.4566 22.3223 17.1029 24.6446 17.785C24.5341 18.2159 24.4235 18.6467 24.276 19.0776C23.6125 20.9446 22.6541 22.5962 21.1058 23.8888C19.6682 25.1095 18.0094 25.8276 16.1294 26.0789C13.4016 26.438 10.6737 26.3662 7.94592 25.684C5.51299 25.0018 3.66987 23.5297 2.26909 21.555C0.942042 19.688 0.278517 17.6055 0.0942042 15.3435C-0.0901084 13.3688 -0.0163833 11.3941 0.425967 9.49115C1.34753 5.43397 3.74359 2.63344 7.87219 1.41269C11.1161 0.479184 14.3969 0.479184 17.6776 1.37679C20.1843 2.09488 21.9905 3.67466 23.2439 5.86482C23.6862 6.65472 24.018 7.51642 24.4603 8.37812C22.0643 8.91669 19.7788 9.41934 17.4564 9.922Z" fill="white"/>
<path d="M114.331 27C113.889 27 113.52 27 113.078 27C113.078 17.988 113.078 9.01197 113.078 0C113.483 0 113.889 0 114.331 0C114.331 9.01197 114.331 17.988 114.331 27Z" fill="white"/>
<path d="M233.451 20.9532L239.325 6.05664H241.505L247.765 20.9532H245.459L243.675 16.4416H237.28L235.6 20.9532H233.451ZM237.864 14.8361H243.049L241.453 10.7106C240.966 9.45732 240.604 8.42763 240.368 7.62149C240.173 8.57666 239.898 9.52506 239.544 10.4667L237.864 14.8361Z" fill="white"/>
<path d="M229.529 20.9532V6.05664H231.552V20.9532H229.529Z" fill="white"/>
<path d="M214.245 16.1673L216.154 16.0048C216.244 16.7499 216.453 17.363 216.78 17.844C217.114 18.3182 217.629 18.7043 218.324 19.0024C219.02 19.2937 219.802 19.4393 220.671 19.4393C221.443 19.4393 222.125 19.3275 222.716 19.104C223.307 18.8804 223.745 18.5756 224.031 18.1895C224.323 17.7965 224.469 17.3698 224.469 16.9091C224.469 16.4417 224.33 16.0352 224.051 15.6898C223.773 15.3375 223.314 15.0428 222.674 14.8057C222.264 14.6499 221.356 14.4094 219.951 14.0843C218.547 13.7523 217.562 13.4407 216.999 13.1494C216.269 12.7768 215.723 12.3162 215.361 11.7675C215.006 11.212 214.829 10.5921 214.829 9.90793C214.829 9.15599 215.048 8.45485 215.486 7.80453C215.925 7.14742 216.564 6.64952 217.406 6.3108C218.248 5.97209 219.183 5.80273 220.212 5.80273C221.346 5.80273 222.344 5.98225 223.206 6.34129C224.076 6.69355 224.744 7.21517 225.21 7.90614C225.675 8.59711 225.926 9.37954 225.961 10.2534L224.02 10.3957C223.916 9.45406 223.561 8.74276 222.956 8.26179C222.358 7.78082 221.471 7.54033 220.296 7.54033C219.072 7.54033 218.178 7.76049 217.615 8.20082C217.058 8.63437 216.78 9.15938 216.78 9.77583C216.78 10.311 216.978 10.7513 217.375 11.0968C217.764 11.4423 218.78 11.7979 220.421 12.1638C222.069 12.5228 223.2 12.8378 223.812 13.1088C224.702 13.5084 225.359 14.0165 225.783 14.633C226.208 15.2427 226.42 15.9472 226.42 16.7465C226.42 17.5391 226.187 18.2877 225.721 18.9922C225.255 19.69 224.584 20.2353 223.707 20.6282C222.838 21.0143 221.857 21.2074 220.765 21.2074C219.381 21.2074 218.22 21.0109 217.281 20.618C216.349 20.2251 215.615 19.6358 215.079 18.8499C214.551 18.0574 214.273 17.1632 214.245 16.1673Z" fill="white"/>
<path d="M199.003 20.9532L204.876 6.05664H207.057L213.316 20.9532H211.011L209.227 16.4416H202.832L201.152 20.9532H199.003ZM203.416 14.8361H208.601L207.005 10.7106C206.518 9.45732 206.156 8.42763 205.92 7.62149C205.725 8.57666 205.45 9.52506 205.095 10.4667L203.416 14.8361Z" fill="white"/>
<path d="M180.548 20.9532V6.05664H182.572V12.1738H190.521V6.05664H192.545V20.9532H190.521V13.9317H182.572V20.9532H180.548Z" fill="white"/>
<path d="M171.315 20.9532V7.81456H166.276V6.05664H178.399V7.81456H173.339V20.9532H171.315Z" fill="white"/>
<path d="M162.019 6.05664H164.043V14.6633C164.043 16.1604 163.869 17.3493 163.522 18.23C163.174 19.1106 162.544 19.8287 161.633 20.3842C160.729 20.9329 159.54 21.2073 158.065 21.2073C156.633 21.2073 155.461 20.9668 154.55 20.4858C153.639 20.0048 152.988 19.3105 152.599 18.4027C152.209 17.4882 152.015 16.2417 152.015 14.6633V6.05664H154.038V14.6532C154.038 15.9471 154.16 16.9022 154.404 17.5187C154.654 18.1284 155.078 18.5992 155.676 18.9311C156.281 19.263 157.019 19.429 157.888 19.429C159.376 19.429 160.437 19.1005 161.07 18.4434C161.703 17.7863 162.019 16.5229 162.019 14.6532V6.05664Z" fill="white"/>
<path d="M134.738 13.698C134.738 11.2254 135.42 9.29138 136.783 7.89589C138.146 6.49362 139.906 5.79248 142.062 5.79248C143.474 5.79248 144.746 6.12103 145.88 6.77813C147.014 7.43524 147.876 8.35315 148.467 9.53187C149.066 10.7038 149.365 12.035 149.365 13.5253C149.365 15.0359 149.052 16.3874 148.426 17.5797C147.8 18.7719 146.913 19.6763 145.765 20.2928C144.618 20.9024 143.38 21.2073 142.051 21.2073C140.612 21.2073 139.325 20.8686 138.191 20.1912C137.058 19.5137 136.199 18.589 135.614 17.4171C135.03 16.2452 134.738 15.0055 134.738 13.698ZM136.825 13.7285C136.825 15.5237 137.318 16.9395 138.306 17.976C139.301 19.0057 140.546 19.5205 142.041 19.5205C143.564 19.5205 144.816 18.9989 145.797 17.9556C146.784 16.9124 147.278 15.4322 147.278 13.5151C147.278 12.3025 147.066 11.2458 146.642 10.3448C146.224 9.43703 145.609 8.73589 144.795 8.24137C143.988 7.74008 143.081 7.48943 142.072 7.48943C140.64 7.48943 139.405 7.9704 138.369 8.93235C137.339 9.88752 136.825 11.4862 136.825 13.7285Z" fill="white"/>
<path d="M120.414 16.1669L122.323 16.0043C122.414 16.7494 122.622 17.3625 122.949 17.8435C123.283 18.3177 123.798 18.7038 124.493 19.0019C125.189 19.2932 125.971 19.4388 126.841 19.4388C127.613 19.4388 128.294 19.327 128.886 19.1035C129.477 18.8799 129.915 18.5751 130.2 18.189C130.492 17.7961 130.638 17.3693 130.638 16.9086C130.638 16.4412 130.499 16.0348 130.221 15.6893C129.943 15.337 129.484 15.0423 128.844 14.8052C128.433 14.6494 127.526 14.4089 126.121 14.0838C124.716 13.7518 123.732 13.4402 123.168 13.1489C122.438 12.7763 121.892 12.3157 121.531 11.767C121.176 11.2115 120.998 10.5916 120.998 9.90744C120.998 9.1555 121.218 8.45437 121.656 7.80404C122.094 7.14694 122.734 6.64903 123.575 6.31031C124.417 5.9716 125.352 5.80225 126.382 5.80225C127.515 5.80225 128.513 5.98176 129.376 6.3408C130.245 6.69306 130.913 7.21468 131.379 7.90565C131.845 8.59662 132.095 9.37905 132.13 10.2529L130.19 10.3952C130.085 9.45357 129.731 8.74227 129.125 8.2613C128.527 7.78033 127.641 7.53984 126.465 7.53984C125.241 7.53984 124.347 7.76 123.784 8.20033C123.228 8.63388 122.949 9.15889 122.949 9.77534C122.949 10.3105 123.148 10.7508 123.544 11.0963C123.934 11.4418 124.949 11.7975 126.59 12.1633C128.239 12.5223 129.369 12.8373 129.981 13.1083C130.871 13.508 131.528 14.016 131.953 14.6325C132.377 15.2422 132.589 15.9467 132.589 16.746C132.589 17.5386 132.356 18.2872 131.89 18.9917C131.424 19.6895 130.753 20.2348 129.877 20.6277C129.007 21.0138 128.027 21.2069 126.935 21.2069C125.551 21.2069 124.389 21.0104 123.45 20.6175C122.518 20.2246 121.784 19.6353 121.249 18.8495C120.72 18.0569 120.442 17.1627 120.414 16.1669Z" fill="white"/>
</svg>
