<svg width="100" height="91" viewBox="0 0 100 91" fill="none" xmlns="http://www.w3.org/2000/svg">
<path d="M93.6172 43.611C93.6172 44.9746 93.5475 46.3149 93.4257 47.6437L76.0298 38.0117C76.0298 38.0117 72.5948 39.9149 71.6896 40.4139L63.9607 33.8455L57.3226 33.8803L47.6673 21.6894L34.5943 35.8648L29.6274 34.5244L24.0512 39.1779L14.2566 37.3734L13.0149 38.5571C13.0149 38.5571 10.073 41.3423 6.80621 44.4175C6.66115 44.551 6.52189 44.6787 6.38844 44.8005C6.37683 44.4059 6.37683 44.0114 6.37683 43.6168C6.37683 19.5193 25.908 -0.00585938 49.9999 -0.00585938C74.0918 -0.00585938 93.6172 19.5193 93.6172 43.611Z" fill="white"/>
<path d="M90.3505 52.1874C88.8186 51.7 87.2868 51.2068 85.7549 50.7136C86.8922 52.6168 88.0295 54.5083 89.1668 56.4173C89.6716 57.2529 90.159 58.071 90.6522 58.895C90.7857 59.1213 90.9249 59.3476 91.0584 59.5739C90.8901 59.452 90.7102 59.336 90.5419 59.2141C89.9095 58.7731 89.2828 58.3263 88.6387 57.8854C83.8633 54.5606 79.0704 51.2126 74.295 47.882C72.7515 48.4912 71.1849 49.1121 69.6414 49.7213C67.9935 47.8181 66.3398 45.915 64.6919 44.006C61.2452 43.182 57.7927 42.3523 54.3461 41.5167C51.4274 38.981 48.4972 36.457 45.5669 33.9213C46.9189 36.5382 48.2825 39.1493 49.646 41.7662C48.8917 41.2382 48.149 40.7276 47.3947 40.1996C47.7776 41.4703 48.1722 42.7352 48.5552 44.0176C52.1063 46.2283 55.6458 48.4448 59.1911 50.6555C56.6671 50.0347 54.1546 49.4022 51.6421 48.7872C53.8296 51.3112 56.0172 53.8353 58.1989 56.3593C54.4795 54.1486 50.7601 51.9321 47.0407 49.733C44.9228 49.6517 42.7933 49.5879 40.6754 49.5183C37.2403 47.1973 33.7879 44.8647 30.3528 42.5437C30.9737 44.5282 31.6061 46.5126 32.2328 48.4912C29.5172 47.8356 26.7901 47.1973 24.0745 46.5416C27.115 49.7446 30.1729 52.9301 33.2134 56.133C26.7553 53.754 20.2971 51.375 13.8563 49.0018C12.3941 49.6459 10.9261 50.2726 9.45225 50.905C8.62829 51.2648 7.79854 51.6245 6.96298 51.9843C4.64199 52.9881 2.32099 54.0035 0 55.0016C0.313334 54.8449 3.2784 52.1178 6.51039 49.1295C7.29952 48.3868 8.11187 47.6325 8.90101 46.8898C12.1794 43.8029 15.1213 41.0177 15.1213 41.0177L24.765 42.7874L30.2193 38.2557L35.4822 39.6657L47.2554 26.9004L55.4833 37.2693C57.8159 37.2577 60.1718 37.2577 62.516 37.2461C65.365 39.6715 68.2198 42.0912 71.0688 44.505C72.6587 43.6346 74.237 42.7584 75.8153 41.8881L90.745 50.1565L92.7411 51.259L100 55.2801C97.4759 54.4793 94.9634 53.667 92.4278 52.8547C91.7431 52.64 91.041 52.4137 90.3563 52.1874H90.3505Z" fill="white"/>
<path d="M90.3505 52.1874C88.8186 51.7 87.2868 51.2068 85.7549 50.7136C86.8922 52.6168 88.0295 54.5083 89.1668 56.4173C89.6716 57.2529 90.159 58.071 90.6522 58.895C90.7857 59.1213 90.9249 59.3476 91.0584 59.5739C90.8901 59.452 90.7102 59.336 90.5419 59.2141C89.9095 58.7731 89.2828 58.3263 88.6387 57.8854C83.8633 54.5606 79.0704 51.2126 74.295 47.882C72.7515 48.4912 71.1849 49.1121 69.6414 49.7213C67.9935 47.8181 66.3398 45.915 64.6919 44.006C61.2452 43.182 57.7927 42.3523 54.3461 41.5167C51.4274 38.981 48.4972 36.457 45.5669 33.9213C46.9189 36.5382 48.2825 39.1493 49.646 41.7662C48.8917 41.2382 48.149 40.7276 47.3947 40.1996C47.7776 41.4703 48.1722 42.7352 48.5552 44.0176C52.1063 46.2283 55.6458 48.4448 59.1911 50.6555C56.6671 50.0347 54.1546 49.4022 51.6421 48.7872C53.8296 51.3112 56.0172 53.8353 58.1989 56.3593C54.4795 54.1486 50.7601 51.9321 47.0407 49.733C44.9228 49.6517 42.7933 49.5879 40.6754 49.5183C37.2403 47.1973 33.7879 44.8647 30.3528 42.5437C30.9737 44.5282 31.6061 46.5126 32.2328 48.4912C29.5172 47.8356 26.7901 47.1973 24.0745 46.5416C27.115 49.7446 30.1729 52.9301 33.2134 56.133C26.7553 53.754 20.2971 51.375 13.8563 49.0018C12.3941 49.6459 10.9261 50.2726 9.45225 50.905C8.62829 51.2648 7.79854 51.6245 6.96298 51.9843C4.64199 52.9881 2.32099 54.0035 0 55.0016C0.313334 54.8449 3.2784 52.1178 6.51039 49.1295C7.29952 48.3868 8.11187 47.6325 8.90101 46.8898C12.1794 43.8029 15.1213 41.0177 15.1213 41.0177L24.765 42.7874L30.2193 38.2557L35.4822 39.6657L47.2554 26.9004L55.4833 37.2693C57.8159 37.2577 60.1718 37.2577 62.516 37.2461C65.365 39.6715 68.2198 42.0912 71.0688 44.505C72.6587 43.6346 74.237 42.7584 75.8153 41.8881L90.745 50.1565L92.7411 51.259L100 55.2801C97.4759 54.4793 94.9634 53.667 92.4278 52.8547C91.7431 52.64 91.041 52.4137 90.3563 52.1874H90.3505Z" fill="white"/>
<path d="M10.2354 67.8423V75.1766H8.47144V65.1094H10.2818L15.4286 72.2522V65.1094H17.1926V75.1766H15.4866L10.2354 67.8423Z" fill="white"/>
<path d="M20.2449 65.1094H27.144V66.6644H22.0088V69.2755H27.0338V70.8306H22.0088V73.6215H27.144V75.1766H20.2449V65.1094Z" fill="white"/>
<path d="M29.8595 65.1094H34.281C36.3931 65.1094 37.571 66.56 37.571 68.2659C37.571 69.9718 36.3757 71.4224 34.281 71.4224H31.6235V75.1824H29.8595V65.1152V65.1094ZM34.0431 66.6644H31.6293V69.8674H34.0431C35.0411 69.8674 35.7664 69.2349 35.7664 68.2659C35.7664 67.2969 35.0411 66.6644 34.0431 66.6644Z" fill="white"/>
<path d="M45.1954 73.2444H40.4257L39.6888 75.1766H37.7566L41.7139 65.1094H43.9188L47.8761 75.1766H45.9439L45.207 73.2444H45.1954ZM40.9247 71.6893H44.6964L42.8106 66.6006L40.9247 71.6893Z" fill="white"/>
<path d="M49.878 65.1094H51.6419V73.6215H56.0808V75.1766H49.878V65.1094Z" fill="white"/>
<path d="M65.7711 66.6644H62.719V65.1094H70.5814V66.6644H67.5351V75.1766H65.7711V66.6644Z" fill="white"/>
<path d="M72.9894 65.1094H79.8885V66.6644H74.7533V69.2755H79.7783V70.8306H74.7533V73.6215H79.8885V75.1766H72.9894V65.1094Z" fill="white"/>
<path d="M88.9869 73.2444H84.2172L83.4803 75.1766H81.5481L85.5054 65.1094H87.7103L91.6676 75.1766H89.7354L88.9985 73.2444H88.9869ZM84.7163 71.6893H88.4879L86.6021 66.6006L84.7163 71.6893Z" fill="white"/>
<path d="M2.11206 85.7946C2.11206 82.7019 4.42145 80.584 7.32269 80.584C9.43479 80.584 10.6881 81.64 11.4425 82.8469L9.93381 83.6187C9.4522 82.7889 8.48319 82.1564 7.32269 82.1564C5.40787 82.1564 3.92824 83.6825 3.92824 85.7946C3.92824 87.9066 5.40787 89.4327 7.32269 89.4327C8.48319 89.4327 9.4522 88.8118 9.93381 87.9705L11.4425 88.7422C10.6707 89.9491 9.43479 91.0052 7.32269 91.0052C4.42145 91.0052 2.11206 88.8931 2.11206 85.7946Z" fill="white"/>
<path d="M18.4634 80.584C21.4807 80.584 23.6102 82.7889 23.6102 85.7946C23.6102 88.8002 21.4807 91.0052 18.4634 91.0052C15.4461 91.0052 13.3166 88.8002 13.3166 85.7946C13.3166 82.7889 15.4461 80.584 18.4634 80.584ZM18.4634 82.1564C16.4267 82.1564 15.127 83.7115 15.127 85.7946C15.127 87.8776 16.4267 89.4327 18.4634 89.4327C20.5001 89.4327 21.7998 87.8602 21.7998 85.7946C21.7998 83.7289 20.4885 82.1564 18.4634 82.1564Z" fill="white"/>
<path d="M26.2214 80.752H27.9853V89.2641H32.4242V90.8192H26.2214V80.752Z" fill="white"/>
<path d="M34.9308 80.752H36.6947V89.2641H41.1336V90.8192H34.9308V80.752Z" fill="white"/>
<path d="M43.6405 80.752H50.5397V82.307H45.4045V84.9181H50.4294V86.4731H45.4045V89.2641H50.5397V90.8192H43.6405V80.752Z" fill="white"/>
<path d="M52.8024 85.7946C52.8024 82.7019 55.1118 80.584 58.013 80.584C60.1251 80.584 61.3784 81.64 62.1328 82.8469L60.6241 83.6187C60.1425 82.7889 59.1735 82.1564 58.013 82.1564C56.0982 82.1564 54.6185 83.6825 54.6185 85.7946C54.6185 87.9066 56.0982 89.4327 58.013 89.4327C59.1735 89.4327 60.1425 88.8118 60.6241 87.9705L62.1328 88.7422C61.361 89.9491 60.1251 91.0052 58.013 91.0052C55.1118 91.0052 52.8024 88.8931 52.8024 85.7946Z" fill="white"/>
<path d="M66.862 82.307H63.8099V80.752H71.6722V82.307H68.6259V90.8192H66.862V82.307Z" fill="white"/>
<path d="M74.0744 80.752H75.8384V90.8192H74.0744V80.752Z" fill="white"/>
<path d="M77.8343 80.752H79.842L82.8941 88.9044L85.9404 80.752H87.948L83.9907 90.8192H81.7858L77.8285 80.752H77.8343Z" fill="white"/>
<path d="M89.9557 80.752H96.8549V82.307H91.7197V84.9181H96.7447V86.4731H91.7197V89.2641H96.8549V90.8192H89.9557V80.752Z" fill="white"/>
</svg>
