<svg width="140" height="25" viewBox="0 0 140 25" fill="none" xmlns="http://www.w3.org/2000/svg">
<path d="M131.442 5.9375C133.202 5.9375 134.721 6.24997 136.001 6.87491C137.281 7.48908 138.267 8.41571 138.96 9.65482C139.653 10.8939 140 12.4455 140 14.3096V17.1218H128.819C128.872 18.0807 129.224 18.8673 129.874 19.4815C130.535 20.0956 131.506 20.4027 132.786 20.4027C133.916 20.4027 134.95 20.2896 135.889 20.0633C136.838 19.837 137.814 19.4869 138.816 19.0128V23.5544C137.942 24.0177 136.987 24.3571 135.953 24.5726C134.918 24.7881 133.612 24.8958 132.034 24.8958C130.21 24.8958 128.579 24.5672 127.139 23.9099C125.699 23.2527 124.564 22.2344 123.732 20.8553C122.911 19.4761 122.5 17.7036 122.5 15.5379C122.5 13.3398 122.873 11.535 123.62 10.1235C124.366 8.70125 125.411 7.6507 126.755 6.97188C128.099 6.28229 129.661 5.9375 131.442 5.9375ZM131.666 10.2367C130.93 10.2367 130.312 10.4737 129.81 10.9478C129.32 11.4111 129.032 12.1438 128.947 13.1459H134.321C134.311 12.6071 134.204 12.1169 134.001 11.6751C133.799 11.2333 133.5 10.8832 133.106 10.6246C132.722 10.366 132.242 10.2367 131.666 10.2367Z" fill="white"/>
<path d="M119.583 17.2426C119.583 18.5512 119.242 19.7938 118.558 20.9704C117.874 22.136 116.809 23.0817 115.362 23.8075C113.927 24.5333 112.069 24.8962 109.791 24.8962C108.652 24.8962 107.649 24.8467 106.783 24.7477C105.929 24.6487 105.131 24.4893 104.39 24.2694C103.65 24.0384 102.881 23.7415 102.083 23.3786V17.5725C103.439 18.2323 104.806 18.7381 106.185 19.09C107.563 19.4309 108.811 19.6013 109.928 19.6013C110.6 19.6013 111.147 19.5244 111.568 19.3704C112.001 19.2165 112.32 19.0075 112.525 18.7436C112.73 18.4687 112.833 18.1553 112.833 17.8034C112.833 17.3855 112.679 17.0336 112.371 16.7477C112.075 16.4508 111.597 16.1429 110.936 15.824C110.275 15.5051 109.403 15.1093 108.321 14.6364C107.398 14.2185 106.561 13.7897 105.809 13.3498C105.068 12.9099 104.43 12.4096 103.895 11.8488C103.371 11.277 102.966 10.6117 102.681 9.85291C102.397 9.09415 102.254 8.19794 102.254 7.16426C102.254 5.61375 102.647 4.31616 103.433 3.27149C104.231 2.21583 105.336 1.42408 106.749 0.896242C108.173 0.368409 109.814 0.104492 111.671 0.104492C113.3 0.104492 114.764 0.280437 116.063 0.632325C117.373 0.984214 118.547 1.38559 119.583 1.83644L117.515 6.86736C116.444 6.3945 115.391 6.02062 114.354 5.74571C113.317 5.4598 112.354 5.31685 111.466 5.31685C110.885 5.31685 110.406 5.38832 110.03 5.53128C109.666 5.66324 109.392 5.84468 109.21 6.07561C109.039 6.30653 108.953 6.57045 108.953 6.86736C108.953 7.24124 109.102 7.57663 109.398 7.87354C109.705 8.17044 110.212 8.49484 110.919 8.84673C111.637 9.18762 112.611 9.63298 113.841 10.1828C115.06 10.7106 116.097 11.2825 116.951 11.8983C117.806 12.5031 118.455 13.2343 118.9 14.0921C119.355 14.9388 119.583 15.989 119.583 17.2426Z" fill="white"/>
<path d="M91.875 24.8962V0.104492H99.1667V24.8962H91.875Z" fill="white"/>
<path d="M68.934 24.8962L63.9582 7.04005H63.8084C63.8528 7.50356 63.8972 8.13098 63.9415 8.92232C63.997 9.71366 64.0469 10.5672 64.0913 11.4829C64.1357 12.3986 64.1579 13.2804 64.1579 14.1282V24.8962H58.3333V0.104492H67.0868L72.1625 17.7062H72.2957L77.2715 0.104492H86.0416V24.8962H80.0007V14.0265C80.0007 13.2464 80.0118 12.4099 80.034 11.5168C80.0673 10.6124 80.1006 9.76454 80.1339 8.97319C80.1782 8.17055 80.2171 7.53747 80.2504 7.07397H80.1006L75.1913 24.8962H68.934Z" fill="white"/>
<path d="M55.4166 15.3763C55.4166 16.9063 55.1987 18.2639 54.7629 19.4492C54.3271 20.6344 53.6957 21.6311 52.8688 22.4392C52.0418 23.2473 51.0416 23.8615 49.8683 24.2817C48.6949 24.6911 47.3707 24.8958 45.8956 24.8958C44.5211 24.8958 43.2583 24.6911 42.1073 24.2817C40.9674 23.8615 39.9728 23.2473 39.1235 22.4392C38.2742 21.6311 37.6149 20.6344 37.1456 19.4492C36.6874 18.2639 36.4583 16.9063 36.4583 15.3763C36.4583 13.3506 36.8383 11.6374 37.5982 10.2367C38.3692 8.83593 39.4644 7.76922 40.8836 7.03653C42.314 6.30384 44.0182 5.9375 45.9961 5.9375C47.8177 5.9375 49.438 6.30384 50.8573 7.03653C52.2765 7.76922 53.3884 8.83593 54.193 10.2367C55.0088 11.6374 55.4166 13.3506 55.4166 15.3763ZM43.113 15.3763C43.113 16.4214 43.208 17.305 43.398 18.0269C43.5879 18.738 43.8897 19.2821 44.3031 19.6593C44.7278 20.0256 45.281 20.2088 45.9626 20.2088C46.6443 20.2088 47.1863 20.0256 47.5886 19.6593C47.9909 19.2821 48.2814 18.738 48.4602 18.0269C48.6502 17.305 48.7452 16.4214 48.7452 15.3763C48.7452 14.3311 48.6502 13.4583 48.4602 12.758C48.2814 12.0576 47.9853 11.5296 47.5718 11.1741C47.1695 10.8185 46.6219 10.6407 45.9291 10.6407C44.9345 10.6407 44.2137 11.0394 43.7667 11.8367C43.3309 12.6341 43.113 13.8139 43.113 15.3763Z" fill="white"/>
<path d="M31.5966 5.9375C31.9453 5.9375 32.3104 5.9649 32.6917 6.01971C33.0731 6.06356 33.3564 6.10193 33.5417 6.13481L32.9696 12.2021C32.7626 12.1473 32.4956 12.1035 32.1687 12.0706C31.8418 12.0267 31.3842 12.0048 30.7957 12.0048C30.3926 12.0048 29.9621 12.0432 29.5045 12.1199C29.0468 12.1967 28.611 12.3611 28.1969 12.6132C27.7937 12.8544 27.4614 13.2271 27.1998 13.7313C26.9383 14.2246 26.8076 14.8932 26.8076 15.7373V24.8958H20.4167V6.26635H25.1731L26.1701 9.24247H26.4807C26.8185 8.62861 27.2489 8.07504 27.7719 7.58176C28.3059 7.07752 28.8997 6.67742 29.5535 6.38145C30.2182 6.08548 30.8993 5.9375 31.5966 5.9375Z" fill="white"/>
<path d="M8.3459 0.104492C11.4028 0.104492 13.6899 0.788439 15.2074 2.15633C16.7358 3.52423 17.5 5.46867 17.5 7.98967C17.5 9.12016 17.3406 10.2054 17.0217 11.2455C16.7138 12.2855 16.2025 13.2125 15.4877 14.0265C14.784 14.8404 13.8439 15.4848 12.6673 15.9596C11.5017 16.4344 10.0613 16.6718 8.3459 16.6718H6.51508V24.8962H0V0.104492H8.3459ZM8.19746 5.51389H6.51508V11.2116H7.8016C8.36239 11.2116 8.8847 11.1155 9.36852 10.9233C9.85234 10.7198 10.2372 10.3976 10.5231 9.95672C10.82 9.50452 10.9684 8.90536 10.9684 8.15924C10.9684 7.3792 10.743 6.74613 10.2922 6.26002C9.84134 5.7626 9.1431 5.51389 8.19746 5.51389Z" fill="white"/>
</svg>
