<svg width="250" height="63" viewBox="0 0 250 63" fill="none" xmlns="http://www.w3.org/2000/svg">
<path d="M23.3119 18.3877C22.1548 18.5485 21.2597 19.6743 21.2597 21.0344V33.2847C21.2597 35.7614 20.538 38.0452 19.3204 39.8786C17.7924 42.1899 15.4781 43.7843 12.8292 44.1519H10.4746C8.38615 43.8624 6.50733 42.8102 5.05185 41.2433C3.26979 39.3318 2.13282 36.6483 2.04816 33.6615V21.0344C2.04816 19.6789 1.1531 18.5485 0 18.3877H7.09598C5.96707 18.5485 5.08814 19.6238 5.05185 20.9425C5.04782 20.9701 5.04782 21.0023 5.04782 21.0344C5.04782 21.0666 5.04782 21.0988 5.05185 21.1263V34.1532C5.05185 38.6425 8.24504 42.2818 12.1841 42.2818C16.1232 42.2818 19.3204 38.6425 19.3204 34.1532V21.1263C19.3244 21.0988 19.3244 21.0666 19.3244 21.0344C19.3244 21.0023 19.3244 20.9701 19.3204 20.9425C19.2841 19.6238 18.4012 18.5439 17.2723 18.3877H23.3119Z" fill="white"/>
<path d="M250 18.3877C248.843 18.5485 247.948 19.6743 247.948 21.0344V33.2847C247.948 35.7614 247.226 38.0452 246.009 39.8786C244.48 42.1899 242.166 43.7843 239.517 44.1519H237.163C235.074 43.8624 233.195 42.8102 231.74 41.2433C229.958 39.3318 228.821 36.6483 228.736 33.6615V21.0344C228.736 19.6789 227.841 18.5485 226.688 18.3877H233.784C232.655 18.5485 231.776 19.6238 231.74 20.9425C231.736 20.9701 231.736 21.0023 231.736 21.0344C231.736 21.0666 231.736 21.0988 231.74 21.1263V34.1532C231.74 38.6425 234.933 42.2818 238.872 42.2818C242.811 42.2818 246.009 38.6425 246.009 34.1532V21.1263C246.013 21.0988 246.013 21.0666 246.013 21.0344C246.013 21.0023 246.013 20.9701 246.009 20.9425C245.972 19.6238 245.089 18.5439 243.96 18.3877H250Z" fill="white"/>
<path d="M43.6093 18.3877H32.5563V25.6181C32.5563 22.5943 34.7143 20.1412 37.3743 20.1412H42.1842V25.48C42.1882 25.5261 42.1882 25.5721 42.1882 25.6181C42.1882 25.6641 42.1882 25.7148 42.1842 25.7608V40.1342C42.1882 40.1618 42.1882 40.194 42.1882 40.2216C42.1882 40.2492 42.1882 40.2815 42.1842 40.3091C42.1477 42.1823 40.7955 43.6919 39.1355 43.6919H48.0832C46.4232 43.6919 45.0709 42.1823 45.0345 40.3091C45.0304 40.2815 45.0304 40.2492 45.0304 40.2216C45.0304 40.194 45.0304 40.1618 45.0345 40.1342V25.7608C45.0304 25.7148 45.0304 25.6641 45.0304 25.6181C45.0304 25.5721 45.0304 25.5261 45.0345 25.48V20.1412H49.8444C52.5044 20.1412 54.6624 22.5943 54.6624 25.6181V18.3877H43.6093Z" fill="white"/>
<path d="M207.195 18.3877H196.141V25.6181C196.141 22.5943 198.299 20.1412 200.959 20.1412H205.769V25.48C205.773 25.5261 205.773 25.5721 205.773 25.6181C205.773 25.6641 205.773 25.7148 205.769 25.7608V40.1342C205.773 40.1618 205.773 40.194 205.773 40.2216C205.773 40.2492 205.773 40.2815 205.769 40.3091C205.733 42.1823 204.381 43.6919 202.721 43.6919H211.668C210.008 43.6919 208.656 42.1823 208.62 40.3091C208.616 40.2815 208.616 40.2492 208.616 40.2216C208.616 40.194 208.616 40.1618 208.62 40.1342V25.7608C208.616 25.7148 208.616 25.6641 208.616 25.6181C208.616 25.5721 208.616 25.5261 208.62 25.48V20.1412H213.43C216.09 20.1412 218.248 22.5943 218.248 25.6181V18.3877H207.195Z" fill="white"/>
<path d="M76.3726 20.2558C76.3726 20.2558 74.218 17.9277 69.329 17.9277C63.9526 17.9277 61.2745 26.555 67.5087 30.4059C72.8246 33.6874 76.4733 37.2883 74.4194 40.6161C73.6139 41.9213 72.2608 42.6155 70.8714 42.6526C65.93 42.7822 63.9325 37.3993 63.9325 37.3993C63.9325 37.3993 63.9204 42.4582 63.9325 42.4535C63.9446 42.9442 72.0514 47.2856 76.0424 42.0648C77.4599 40.2134 77.9795 37.5984 77.2304 35.2842C75.4906 29.8921 68.2577 29.4432 66.5582 23.8521C66.2401 22.8107 66.4978 21.6258 67.2066 20.8806C70.8956 17.0021 75.8531 22.8708 76.4411 24.7176C76.4491 24.75 76.3726 20.2558 76.3726 20.2558Z" fill="white"/>
<path d="M186.099 20.2558C186.099 20.2558 183.945 17.9277 179.056 17.9277C173.679 17.9277 171.001 26.555 177.235 30.4059C182.551 33.6874 186.2 37.2883 184.146 40.6161C183.341 41.9213 181.987 42.6155 180.598 42.6526C175.657 42.7822 173.659 37.3993 173.659 37.3993C173.659 37.3993 173.647 42.4582 173.659 42.4535C173.671 42.9442 181.778 47.2856 185.769 42.0648C187.187 40.2134 187.706 37.5984 186.957 35.2842C185.217 29.8921 177.984 29.4432 176.285 23.8521C175.967 22.8107 176.225 21.6258 176.933 20.8806C180.622 17.0021 185.58 22.8708 186.168 24.7176C186.176 24.75 186.099 20.2558 186.099 20.2558Z" fill="white"/>
<path d="M109.727 43.6918H103.075L95.8842 23.4432L88.6897 43.6918H83.1993C85.0884 43.6918 86.7162 42.4214 87.4518 40.589C87.4919 40.4884 96.2902 16.5474 96.2902 16.5474C96.2902 16.5474 105.454 40.5478 105.51 40.6803C105.514 40.6941 105.522 40.7078 105.531 40.7215C106.29 42.4808 107.882 43.6918 109.727 43.6918Z" fill="white"/>
<path d="M167.604 43.6918H160.953L153.762 23.4432L146.568 43.6918H141.077C142.966 43.6918 144.594 42.4214 145.33 40.589C145.37 40.4884 154.168 16.5474 154.168 16.5474C154.168 16.5474 163.332 40.5478 163.388 40.6803C163.392 40.6941 163.4 40.7078 163.408 40.7215C164.168 42.4808 165.76 43.6918 167.604 43.6918Z" fill="white"/>
<path d="M139.068 62.0948L112.138 52.0258V9.58328L139.068 0.904785V62.0948Z" fill="#FEA901"/>
<path opacity="0.25" d="M119.775 19.7135L122.772 19.2359L126.373 37.0229L130.413 18.0143L133.842 17.4678C132.625 17.6607 131.606 19.066 131.158 20.9122C131.134 21.0132 126.158 43.232 126.158 43.232C126.158 43.232 121.666 22.0603 121.642 21.9501C121.642 21.9409 121.638 21.9271 121.634 21.918C121.29 20.4851 120.58 19.5849 119.779 19.7135H119.775Z" fill="black"/>
<path d="M117.363 18.9531L120.618 18.4399L124.527 37.4982L128.913 17.1339L132.637 16.5474C131.314 16.7536 130.211 18.2612 129.722 20.2408C129.694 20.3508 124.294 44.1519 124.294 44.1519C124.294 44.1519 119.42 21.4689 119.392 21.3543C119.392 21.3406 119.388 21.3314 119.384 21.3177C119.011 19.7826 118.237 18.8202 117.367 18.9577L117.363 18.9531Z" fill="white"/>
</svg>
