<svg width="250" height="200" viewBox="0 0 250 200" fill="none" xmlns="http://www.w3.org/2000/svg">
<path d="M65.8779 166.764C67.1428 165.138 68.4252 163.593 69.7368 162.124C71.0483 160.655 72.2432 159.349 73.3274 158.195C74.4116 157.047 75.2918 156.074 75.968 155.287C76.6441 154.5 76.9822 153.963 76.9822 153.695C76.9822 153.381 76.8481 153.007 76.5742 152.576C76.306 152.151 75.9388 151.743 75.49 151.358C75.0353 150.973 74.5399 150.658 73.9978 150.408C73.4557 150.163 72.9136 150.035 72.3715 150.035C72.1033 150.035 71.5029 150.489 70.5761 151.387C69.6493 152.291 68.5651 153.485 67.3235 154.978C66.0819 156.47 64.7704 158.184 63.3948 160.125C62.0191 162.066 60.7542 164.065 59.6001 166.117C58.4459 168.175 57.49 170.215 56.7205 172.243C55.9511 174.272 55.5664 176.125 55.5664 177.798C55.5664 179.471 55.8578 180.882 56.4466 181.896C57.0353 182.91 57.8455 183.417 58.8831 183.417C59.5593 183.417 60.0431 183.202 60.3404 182.776C60.6318 182.345 60.6668 181.995 60.4395 181.727C60.3462 181.68 60.2355 181.68 60.1014 181.727C59.9673 181.774 59.8158 181.774 59.6584 181.727C59.501 181.68 59.3669 181.546 59.2503 181.319C59.1396 181.092 59.0813 180.707 59.0813 180.165C59.0813 178.177 59.7458 176.026 61.0807 173.701C62.4097 171.375 64.001 169.061 65.8546 166.758" fill="black"/>
<path d="M87.579 160.533C89.2695 158.906 90.6801 157.204 91.8109 155.421C92.9417 153.637 93.5072 151.842 93.5072 150.035C93.5072 149.178 93.2565 148.193 92.761 147.091C92.2656 145.984 91.4961 144.934 90.4586 143.943C89.421 142.952 88.0862 142.113 86.4657 141.437C84.8394 140.761 82.8983 140.423 80.6425 140.423C76.399 140.423 72.3128 141.075 68.3841 142.387C64.4553 143.699 60.9812 145.354 57.956 147.365C54.9307 149.376 52.5175 151.609 50.7105 154.068C48.9035 156.528 48 158.912 48 161.215C48 162.48 48.2273 163.506 48.6762 164.298C49.125 165.091 49.6263 165.709 50.1684 166.158C50.5531 166.461 50.9786 166.723 51.4508 166.939C51.8355 167.12 52.261 166.776 52.1736 166.362C52.057 165.82 51.9987 165.074 51.9987 164.129C51.9987 162.462 52.774 160.55 54.3303 158.405C55.8867 156.26 58.0143 154.22 60.7189 152.279C63.4236 150.338 66.6121 148.7 70.2843 147.371C73.9566 146.042 77.8912 145.371 82.0823 145.371C82.8459 145.371 83.627 145.441 84.4139 145.575C85.2008 145.71 85.9236 145.925 86.5764 146.217C87.2293 146.508 87.7597 146.904 88.1619 147.4C88.57 147.895 88.7682 148.484 88.7682 149.16C88.7682 150.653 88.2028 152.116 87.0778 153.561C85.9469 155.007 84.5363 156.371 82.8459 157.659C81.1555 158.947 79.3135 160.142 77.3258 161.25C75.3381 162.357 73.502 163.313 71.8057 164.129C70.1153 164.939 68.1393 165.82 65.8834 166.77C65.8834 166.77 65.8834 166.77 65.8834 166.776C65.9301 167.044 65.9942 167.312 66.0874 167.586C66.2215 168.128 66.4955 168.693 66.8977 169.276C66.8977 169.638 66.9443 170.022 67.0317 170.43C67.1192 170.838 67.2474 171.223 67.4048 171.579C67.5622 171.94 67.7429 172.243 67.9469 172.494C68.1509 172.745 68.3666 172.867 68.5881 172.867C68.9495 172.867 69.579 172.733 70.4825 172.459C71.386 172.191 72.4935 172.051 73.7992 172.051C75.1982 172.051 76.2358 172.29 76.9119 172.762C77.5881 173.234 77.9262 173.881 77.9262 174.691C77.9262 175.414 77.6114 176.195 76.9761 177.029C76.3407 177.862 75.5071 178.713 74.4696 179.57C73.432 180.427 72.2137 181.255 70.8148 182.042C69.4158 182.835 67.9586 183.54 66.4488 184.175C64.9333 184.805 63.3886 185.306 61.8089 185.668C60.2293 186.029 58.7137 186.21 57.274 186.21C56.1023 186.21 55.1522 186.029 54.4294 185.668C53.7066 185.306 53.1179 184.933 52.6691 184.548C52.2144 184.164 51.8763 183.837 51.6548 183.569C51.4275 183.295 51.2234 183.254 51.0427 183.435C50.862 183.616 50.8854 184.158 51.1127 185.061C51.34 185.965 51.7772 186.909 52.4359 187.906C53.0887 188.897 53.9456 189.789 55.0065 190.581C56.0674 191.368 57.3439 191.765 58.8303 191.765C61.0861 191.765 63.5343 191.357 66.1807 190.546C68.8213 189.736 71.2695 188.594 73.5253 187.125C75.7811 185.656 77.6639 183.872 79.1794 181.774C80.6891 179.675 81.4469 177.338 81.4469 174.767C81.4469 173.188 80.9631 171.899 79.9897 170.908C79.022 169.917 77.8387 169.154 76.4456 168.612C76.4456 168.612 76.4456 168.606 76.4456 168.6C78.206 167.656 80.0713 166.484 82.0531 165.085C84.0408 163.686 85.877 162.171 87.5732 160.55" fill="black"/>
<path d="M202.393 167.236C202.259 166.921 201.921 166.991 201.379 167.44C200.837 168.21 200.283 168.909 199.718 169.539C199.153 170.174 198.575 170.733 197.993 171.229C198.261 170.325 198.476 169.445 198.634 168.588C198.791 167.732 198.873 166.851 198.873 165.948C198.873 165.178 198.75 164.438 198.5 163.715C198.249 162.993 197.888 162.351 197.415 161.786C196.943 161.221 196.366 160.772 195.69 160.434C195.014 160.096 194.268 159.926 193.458 159.926C192.193 159.926 191.009 160.142 189.902 160.568C188.794 160.999 187.803 161.594 186.923 162.363C186.043 163.132 185.297 164.036 184.691 165.073C184.079 166.111 183.641 167.265 183.368 168.53C183.14 168.483 182.732 168.46 182.149 168.46C181.741 168.46 181.316 168.699 180.861 169.171C180.412 169.643 179.993 170.267 179.608 171.031C179.375 171.491 179.171 171.993 178.99 172.523C178.425 173.013 177.877 173.485 177.34 173.945C176.39 174.756 175.51 175.467 174.7 176.079C173.89 176.691 173.155 177.163 172.496 177.501C171.844 177.839 171.29 177.961 170.835 177.874C170.38 177.827 169.967 177.583 169.582 177.128C169.197 176.679 168.859 176.149 168.568 175.537C168.27 174.925 168.002 174.272 167.752 173.572C167.501 172.873 167.314 172.249 167.174 171.707C169.069 169.766 170.864 168.175 172.561 166.933C174.251 165.691 175.778 165.073 177.13 165.073C177.853 165.073 178.337 165.231 178.588 165.546C178.833 165.86 179.206 166.018 179.707 166.018C180.022 166.018 180.191 165.703 180.214 165.068C180.237 164.438 180.121 163.727 179.876 162.934C179.625 162.147 179.223 161.436 178.658 160.801C178.092 160.171 177.404 159.851 176.594 159.851C176.005 159.851 175.172 160.189 174.088 160.865C173.004 161.541 171.844 162.41 170.602 163.471C169.36 164.531 168.095 165.697 166.807 166.956C165.519 168.221 164.359 169.416 163.322 170.547C164.767 167.475 166.084 164.858 167.285 162.689C168.48 160.521 169.541 158.708 170.468 157.239C171.395 155.77 172.193 154.599 172.869 153.719C173.546 152.838 174.111 152.127 174.566 151.585C175.015 151.043 175.347 150.635 175.545 150.367C175.749 150.099 175.848 149.825 175.848 149.557C175.848 149.242 175.621 148.88 175.172 148.472C174.723 148.064 174.193 147.686 173.581 147.324C172.969 146.963 172.386 146.66 171.82 146.409C171.255 146.158 170.841 146.036 170.567 146.036C170.206 146.036 169.576 146.555 168.673 147.592C167.769 148.63 166.743 150.005 165.589 151.725C164.435 153.439 163.24 155.438 161.998 157.717C160.757 159.996 159.614 162.369 158.577 164.829C157.539 167.289 156.682 169.783 156 172.313C155.93 172.57 155.872 172.82 155.808 173.077C155.586 173.269 155.359 173.461 155.12 173.665C154.129 174.522 153.057 175.327 151.902 176.067C150.754 176.813 149.542 177.402 148.283 177.827C147.018 178.259 145.753 178.358 144.488 178.131C143.765 177.996 143.281 177.682 143.031 177.18C142.78 176.685 142.681 176.131 142.728 175.519C142.774 174.907 142.908 174.301 143.136 173.689C143.363 173.077 143.584 172.593 143.812 172.232C144.039 172.686 144.412 173.1 144.931 173.485C145.45 173.87 146.091 174.062 146.86 174.062C148.125 174.062 149.309 173.712 150.416 173.013C151.524 172.313 152.491 171.468 153.331 170.471C154.164 169.48 154.829 168.472 155.33 167.458C155.825 166.443 156.076 165.598 156.076 164.916C156.076 163.202 155.592 161.961 154.619 161.191C153.645 160.422 152.509 160.043 151.197 160.043C149.979 160.043 148.533 160.504 146.86 161.43C145.187 162.357 143.584 163.575 142.051 165.085C140.518 166.601 139.207 168.326 138.123 170.267C137.942 170.594 137.779 170.92 137.627 171.252C137.586 171.287 137.551 171.316 137.511 171.351C137.283 171.579 136.823 171.958 136.123 172.5C135.424 173.042 134.666 173.642 133.856 174.295C133.046 174.948 132.265 175.56 131.518 176.125C130.772 176.691 130.265 177.087 129.997 177.309C130.492 175.729 131.192 174.138 132.095 172.535C132.999 170.932 133.902 169.451 134.806 168.099C135.709 166.746 136.485 165.592 137.143 164.642C137.796 163.692 138.123 163.109 138.123 162.882C138.123 162.567 137.977 162.229 137.68 161.868C137.388 161.506 137.015 161.168 136.56 160.853C136.112 160.539 135.587 160.288 135.004 160.107C134.415 159.926 133.833 159.839 133.244 159.839C132.702 159.839 131.856 160.247 130.702 161.057C129.548 161.868 128.231 162.94 126.739 164.275C125.246 165.61 123.69 167.096 122.064 168.746C120.437 170.395 118.928 172.028 117.529 173.654C118.52 171.666 119.423 170.075 120.239 168.88C121.049 167.685 121.749 166.735 122.338 166.035C122.926 165.336 123.364 164.829 123.655 164.514C123.946 164.199 124.098 163.925 124.098 163.704C124.098 163.208 123.929 162.736 123.591 162.281C123.253 161.833 122.833 161.425 122.338 161.063C121.842 160.702 121.265 160.41 120.612 160.183C119.959 159.956 119.336 159.845 118.753 159.845C118.391 159.845 117.75 160.422 116.823 161.57C115.897 162.719 114.964 164.222 114.014 166.076C113.25 167.568 112.562 169.218 111.945 171.019C111.787 171.124 111.624 171.258 111.437 171.427C111.21 171.608 110.75 171.981 110.05 172.546C109.351 173.112 108.593 173.718 107.783 174.377C106.972 175.029 106.191 175.642 105.445 176.207C104.699 176.772 104.192 177.169 103.924 177.39C104.419 175.811 105.119 174.219 106.022 172.616C106.926 171.013 107.829 169.533 108.733 168.18C109.636 166.828 110.411 165.674 111.07 164.724C111.723 163.774 112.049 163.191 112.049 162.963C112.049 162.649 111.904 162.311 111.606 161.949C111.315 161.588 110.942 161.261 110.487 160.97C110.038 160.678 109.514 160.439 108.931 160.259C108.342 160.078 107.759 159.991 107.171 159.991C106.809 159.991 106.209 160.41 105.375 161.244C104.542 162.077 103.568 163.138 102.461 164.426C101.353 165.715 100.182 167.09 98.94 168.559C97.6984 170.028 96.5151 171.404 95.3843 172.692C94.2535 173.98 93.2276 175.041 92.3007 175.875C91.3739 176.708 90.6861 177.128 90.2373 177.128C89.9225 177.128 89.8875 176.813 90.1382 176.178C90.383 175.548 90.7677 174.756 91.2865 173.805C91.8053 172.855 92.4173 171.818 93.1168 170.693C93.8163 169.562 94.4808 168.501 95.1162 167.51C95.7457 166.519 96.2761 165.674 96.7075 164.969C97.133 164.269 97.3487 163.873 97.3487 163.785C97.3487 163.29 97.1796 162.818 96.8416 162.363C96.5035 161.914 96.0838 161.506 95.5883 161.145C95.0928 160.783 94.5158 160.504 93.8629 160.3C93.2101 160.096 92.5864 159.996 92.0035 159.996C91.7353 159.996 91.3506 160.276 90.8493 160.842C90.3539 161.407 89.8001 162.165 89.1881 163.109C88.576 164.059 87.9465 165.155 87.2936 166.391C86.6408 167.632 86.0404 168.932 85.4983 170.285C84.9562 171.637 84.519 173.007 84.1751 174.382C83.837 175.758 83.668 177.058 83.668 178.276C83.668 179.086 83.802 179.821 84.076 180.48C84.3441 181.132 84.6531 181.686 84.9911 182.141C85.3292 182.596 85.6673 182.945 86.0054 183.19C86.3435 183.441 86.6058 183.563 86.7865 183.563C87.5967 183.563 88.5235 183.26 89.5611 182.648C90.5987 182.036 91.6945 181.249 92.8428 180.276C93.9912 179.308 95.1453 178.212 96.2936 176.994C97.4478 175.776 98.5145 174.534 99.5112 173.269C99.2839 174.173 99.0916 175.053 98.9342 175.91C98.7768 176.767 98.6952 177.583 98.6952 178.346C98.6952 179.384 98.771 180.241 98.9342 180.917C99.0916 181.593 99.2839 182.123 99.5112 182.508C99.7386 182.893 99.9601 183.161 100.187 183.318C100.415 183.476 100.619 183.557 100.799 183.557C101.248 183.557 101.959 183.208 102.933 182.508C103.906 181.809 104.932 181.01 106.016 180.107C107.101 179.203 108.138 178.311 109.129 177.431C109.759 176.871 110.266 176.411 110.662 176.044C110.499 177.163 110.417 178.294 110.417 179.43C110.417 179.838 110.452 180.276 110.516 180.754C110.586 181.226 110.72 181.669 110.924 182.077C111.128 182.485 111.385 182.823 111.706 183.091C112.02 183.359 112.428 183.499 112.924 183.499C113.466 183.499 113.804 183.342 113.938 183.027C114.025 182.846 114.346 182.327 114.888 181.471C115.43 180.614 116.241 179.506 117.325 178.154C118.409 176.801 119.785 175.239 121.457 173.479C123.125 171.719 125.159 169.865 127.555 167.924C126.785 169.638 126.132 171.404 125.59 173.205C125.048 175.012 124.78 176.702 124.78 178.282C124.78 179.32 124.856 180.177 125.019 180.853C125.176 181.529 125.369 182.059 125.596 182.444C125.823 182.829 126.045 183.097 126.272 183.254C126.5 183.412 126.704 183.493 126.884 183.493C127.333 183.493 128.044 183.143 129.018 182.444C129.985 181.745 131.017 180.946 132.101 180.042C133.185 179.139 134.223 178.247 135.214 177.367C135.721 176.918 136.147 176.533 136.502 176.207C136.502 176.219 136.502 176.236 136.502 176.248C136.502 178.323 137.056 180.054 138.163 181.43C139.271 182.805 140.769 183.493 142.669 183.493C144.296 183.493 145.922 183.12 147.542 182.374C149.169 181.628 150.678 180.724 152.077 179.664C153.185 178.824 154.199 177.938 155.12 177.017C155.033 177.862 154.986 178.69 154.986 179.495C154.986 179.903 155.021 180.351 155.085 180.847C155.155 181.342 155.289 181.797 155.493 182.199C155.697 182.607 155.954 182.945 156.274 183.213C156.589 183.482 156.997 183.621 157.493 183.621C158.122 183.621 158.565 183.487 158.816 183.213C159.061 182.945 159.299 182.333 159.527 181.383C159.614 181.022 159.795 180.561 160.069 179.996C160.337 179.43 160.658 178.877 161.019 178.335C161.38 177.792 161.765 177.285 162.167 176.813C162.575 176.341 162.978 176.015 163.386 175.834C163.613 176.603 163.916 177.449 164.301 178.375C164.686 179.302 165.134 180.159 165.653 180.952C166.172 181.745 166.761 182.397 167.413 182.916C168.066 183.435 168.801 183.674 169.617 183.627C170.386 183.581 171.197 183.348 172.053 182.916C172.91 182.485 173.79 181.902 174.694 181.156C175.597 180.41 176.513 179.553 177.434 178.585C177.737 178.265 178.046 177.932 178.349 177.6C178.459 178.457 178.693 179.203 179.054 179.838C179.573 180.742 180.208 181.465 180.948 182.007C181.695 182.549 182.47 182.934 183.286 183.155C184.096 183.382 184.796 183.493 185.384 183.493C187.098 183.493 188.806 182.893 190.496 181.698C192.187 180.503 193.691 178.952 194.996 177.058C195.766 176.697 196.611 176.178 197.538 175.502C198.465 174.825 199.514 173.875 200.686 172.657C201.047 172.249 201.385 171.666 201.7 170.897C202.015 170.127 202.242 169.404 202.376 168.728C202.51 168.052 202.51 167.557 202.376 167.236M146.511 168.454C147.14 167.778 147.787 167.178 148.44 166.659C149.093 166.14 149.728 165.732 150.334 165.441C150.947 165.149 151.494 164.998 151.996 164.998C152.445 164.998 152.503 165.266 152.165 165.808C151.827 166.35 151.273 166.962 150.504 167.638C149.734 168.314 148.831 168.961 147.793 169.568C146.755 170.174 145.741 170.547 144.744 170.687C145.287 169.877 145.869 169.131 146.505 168.454M186.224 179.39C185.524 179.774 184.877 179.669 184.294 179.086C183.98 178.772 183.875 178.253 183.991 177.53C184.102 176.807 184.318 176.02 184.632 175.158C185.443 176.149 186.684 176.871 188.357 177.326C187.634 178.317 186.923 179.011 186.224 179.39ZM193.096 166.589C192.869 167.65 192.519 168.822 192.047 170.11C191.575 171.398 191.044 172.651 190.456 173.869C189.552 173.689 188.771 173.327 188.118 172.785C187.465 172.243 187.139 171.386 187.139 170.215C187.139 169.224 187.308 168.285 187.646 167.405C187.984 166.525 188.415 165.744 188.934 165.068C189.453 164.392 190.042 163.861 190.695 163.476C191.347 163.092 191.994 162.899 192.624 162.899C193.073 162.899 193.323 163.249 193.37 163.948C193.417 164.648 193.323 165.528 193.102 166.589" fill="black"/>
<path d="M83.8194 195.495C83.8194 195.495 98.5027 187.3 144.832 187.3C172.38 187.3 194.687 188.098 196.623 195.495C198.558 202.892 193.889 199.138 193.207 198.34C192.525 197.541 175.906 191.735 134.584 191.735C107.491 191.735 93.7229 195.035 86.0927 198.567C86.0927 198.567 83.0208 198.911 83.8136 195.495" fill="black"/>
<path d="M103.609 79.4105C110.003 77.417 116.036 74.4617 121.591 70.6029C121.912 70.3814 122.349 70.6262 122.32 71.0167C122.256 71.9086 122.18 72.7771 122.098 73.6456C122.075 73.9079 122.046 74.1644 122.017 74.4267C121.999 74.5666 121.924 74.6949 121.807 74.7706C116.468 78.2389 110.726 80.9436 104.67 82.8322C98.5142 84.7499 92.0965 85.805 85.5913 85.9624H85.5447C84.577 85.9624 83.7785 85.1871 83.7551 84.2137C83.7318 83.2285 84.5129 82.4067 85.498 82.3833C91.671 82.2376 97.7623 81.235 103.603 79.4164L103.609 79.4105Z" fill="black"/>
<path d="M109.526 86.4282C113.186 85.2099 116.748 83.7002 120.169 81.9165C120.513 81.7358 120.915 82.0273 120.84 82.4062C120.63 83.5137 120.403 84.6212 120.152 85.7287C120.123 85.8686 120.029 85.9852 119.901 86.0493C116.905 87.5066 113.81 88.7715 110.645 89.8207C104.239 91.9425 97.5761 93.2015 90.8319 93.5629H90.7328C89.7885 93.5629 89.0016 92.8285 88.9491 91.8725C88.8967 90.8874 89.6486 90.0422 90.6395 89.9897C97.0631 89.6458 103.423 88.445 109.526 86.4224V86.4282Z" fill="black"/>
<path d="M112.358 94.9856C114.101 94.3385 115.821 93.5982 117.505 92.7763C117.867 92.6015 118.269 92.9396 118.146 93.3243C117.797 94.4726 117.424 95.6209 117.033 96.7634C116.992 96.8858 116.899 96.9849 116.783 97.0374C115.733 97.5037 114.678 97.9292 113.612 98.3256C108.966 100.057 104.104 101.217 99.173 101.782C99.1031 101.794 99.0331 101.794 98.969 101.794C98.0714 101.794 97.2961 101.118 97.197 100.208C97.0862 99.2291 97.7916 98.3431 98.7708 98.2265C103.417 97.7019 107.992 96.606 112.37 94.9797L112.358 94.9856Z" fill="black"/>
<path d="M122.326 56.6768C122.384 57.5803 122.436 58.4897 122.477 59.3699C122.495 59.6555 122.244 59.8828 121.964 59.8478C114.882 59.0434 107.817 59.3699 100.916 60.8213C94.9293 62.0804 89.1295 64.1846 83.6735 67.0642C83.4054 67.2041 83.1198 67.2682 82.84 67.2682C82.1988 67.2682 81.5809 66.9184 81.2603 66.3181C80.7998 65.4437 81.1379 64.3595 82.0064 63.899C87.7597 60.8621 93.8801 58.6471 100.187 57.3239C107.316 55.82 114.602 55.4586 121.918 56.2455C122.145 56.2688 122.32 56.4553 122.332 56.6768H122.326Z" fill="black"/>
<path d="M121.743 49.9559C121.772 50.2298 121.557 50.4688 121.283 50.4688C115.926 50.4338 107.806 50.8244 102.647 51.8095C96.3346 53.0219 90.2025 55.0737 84.4201 57.9067C84.1695 58.0291 83.9013 58.0874 83.639 58.0874C82.9803 58.0874 82.345 57.7201 82.0302 57.0848C81.5989 56.1987 81.9603 55.1262 82.8463 54.6949C88.9085 51.7162 95.3437 49.5653 101.971 48.2946C106.465 47.4319 112.732 47.0297 117.832 46.9189C117.914 46.9189 117.989 46.9364 118.059 46.9714C119.214 47.5776 120.356 48.2072 121.499 48.8658C121.522 48.8775 121.539 48.8892 121.557 48.895C121.58 48.9066 121.603 48.9125 121.621 48.9241V48.9358C121.668 49.2622 121.708 49.6061 121.749 49.9559H121.743Z" fill="black"/>
<path d="M99.9829 39.5453C101.994 40.1573 103.958 40.816 105.894 41.533C106.36 41.7079 106.261 42.3957 105.765 42.4248C104.151 42.5356 102.542 42.7163 100.951 42.9611C96.3398 43.6722 91.8106 44.9488 87.4972 46.7558C87.2698 46.849 87.0367 46.8957 86.8093 46.8957C86.1099 46.8957 85.4453 46.4818 85.1539 45.794C84.775 44.8847 85.2005 43.8354 86.1157 43.4566C90.4991 41.6204 95.0866 40.3031 99.7673 39.5278C99.8372 39.5161 99.913 39.522 99.9829 39.5395V39.5453Z" fill="black"/>
<path d="M122.623 63.707C122.623 63.8469 122.606 64.4182 122.606 64.5814C122.6 65.1934 122.582 65.823 122.565 66.4583C122.559 66.6682 122.408 66.8489 122.204 66.8955C116.87 68.108 111.531 69.4195 106.273 70.8068C98.2579 72.9227 90.1848 75.2718 82.2864 77.79C82.1057 77.8483 81.9192 77.8774 81.7385 77.8774C80.9807 77.8774 80.2754 77.3878 80.0364 76.63C79.7391 75.6915 80.2579 74.6889 81.1964 74.3858C89.153 71.8444 97.2845 69.4778 105.358 67.3502C110.866 65.8988 116.462 64.5289 122.052 63.264C122.338 63.1999 122.612 63.4156 122.617 63.707H122.623Z" fill="black"/>
<path d="M116.52 21.3879C116.398 21.1081 116.27 20.8341 116.142 20.5543C115.734 19.6567 116.066 18.555 116.952 18.1295C117.838 17.704 118.939 18.0828 119.353 18.9863C119.96 20.3095 120.531 21.6269 121.073 22.9443C121.073 22.9559 121.067 22.9676 121.055 22.9617C119.569 22.408 118.053 21.8834 116.515 21.3879H116.52Z" fill="black"/>
<path d="M121.207 91.3595C120.922 92.3329 120.624 93.3005 120.315 94.2682C120.17 94.7053 120.03 95.1425 119.878 95.5797C118.549 99.5201 116.975 103.402 115.174 107.156C114.801 107.937 115.046 108.852 115.716 109.354C115.804 109.424 115.909 109.482 116.014 109.534C116.264 109.657 116.526 109.715 116.783 109.715C117.453 109.715 118.094 109.342 118.403 108.695C120.91 103.443 123.008 97.9696 124.623 92.4087C124.611 92.432 124.611 92.4495 124.6 92.467C124.623 92.4087 124.64 92.3504 124.652 92.2921C124.652 92.3096 124.64 92.3329 124.64 92.3504C125.696 88.7306 126.564 85.0175 127.217 81.3102C127.217 81.2986 127.217 81.2811 127.229 81.2694C127.229 81.2578 127.229 81.2461 127.229 81.2403C127.229 81.2112 127.24 81.1937 127.24 81.1645C127.695 78.5764 128.062 75.9475 128.319 73.3594C128.458 71.9605 128.569 70.5499 128.657 69.0576C128.657 69.0751 128.657 69.0868 128.645 69.1043C128.645 69.0635 128.657 69.0168 128.657 68.976V68.9644C128.657 68.9294 128.657 68.8944 128.657 68.8594C128.756 67.2506 128.808 65.6593 128.832 64.1263C128.832 64.0796 128.832 64.0388 128.832 63.998V63.9689C128.849 62.9313 128.843 61.8355 128.82 60.5939V60.5531C128.785 58.4838 128.686 56.4086 128.523 54.3452C128.511 54.1936 128.424 54.0479 128.295 53.9663C127.986 53.7623 127.707 53.5874 127.473 53.43C126.803 52.9987 126.168 52.5906 125.556 52.2117C125.556 52.2117 125.55 52.2117 125.544 52.2117C125.194 51.9902 124.745 52.27 124.786 52.6839C124.914 54.0012 125.019 55.3303 125.095 56.6593C125.165 57.8775 125.212 59.09 125.241 60.3082C125.253 60.3082 125.264 60.3082 125.276 60.3082C125.258 60.4015 125.247 60.5006 125.247 60.5997V60.6288C125.258 61.305 125.264 61.9404 125.264 62.5408C125.264 62.7098 125.264 62.8789 125.264 63.0479C125.328 63.0829 125.264 63.6716 125.264 63.9572V63.9864C125.264 64.4061 125.253 64.8316 125.235 65.2571C125.235 65.5719 125.218 65.8983 125.206 66.2189C125.183 66.796 125.159 67.3789 125.124 67.9618H125.136C125.136 67.9618 125.136 67.9618 125.124 67.9618C125.113 68.2241 125.095 68.4864 125.083 68.7545C125.037 69.5647 124.979 70.3517 124.914 71.1211C124.874 71.6574 124.827 72.1878 124.775 72.7183C124.763 72.8173 124.757 72.9164 124.745 73.0155C124.524 75.283 124.215 77.5855 123.83 79.8588C123.819 79.9462 123.801 80.022 123.784 80.1095C123.813 80.127 123.83 80.1444 123.859 80.1619C123.778 80.3135 123.72 80.4767 123.69 80.6574C123.527 81.5492 123.358 82.4469 123.183 83.3329C123.102 83.7176 123.02 84.0965 122.938 84.4812C122.49 86.5622 121.971 88.6373 121.388 90.6775C121.359 90.7941 121.324 90.9106 121.289 91.0272" fill="black"/>
<path d="M133.232 28.3069C131.74 27.5433 130.218 26.803 128.674 26.1093C128.674 26.1093 128.668 26.1093 128.668 26.1035C127.799 23.7952 126.843 21.516 125.823 19.2894C125.409 18.3917 125.806 17.3308 126.698 16.9228C127.601 16.5089 128.662 16.9053 129.07 17.7971C130.632 21.2071 132.031 24.722 133.249 28.2894C133.249 28.301 133.243 28.3127 133.232 28.3069Z" fill="black"/>
<path d="M138.571 73.3653C137.423 84.9709 133.815 97.1769 127.846 109.651C127.543 110.292 126.902 110.671 126.231 110.671C125.975 110.671 125.713 110.613 125.462 110.496C124.57 110.065 124.197 108.998 124.623 108.112C130.405 96.0169 133.902 84.2073 135.01 73.0156C135.441 68.673 135.587 64.2604 135.453 59.8653C135.441 59.4514 135.908 59.2008 136.24 59.4456C137.132 60.0985 138.006 60.7571 138.863 61.4158C138.985 61.5091 139.055 61.6548 139.061 61.8064C139.108 65.6827 138.944 69.5473 138.566 73.3712L138.571 73.3653Z" fill="black"/>
<path d="M141.055 32.714C140.623 32.4459 140.186 32.1777 139.749 31.9154C139.749 31.9154 139.749 31.9154 139.743 31.9096C138.531 28.1732 137.097 24.5126 135.412 20.8403C134.998 19.9484 135.395 18.8817 136.292 18.4737C137.184 18.0598 138.251 18.4562 138.659 19.3539C140.996 24.4484 142.873 29.543 144.348 34.8066C144.348 34.8183 144.336 34.8299 144.325 34.8241C143.229 34.0896 142.127 33.3843 141.049 32.714H141.055Z" fill="black"/>
<path d="M145.42 66.767C146.277 67.519 147.111 68.2767 147.903 69.0229C148.008 69.122 148.066 69.2677 148.061 69.4134C147.979 70.9231 147.862 72.4328 147.711 73.9309C146.481 86.3118 143.409 97.5093 138.309 108.171C138 108.812 137.359 109.185 136.694 109.185C136.438 109.185 136.169 109.127 135.925 109.01C135.033 108.579 134.654 107.518 135.079 106.626C139.999 96.3493 142.966 85.5365 144.149 73.5812C144.359 71.4419 144.505 69.2852 144.587 67.1226C144.604 66.7029 145.094 66.4931 145.414 66.767H145.42Z" fill="black"/>
<path d="M155.417 43.1478C154.001 41.9528 152.543 40.7812 151.063 39.6445C151.063 39.6445 151.063 39.6445 151.063 39.6387C149.576 33.4075 147.589 28.5927 145.869 24.8446C145.455 23.947 145.852 22.8802 146.749 22.4722C147.647 22.0584 148.708 22.4547 149.116 23.3524C151.296 28.0856 153.878 34.4625 155.446 43.1303C155.446 43.142 155.435 43.1536 155.423 43.1419L155.417 43.1478Z" fill="black"/>
<path d="M153.36 74.6187C154.182 75.5514 154.945 76.4724 155.651 77.3817C155.732 77.4866 155.767 77.6207 155.75 77.7548C154.176 90.1531 151.6 97.5035 148.05 104.918C147.741 105.559 147.1 105.932 146.435 105.932C146.179 105.932 145.91 105.88 145.666 105.757C144.774 105.332 144.395 104.265 144.82 103.373C148.44 95.8131 151.005 88.317 152.491 74.8869C152.538 74.4555 153.074 74.2865 153.36 74.6129V74.6187Z" fill="black"/>
<path d="M166.416 53.6747C165.093 52.2291 163.723 50.8127 162.313 49.4312C162.313 49.4312 162.313 49.4312 162.313 49.4254C161.485 44.1617 160.086 38.9972 158.133 33.9959C157.772 33.0808 158.226 32.0432 159.147 31.6818C160.063 31.3262 161.1 31.7751 161.462 32.696C164.108 39.4461 165.775 46.4875 166.445 53.6631C166.445 53.6747 166.428 53.6864 166.422 53.6747H166.416Z" fill="black"/>
<path d="M124.995 48.6624C125.065 48.7032 125.205 48.7906 125.205 48.7906C125.328 48.8664 125.456 48.9422 125.578 49.0179C126.505 49.5834 127.374 50.1429 128.19 50.6734C129.484 51.5069 130.62 52.2822 131.571 52.9292C131.728 53.0341 131.903 53.1566 132.095 53.2848C132.119 53.3023 132.142 53.3139 132.165 53.3314C132.824 53.7861 133.681 54.3806 134.672 55.086C134.806 55.1851 134.946 55.2841 135.085 55.3832C135.132 55.4182 135.173 55.4532 135.22 55.4823C135.441 55.6397 135.663 55.7971 135.89 55.9661C136.933 56.7239 137.959 57.4817 138.962 58.2453C139.929 58.9797 140.885 59.7142 141.818 60.4603C142.249 60.7984 142.669 61.1423 143.089 61.4804C143.508 61.8185 143.922 62.1624 144.33 62.5005C144.441 62.5937 144.552 62.687 144.663 62.7861C144.872 62.961 145.082 63.1358 145.286 63.3107C146.289 64.1618 147.268 65.0128 148.207 65.8697C148.982 66.5691 149.734 67.2686 150.462 67.9681C151.267 68.7317 152.042 69.4953 152.782 70.2589C152.829 70.3055 152.876 70.3522 152.916 70.4046C153.109 70.5912 153.29 70.7835 153.47 70.9701C154.432 71.9727 155.336 72.9694 156.181 73.9545C157.218 75.1553 158.168 76.3444 159.025 77.5102C159.626 78.3263 160.185 79.1307 160.698 79.9234C160.698 79.9234 160.99 80.3898 161.1 80.5588V80.5705C161.712 81.5206 162.284 82.4824 162.802 83.4675C162.925 83.7065 163.047 83.9571 163.17 84.1961C163.537 84.9539 163.869 85.7175 164.161 86.4928C164.872 88.3814 165.321 90.3341 165.379 92.2868C165.379 92.4617 165.391 92.6424 165.391 92.8114C165.379 93.8723 165.251 94.9274 164.988 95.9474C164.819 96.6819 164.557 97.4047 164.248 98.11C164.236 98.1392 164.219 98.1741 164.207 98.2033C164.097 98.4481 163.974 98.6929 163.852 98.9377C162.867 100.885 161.456 102.797 160.22 104.866C159.905 105.379 159.608 105.909 159.323 106.44C158.454 108.049 157.702 109.721 157.102 111.447C156.88 112.012 156.717 112.601 156.542 113.178L156.286 114.047L156.07 114.927C155.773 116.098 155.534 117.276 155.347 118.459C154.584 123.21 154.601 128.06 155.301 132.775C155.365 133.166 155.714 133.44 156.117 133.399C156.525 133.352 156.816 132.985 156.769 132.583C156.262 127.978 156.42 123.321 157.317 118.809C157.766 116.559 158.402 114.344 159.223 112.228C160.057 110.112 161.118 108.113 162.365 106.201C163.607 104.277 165.087 102.453 166.317 100.243C167.571 98.0575 168.334 95.4636 168.445 92.893C168.544 90.3108 168.089 87.7635 167.291 85.3911C166.889 84.2078 166.416 83.0478 165.886 81.9345C165.367 80.8619 164.802 79.8185 164.207 78.7985C164.19 78.7635 164.166 78.7227 164.143 78.6877C164.143 78.676 164.126 78.6585 164.114 78.6469C164.114 78.6352 164.114 78.6352 164.102 78.6294C164.102 78.6294 164.102 78.6294 164.091 78.6178C164.091 78.6061 164.079 78.6003 164.079 78.5944C162.062 75.371 159.375 71.9785 156.07 68.5277L156.058 68.516C156.058 68.516 156.047 68.5044 156.035 68.4927C156.017 68.4752 156.006 68.4636 155.988 68.4461C155.959 68.4169 155.924 68.3878 155.895 68.3587C155.907 68.3703 155.924 68.3878 155.942 68.3936C153.499 65.8463 150.707 63.2349 147.63 60.6235C147.618 60.6119 147.6 60.5944 147.583 60.5827C147.571 60.5827 147.571 60.5711 147.56 60.5652C144.598 58.0529 141.369 55.5406 137.959 53.0691C137.971 53.0808 137.983 53.0866 137.988 53.0983C137.936 53.0575 137.878 53.0225 137.819 52.9875C137.831 52.9875 137.843 52.9992 137.854 53.005C135.983 51.6468 134.473 50.6093 133.552 49.9914C131.862 48.8314 129.595 47.3042 126.931 45.6837C126.96 45.7071 126.983 45.7245 127.006 45.7479C126.948 45.7012 126.884 45.6604 126.826 45.6196C126.808 45.608 126.797 45.6021 126.779 45.5905C116.258 39.1785 105.398 34.8767 92.6036 32.0555C91.636 31.8398 90.68 32.4518 90.4702 33.4136C90.4702 33.4311 90.4702 33.4428 90.4585 33.4603C90.4177 33.6643 90.4177 33.8741 90.4469 34.0723C90.5518 34.7776 91.088 35.3838 91.8283 35.5412C96.1651 36.4972 100.269 37.6338 104.209 38.9687C107.036 39.9188 109.77 40.9739 112.451 42.1455C115.284 43.3813 118.053 44.7394 120.781 46.2433C120.816 46.2666 120.857 46.2841 120.892 46.3074C121.177 46.459 121.457 46.6222 121.737 46.7738C121.813 46.8204 121.889 46.8612 121.964 46.902C122.46 47.1818 122.955 47.4674 123.451 47.7589C123.626 47.8638 123.801 47.9629 123.975 48.0736C124.063 48.1203 124.15 48.1786 124.238 48.231L124.96 48.6624H124.995Z" fill="black"/>
<path d="M170.369 78.571C170.054 78.7925 169.693 78.9033 169.337 78.9033C168.778 78.9033 168.224 78.641 167.874 78.1455C166.3 75.9247 164.657 73.7329 162.984 71.6228C160.087 67.9797 157.015 64.4881 153.85 61.2413C150.888 58.2044 147.787 55.3307 144.634 52.6901C141.387 49.9796 138.006 47.4498 134.59 45.1824C134.55 45.159 134.509 45.1357 134.474 45.1124C134.077 44.8501 133.681 44.5878 133.273 44.3255C129.863 42.1396 126.406 40.1344 122.991 38.3566C115.04 34.2238 107.334 31.2801 98.7362 29.1001C97.7802 28.8611 97.1973 27.8818 97.4421 26.9258C97.6869 25.9699 98.6604 25.387 99.6163 25.6318C108.372 27.8527 116.555 30.977 124.646 35.1797C128.161 37.0101 131.711 39.0677 135.208 41.3119C135.628 41.58 136.042 41.854 136.456 42.128C140.029 44.4887 143.55 47.1176 146.942 49.9505C150.189 52.6668 153.377 55.628 156.426 58.7523C159.673 62.0807 162.826 65.6656 165.799 69.402C167.513 71.5587 169.197 73.8029 170.812 76.0762C171.383 76.8864 171.191 77.9998 170.386 78.571H170.369Z" fill="black"/>
<path d="M172.776 65.1465C172.741 65.0999 172.706 65.0416 172.666 64.995C170.847 62.5118 168.848 60.0111 166.708 57.5688C166.586 57.4231 166.463 57.2832 166.335 57.1374C166.335 57.1258 164.814 55.4354 164.05 54.6193C163.648 54.188 163.234 53.7566 162.82 53.3311C160.652 51.0753 158.379 48.8894 156.024 46.8084C155.942 46.7268 155.86 46.651 155.773 46.5811C155.761 46.5811 155.61 46.4353 155.528 46.3596C154.77 45.6951 153.995 45.0364 153.22 44.3835C152.759 43.9988 152.299 43.6258 151.833 43.2469C149.699 41.5156 147.508 39.8544 145.269 38.2805L144.832 37.9774C144.791 37.9483 144.75 37.9133 144.71 37.89C143.94 37.3537 143.171 36.8291 142.401 36.322C141.853 35.9606 141.311 35.605 140.769 35.2611C140.74 35.2378 140.711 35.2203 140.682 35.2028C138.647 33.9029 136.537 32.6497 134.404 31.4781C134.404 31.4781 133.885 31.1924 133.623 31.0525C132.882 30.6562 132.131 30.2598 131.373 29.8809C130.837 29.6011 130.3 29.333 129.752 29.0707C127.397 27.9224 124.984 26.8498 122.536 25.8647C122.536 25.8647 121.813 25.5733 121.44 25.4275C120.729 25.1477 120.012 24.8796 119.283 24.6115C118.747 24.4133 118.211 24.2209 117.663 24.0286C114.457 22.8919 111.123 21.8718 107.567 20.9217C106.891 20.741 106.197 20.9742 105.766 21.4696C105.591 21.6678 105.457 21.9126 105.381 22.1866C105.125 23.1367 105.696 24.116 106.652 24.3725C111.438 25.6432 115.803 27.0655 120 28.6976C120.024 28.7093 128.178 32.1834 131.921 34.2002C131.903 34.1886 131.892 34.1827 131.874 34.1711C131.903 34.1886 131.927 34.2002 131.956 34.2177C131.944 34.2177 131.932 34.206 131.927 34.206C134.252 35.4593 136.549 36.8 138.758 38.2164C140.023 39.0208 141.311 39.8835 142.588 40.7695C142.599 40.7812 142.617 40.7928 142.634 40.8045C142.646 40.8162 142.658 40.8162 142.664 40.8278C142.675 40.8395 142.693 40.8453 142.704 40.857C146.33 43.3868 149.851 46.1381 153.167 49.0526C156.857 52.2935 160.349 55.7676 163.555 59.3874C163.572 59.4108 163.631 59.4749 163.642 59.4865C165.892 62.0396 167.997 64.6452 169.891 67.2508C170.241 67.7346 170.783 67.9853 171.337 67.9853C171.704 67.9853 172.071 67.8745 172.386 67.6413C173.184 67.0584 173.359 65.9451 172.776 65.1407V65.1465Z" fill="black"/>
<path d="M176.687 27.6719L131.775 1.74434C127.747 -0.581446 122.746 -0.581446 118.724 1.74434L73.8168 27.6719C69.789 29.9976 67.2883 34.3286 67.2883 38.9743V90.8294C67.2883 95.4809 69.789 99.8119 73.8168 102.138L118.724 128.065C120.74 129.225 122.996 129.808 125.252 129.808C127.508 129.808 129.764 129.225 131.775 128.065L152.887 115.877C153.552 115.492 153.995 114.81 154.071 114.046C154.123 113.533 154.176 112.968 154.24 112.35C154.304 111.738 153.645 111.318 153.115 111.622L129.991 124.97C127.071 126.66 123.433 126.66 120.513 124.97L75.6063 99.0425C72.686 97.3521 70.8674 94.2102 70.8674 90.8352V38.9802C70.8674 35.6052 72.686 32.4575 75.6063 30.7729L120.513 4.83955C121.976 4.00017 123.614 3.57465 125.252 3.57465C126.89 3.57465 128.528 4.00017 129.991 4.84538L174.904 30.7729C177.824 32.4575 179.643 35.6052 179.643 38.9802V90.8352C179.643 94.216 177.83 97.3579 174.904 99.0425L167.303 103.432C166.836 103.7 166.457 104.108 166.236 104.603C165.956 105.21 165.606 105.938 165.193 106.801C165.105 106.987 165.012 107.174 164.924 107.361C164.604 108.019 165.332 108.695 165.968 108.328L176.693 102.138C180.715 99.8119 183.216 95.4809 183.216 90.8294V38.9743C183.216 34.3286 180.715 29.9976 176.693 27.6719H176.687Z" fill="black"/>
<path d="M162.36 87.2563C162.36 87.2563 162.36 87.1922 162.348 87.1572C162.308 86.8191 162.197 86.5276 162.022 86.2828C161.661 85.4901 161.066 84.3942 160.565 83.5024C160.25 82.9486 159.422 83.071 159.288 83.6947C158.939 85.3269 158.513 87.0464 157.983 88.8476C157.411 90.7362 156.776 92.6015 156.076 94.4376C156.065 94.461 156.059 94.4901 156.047 94.5134C155.342 96.3554 154.578 98.1682 153.745 99.9577C153.576 100.319 153.378 100.669 153.273 101.048C153.028 101.91 153.506 102.89 154.322 103.286C155.056 103.642 155.96 103.502 156.508 102.89C156.77 102.598 156.98 102.254 157.155 101.905C157.592 101.013 158.018 100.115 158.408 99.2058C159.929 95.6442 161.206 91.9894 162.185 88.6844C162.296 88.1714 162.325 88.0782 162.337 87.9791C162.378 87.7226 162.383 87.4778 162.36 87.2505V87.2563Z" fill="black"/>
</svg>
