<svg width="250" height="200" viewBox="0 0 250 200" fill="none" xmlns="http://www.w3.org/2000/svg">
<path d="M182.625 107.904C182.864 109.316 182.82 110.76 182.486 112.154C182.032 114.039 181.08 115.767 179.73 117.16C179.093 118.907 177.145 123.497 172.264 126.631C171.533 127.097 170.763 127.513 169.969 127.879C168.55 128.522 167.062 128.983 165.523 129.247C165.46 126.738 165.397 124.235 165.328 121.731L162.957 122.879L161.286 115.552L156.985 116.838L154.803 114.203L153.265 117.349C154.721 117.482 155.61 117.98 156.14 118.377C160.05 121.322 158.681 129.481 161.841 132.23C162.068 132.419 162.32 132.577 162.578 132.709C163.026 131.681 163.474 130.654 163.928 129.626C165.441 131.656 166.4 134.046 166.696 136.562C166.696 136.637 166.715 136.719 166.721 136.795C166.986 139.576 166.444 142.375 165.151 144.853C166.52 148.819 165.542 151.316 165.17 152.117C163.285 156.222 157.452 158.712 150.49 157.71C149.235 157.527 147.993 157.25 146.776 156.865C146.952 155.604 146.757 154.324 146.208 153.176C144.67 150.061 141.056 149.582 140.741 149.538C139.789 150.061 136.598 151.972 135.747 155.49C135.23 157.659 135.684 160.074 136.976 162.269C138.421 164.734 140.911 166.928 144.235 168.202C138.25 169.186 132.152 169.293 126.137 168.524C122.586 168.063 119.087 167.288 115.681 166.203C108.19 163.813 101.241 159.986 95.2126 154.942C90.3255 150.875 86.0628 146.121 82.5441 140.824L82.1909 142.167C81.6045 144.481 80.4316 149.38 80.0406 153.763C77.1778 148.233 74.7563 142.476 72.8141 136.562C72.5429 135.748 72.2844 134.935 72.0322 134.115C70.9854 130.729 70.1215 127.381 69.39 124.096C69.2071 123.27 69.0306 122.457 68.8666 121.637C68.0153 117.431 67.391 113.345 66.937 109.436C70.2854 106.586 73.8546 104.02 77.6192 101.75C78.8236 101.018 80.1226 100.255 81.5477 99.4483C87.0086 96.3523 92.7344 93.7545 98.6556 91.68C98.3277 89.4984 98.5862 87.2726 99.3934 85.2233C99.86 84.0632 100.497 82.9849 101.291 82.0202C103.417 84.1956 106.103 85.7341 109.054 86.4655C110.303 86.7619 111.576 86.9069 112.863 86.8943L118.721 84.3091C122.769 82.5246 127.133 81.5473 131.553 81.4275C140.066 81.2005 151.493 82.1842 156.638 84.5928C158.435 85.4251 160.182 86.3646 161.866 87.3987C162.566 87.8275 163.234 88.2625 163.871 88.7165C172.334 91.5161 180.09 96.1127 186.604 102.197C186.036 104.537 184.617 106.573 182.618 107.916L182.625 107.904Z" fill="#0260A5"/>
<path d="M186.433 108.37C186.433 108.414 186.421 108.459 186.421 108.503C185.74 113.774 184.775 119.001 183.514 124.159C183.381 124.707 183.243 125.262 183.097 125.817C182.202 129.323 181.13 132.892 179.869 136.498C179.673 137.047 179.478 137.596 179.282 138.144C174.219 151.934 166.236 166.077 153.775 178.404C150.036 182.099 146.025 185.51 141.769 188.606C141.794 188.392 141.825 188.177 141.844 187.963C141.895 187.452 141.926 186.935 141.92 186.424C141.92 186.179 141.92 185.933 141.907 185.687C141.895 185.441 141.882 185.151 141.857 184.886C141.832 184.621 141.8 184.299 141.756 184.003C141.699 183.612 141.63 183.209 141.548 182.811C141.441 182.307 141.302 181.809 141.157 181.317C141.012 180.825 140.817 180.34 140.615 179.854C140.217 178.927 139.738 178.038 139.171 177.2C139.026 176.979 138.874 176.765 138.723 176.557C138.723 176.519 138.704 176.487 138.673 176.462C138.66 176.443 138.641 176.43 138.622 176.424C138.2 175.869 137.739 175.34 137.254 174.841C136.547 174.116 135.772 173.454 134.946 172.874C134.473 172.54 133.975 172.231 133.464 171.947H134.05C137.613 171.947 141.176 171.657 144.695 171.077L155.364 169.331L145.275 165.453C142.746 164.475 140.697 162.817 139.499 160.762C138.578 159.198 138.256 157.558 138.597 156.152C138.988 154.532 140.243 153.359 141.264 152.634C142.059 152.899 143.08 153.416 143.579 154.444C143.869 155.068 143.976 155.761 143.869 156.442L143.541 158.895L145.905 159.633C147.267 160.055 148.661 160.377 150.074 160.579C151.215 160.743 152.369 160.825 153.523 160.831C160.213 160.831 165.7 157.949 167.837 153.315C168.462 151.947 169.351 149.078 168.291 145.061C169.464 142.362 169.931 139.412 169.647 136.48L169.616 136.196C169.445 134.72 169.086 133.276 168.55 131.896C168.607 131.744 168.663 131.599 168.714 131.448L168.739 131.379C168.739 131.379 168.739 131.366 168.739 131.353C169.565 131.095 170.372 130.792 171.16 130.439C172.081 130.023 172.964 129.537 173.815 128.995C178.715 125.855 181.13 121.378 182.215 118.654C183.703 116.977 184.75 114.959 185.273 112.778C185.557 111.592 185.683 110.375 185.639 109.152C185.923 108.9 186.194 108.635 186.446 108.351L186.433 108.37Z" fill="#0D335C"/>
<path d="M187.36 99.0134C180.903 93.2755 173.354 88.8869 165.169 86.1189C164.583 85.7153 163.971 85.3244 163.372 84.9461C162.515 84.4164 161.607 83.8931 160.654 83.3823L159.463 76.5473C158.908 73.3316 156.808 70.6014 153.85 69.2331C146.838 65.9921 139.378 63.8294 131.723 62.8079C128.797 62.417 125.84 62.3665 122.901 62.6503C115.214 63.4006 107.685 65.2985 100.566 68.2873C97.5578 69.5484 95.3633 72.2092 94.6949 75.3997L93.1058 82.941C92.2987 86.7683 89.5935 89.9147 85.9297 91.283C84.1452 91.945 82.2912 92.6386 80.6076 93.2692C78.4951 94.0573 77.1583 96.1507 77.3285 98.3954C77.3285 98.4585 77.3411 98.5215 77.3411 98.5909C76.9186 98.8431 76.5151 99.0827 76.1241 99.3223C72.7946 101.334 69.6038 103.566 66.5833 106.019C65.732 96.6867 65.7194 87.2917 66.5517 77.9534C66.7346 75.8222 67.8445 73.8802 69.5786 72.638C84.1704 62.108 101.758 56.6034 113.701 53.8669C122.781 51.7861 132.228 51.9501 141.226 54.3524C153.062 57.5177 170.441 63.6339 184.661 74.6683C186.345 75.9735 187.379 77.9471 187.499 80.0783C187.839 86.39 187.789 92.708 187.36 99.0134Z" fill="#0D335C"/>
<path d="M60.3282 125.313C57.2572 126.442 54.2241 127.659 51.2288 128.957C44.8725 117.507 39.4999 105.533 35.1614 93.1745L43.151 90.7911L32.1724 84.0506C28.4141 71.7678 25.6837 59.1949 24 46.458C28.6664 53.0156 36.0253 61.5026 47.0165 68.6277C48.6938 69.7122 50.3397 70.6896 51.954 71.5912C53.1395 72.247 54.2052 73.1108 55.1006 74.1323C56.5321 75.9797 56.8032 77.7579 56.8158 78.7415C56.5888 81.9951 56.4248 85.7594 56.4248 89.9462C56.4059 101.517 57.6419 113.055 60.1138 124.361C60.1832 124.67 60.2588 124.991 60.3345 125.313H60.3282Z" fill="#0D335C"/>
<path d="M218.644 83.9685L208.05 90.6963L215.756 93.0671C213.233 100.514 210.478 107.387 207.678 113.673C205.111 119.417 202.488 124.657 199.922 129.405C197.084 128.156 194.209 126.984 191.302 125.887C191.377 125.559 191.453 125.231 191.529 124.89C195.697 106.453 195.709 89.7757 194.959 78.8548V78.8359C194.959 77.4235 195.47 74.1258 199.669 71.4838C201.195 70.6074 202.753 69.6427 204.329 68.5897C214.93 61.4835 222.036 53.0154 226.533 46.4641C224.906 59.1568 222.27 71.6982 218.65 83.9685H218.644Z" fill="#0D335C"/>
<path d="M112.654 176.121C111.431 177.653 110.498 179.387 109.892 181.254C109.735 181.752 109.596 182.256 109.482 182.761C109.47 182.817 109.457 182.881 109.445 182.937C109.438 182.944 109.432 182.956 109.426 182.962C109.4 183.089 109.369 183.221 109.344 183.353C109.337 183.379 109.325 183.41 109.325 183.442C109.337 183.423 109.35 183.41 109.363 183.391C109.312 183.694 109.268 183.99 109.224 184.299C109.161 184.81 109.123 185.327 109.104 185.838C109.085 186.348 109.104 186.866 109.123 187.376C109.148 187.818 109.199 188.259 109.262 188.694C98.4346 180.396 89.3478 170.043 82.5122 158.239L82.8843 154.002C83.0987 151.814 83.4329 149.632 83.8869 147.482C86.7245 151.001 89.9027 154.235 93.3772 157.129C95.496 158.895 97.7283 160.528 100.055 162.016C101.6 164.084 103.246 166.14 104.999 168.17C107.414 170.951 109.968 173.605 112.654 176.127V176.121Z" fill="#0D335C"/>
<path d="M194.321 141.013C190.204 148.832 185.329 156.222 179.761 163.088C175.606 168.208 171.078 173.013 166.216 177.465C175.297 166.619 182.359 154.021 187.265 139.904C187.448 139.387 187.625 138.863 187.801 138.34C190.002 139.178 192.171 140.068 194.321 141.013Z" fill="#C82C2F"/>
<path d="M84.1647 175.787C73.3501 165.516 64.3264 153.511 57.4656 140.269C59.5465 139.393 61.6527 138.554 63.7651 137.753C64.0111 138.535 64.2822 139.323 64.5912 140.187C69.2513 153.473 75.8094 165.402 84.1647 175.787Z" fill="#C82C2F"/>
<path d="M62.0432 30.9029L60.4542 28.7654L59.3821 27.3278L57.4525 28.7654L55.7058 30.0643L54.7284 28.7654L54.6843 28.7087L58.8525 25.6064L56.1346 21.9619L48.0063 28.0151L48.5676 28.7654L57.6859 40.9915L61.6649 38.028L58.3858 33.6269L62.0432 30.9029Z" fill="#0D335C"/>
<path d="M74.6865 22.8637C74.6424 23.3114 74.4973 23.7528 74.2766 24.1437C74.0118 24.5977 73.6271 24.9697 73.1605 25.2093C72.8137 25.4048 72.429 25.5309 72.0254 25.5687C71.6282 25.6065 71.2246 25.5687 70.8399 25.43C70.4364 25.2913 70.0643 25.0832 69.7364 24.8058C69.3644 24.4905 69.0554 24.1059 68.822 23.6771C68.5761 23.2483 68.4059 22.7817 68.3176 22.2962C68.2356 21.8738 68.2419 21.4324 68.3365 21.0099C68.4248 20.619 68.595 20.247 68.8347 19.9317C69.0869 19.6101 69.3959 19.3453 69.7553 19.1498C70.1778 18.9039 70.6571 18.7589 71.1489 18.7211C71.6219 18.6959 72.0885 18.7841 72.5173 18.9922L73.2488 13.9668C72.2525 13.702 71.212 13.6516 70.1904 13.8092C69.0806 13.9668 68.0086 14.3262 67.0312 14.8748C66.0727 15.4045 65.2277 16.1107 64.5467 16.9619C63.8845 17.7816 63.4053 18.7274 63.1278 19.7362C62.8504 20.7829 62.781 21.8675 62.9324 22.9394C63.2792 25.1652 64.3575 27.2144 66.0096 28.7529C66.1294 28.8538 66.2429 28.9484 66.3564 29.0493C67.1951 29.7303 68.1599 30.241 69.1941 30.5563C70.2093 30.8526 71.2687 30.9409 72.3218 30.8085C73.4064 30.6761 74.4532 30.3293 75.4054 29.787C75.9414 29.4907 76.4396 29.1439 76.9062 28.7529C77.3224 28.3998 77.7007 28.0026 78.0286 27.5738C78.6529 26.7604 79.1006 25.8272 79.3466 24.8247L74.6802 22.8448L74.6865 22.8637Z" fill="#0D335C"/>
<path d="M96.8894 14.1872C96.7507 14.6223 96.5237 15.0195 96.221 15.36C95.8742 15.7509 95.4201 16.0347 94.9093 16.1797C94.5247 16.2995 94.1211 16.3436 93.7239 16.2995C93.3266 16.2554 92.9419 16.1292 92.5951 15.9275C92.2294 15.7068 91.9014 15.423 91.6366 15.0889C91.3402 14.7042 91.1132 14.2692 90.9745 13.8026C90.8231 13.336 90.7475 12.8441 90.7601 12.346C90.7727 11.9173 90.8673 11.4885 91.0439 11.0913C91.2078 10.7255 91.4537 10.404 91.7501 10.1391C92.0591 9.87431 92.4185 9.67255 92.8095 9.55275C93.2761 9.39511 93.768 9.35097 94.2598 9.42033C94.7265 9.48969 95.1679 9.67885 95.5462 9.96259L97.2867 5.19573C96.366 4.73544 95.3571 4.47061 94.3292 4.41386C93.2068 4.3382 92.078 4.47692 91.006 4.82372C89.9592 5.14529 88.9881 5.66864 88.1431 6.36223C87.3297 7.0306 86.6676 7.8566 86.1883 8.78979C85.7028 9.75451 85.419 10.8075 85.3433 11.8794C85.2109 14.2881 85.9613 16.6652 87.4495 18.5631C88.1305 19.4017 88.9692 20.0953 89.9151 20.6124C90.8421 21.1105 91.8636 21.4131 92.9167 21.5014C95.1805 21.6654 97.4191 20.9466 99.1658 19.4963C99.9477 18.8279 100.578 18.0019 101.026 17.075L96.8705 14.1872H96.8894Z" fill="#0D335C"/>
<path d="M115.782 0.314941L110.769 1.04637L111.564 6.47529L107.496 7.0743L106.702 1.64538L101.733 2.3768L104.079 18.3861L109.073 17.6547L108.184 11.5763L112.251 10.9773L113.14 17.062L118.135 16.3306L115.789 0.321253L115.782 0.314941Z" fill="#0D335C"/>
<path d="M126.944 0.0249023L121.861 0.113177L122.132 16.2928L127.215 16.2045L126.944 0.0249023Z" fill="#0D335C"/>
<path d="M131.553 0L131.131 4.57771L134.801 4.91819L133.729 16.457L138.755 16.9236L139.827 5.38479L143.497 5.72528L143.926 1.14128L131.553 0Z" fill="#0D335C"/>
<path d="M165.031 6.16051L161.027 14.4899L160.945 14.471L161.563 5.20209L156.481 3.78969L152.376 12.0876L152.294 12.0686L153.17 2.87541L148.025 1.44409L147.634 18.1281L152.54 19.4964L157.092 11.2742L157.174 11.2994L156.771 20.6755L161.677 22.0437L170.026 7.57291L165.025 6.17312L165.031 6.16051Z" fill="#0D335C"/>
<path d="M178.419 11.6201L165.996 23.5561L170.795 25.9017L172.504 24.0921L176.792 26.1855L176.451 28.6635L176.647 28.7581L181.383 31.0721L181.629 28.7581L183.23 13.9657L178.413 11.6138L178.419 11.6201ZM175.417 20.889L178.28 17.8372L177.618 21.9609L175.424 20.889H175.417Z" fill="#0D335C"/>
<path d="M199.984 24.2568L197.02 28.7652L195.475 31.1108L195.406 31.0603L195.696 28.7652L196.573 21.8797L192.449 19.0107L185.663 28.7652L183.21 32.2962L187.145 35.0327L191.25 28.7652L191.377 28.5697L191.446 28.6201L191.427 28.7715L190.45 37.3405L194.675 40.2851L202.683 28.7778L203.913 26.9996L199.978 24.2631L199.984 24.2568Z" fill="#0D335C"/>
<path d="M131.163 40.2535C131.049 40.367 130.999 40.531 131.03 40.6886L132.298 47.284C132.348 47.5488 132.172 47.801 131.913 47.8452C131.806 47.8641 131.692 47.8452 131.598 47.7947L125.412 44.5033C125.273 44.4277 125.103 44.4277 124.958 44.5033L118.772 47.7947C118.538 47.9208 118.242 47.8263 118.122 47.593C118.072 47.4984 118.053 47.3849 118.072 47.2777L119.339 40.6823C119.371 40.5246 119.32 40.3607 119.207 40.2472L114.294 35.474C114.105 35.2912 114.099 34.9885 114.282 34.7931C114.357 34.7174 114.452 34.667 114.553 34.6543L121.256 33.6329C121.407 33.6077 121.54 33.5131 121.609 33.3744L123.942 28.7525L124.756 27.1446C124.876 26.905 125.166 26.8105 125.405 26.9366C125.494 26.9807 125.569 27.0564 125.613 27.1446L126.427 28.7525L128.76 33.3744C128.829 33.5131 128.962 33.6077 129.113 33.6329L135.81 34.6543C136.075 34.6922 136.251 34.9381 136.214 35.2029C136.195 35.3038 136.151 35.4047 136.075 35.474L131.169 40.2472L131.163 40.2535Z" fill="#C82C2F"/>
<path d="M103.807 44.3019C103.693 44.4154 103.637 44.5793 103.674 44.7369L104.538 49.2516C104.589 49.5101 104.418 49.7623 104.16 49.8127C104.053 49.8317 103.939 49.8128 103.845 49.7623L99.5945 47.4987C99.4558 47.423 99.2855 47.423 99.1468 47.4987L94.8966 49.7623C94.6633 49.8884 94.3732 49.8001 94.2471 49.5605C94.1967 49.466 94.1778 49.3525 94.1967 49.2453L95.0669 44.7306C95.0984 44.573 95.0479 44.409 94.9281 44.2955L91.5545 41.0168C91.3653 40.8339 91.359 40.5249 91.5482 40.3358C91.6239 40.2601 91.7184 40.2097 91.8193 40.1971L96.4226 39.4909C96.574 39.4656 96.7127 39.3711 96.7821 39.2323L98.9513 34.9321C99.0711 34.6988 99.3549 34.5979 99.5945 34.7177C99.6891 34.7618 99.7585 34.8375 99.8089 34.9321L101.972 39.2323C102.041 39.3711 102.174 39.4656 102.331 39.4909L106.935 40.1971C107.193 40.2349 107.376 40.4808 107.338 40.7393C107.326 40.8465 107.275 40.9411 107.199 41.0168L103.826 44.2955L103.807 44.3019Z" fill="#C82C2F"/>
<path d="M85.1043 50.8843C84.9908 50.9978 84.934 51.1617 84.9655 51.3194L85.3565 53.3623C85.4069 53.6208 85.2367 53.873 84.9718 53.9235C84.8646 53.9424 84.7511 53.9235 84.6565 53.873L82.7017 52.839C82.563 52.7633 82.3927 52.7633 82.2477 52.839L80.2929 53.873C80.0596 53.9991 79.7695 53.9109 79.6434 53.6713C79.5929 53.5767 79.574 53.4632 79.5929 53.356L79.9839 51.3131C80.0154 51.1554 79.965 50.9915 79.8452 50.878L78.3002 49.3773C78.111 49.1945 78.1047 48.8918 78.2876 48.6963C78.3633 48.6207 78.4579 48.5702 78.5588 48.5576L80.6712 48.236C80.8226 48.2108 80.9613 48.1162 81.0307 47.9775L82.0333 45.9913C82.1531 45.7517 82.4432 45.6571 82.6828 45.7832C82.7711 45.8274 82.8467 45.9031 82.8909 45.9913L83.8935 47.9775C83.9629 48.1162 84.0953 48.2108 84.2467 48.236L86.3717 48.5576C86.6366 48.5955 86.8132 48.8414 86.7753 49.1062C86.7564 49.2071 86.7123 49.308 86.6366 49.3773L85.0979 50.878L85.1043 50.8843Z" fill="#C82C2F"/>
<path d="M155.44 44.3019C155.32 44.4154 155.27 44.5793 155.308 44.7369L156.172 49.2516C156.222 49.5101 156.052 49.7623 155.793 49.8127C155.686 49.8317 155.573 49.8128 155.478 49.7623L151.228 47.4987C151.089 47.423 150.919 47.423 150.774 47.4987L146.524 49.7623C146.29 49.8884 146 49.7938 145.874 49.5605C145.824 49.466 145.805 49.3525 145.83 49.2453L146.7 44.7306C146.732 44.573 146.681 44.409 146.561 44.2955L143.188 41.0168C142.999 40.8339 142.992 40.5249 143.181 40.3358C143.257 40.2601 143.352 40.2097 143.453 40.1971L148.056 39.4909C148.207 39.4656 148.346 39.3711 148.415 39.2323L150.585 34.9321C150.704 34.6988 150.988 34.5979 151.228 34.7177C151.322 34.7618 151.392 34.8375 151.442 34.9321L153.605 39.2197C153.674 39.3584 153.807 39.453 153.965 39.4782L158.568 40.1845C158.833 40.2223 159.009 40.4682 158.971 40.733C158.959 40.8339 158.908 40.9285 158.833 41.0042L155.465 44.2892L155.44 44.3019Z" fill="#C82C2F"/>
<path d="M170.492 50.8843C170.372 50.9978 170.322 51.1618 170.353 51.3194L170.744 53.3623C170.795 53.6209 170.625 53.8731 170.36 53.9235C170.252 53.9424 170.139 53.9235 170.044 53.8731L168.09 52.839C167.951 52.7633 167.781 52.7633 167.636 52.839L165.681 53.8731C165.447 53.9992 165.157 53.9109 165.031 53.6776C164.981 53.583 164.962 53.4695 164.981 53.3623L165.372 51.3194C165.403 51.1618 165.353 50.9978 165.239 50.8843L163.688 49.3837C163.499 49.1945 163.499 48.8918 163.688 48.7027C163.764 48.627 163.852 48.5829 163.959 48.564L166.072 48.2424C166.223 48.2235 166.362 48.1226 166.431 47.9839L167.465 45.9977C167.585 45.7581 167.875 45.6635 168.108 45.7833C168.197 45.8274 168.272 45.9031 168.323 45.9977L169.325 47.9839C169.395 48.1226 169.534 48.2172 169.685 48.2424L171.797 48.564C172.062 48.6018 172.239 48.8477 172.201 49.1125C172.182 49.2134 172.138 49.3143 172.062 49.3837L170.505 50.8843H170.492Z" fill="#C82C2F"/>
<path d="M138.181 181.161C135.337 174.155 127.354 170.776 120.348 173.619C113.342 176.463 109.962 184.446 112.806 191.451C115.65 198.456 123.633 201.836 130.639 198.992C135.803 196.899 139.183 191.88 139.183 186.306C139.183 184.54 138.843 182.787 138.181 181.148V181.161ZM130.355 174.445C133.395 175.687 135.841 178.052 137.191 181.047C136.428 180.524 135.608 180.082 134.75 179.736C134.612 179.679 134.479 179.635 134.341 179.584L130.311 175.044C130.33 174.836 130.343 174.641 130.355 174.445ZM125.172 175.738C126.067 175.643 126.969 175.542 127.871 175.492C128.426 175.454 128.981 175.454 129.542 175.492L133.647 180.108C133.508 180.555 133.369 181.003 133.205 181.438C132.915 182.201 132.606 182.958 132.297 183.721L126.357 184.332C126.288 184.238 126.212 184.137 126.13 184.061C125.43 183.267 124.724 182.478 124.018 181.684L124.037 181.665L123.185 180.814L124.838 175.832C124.951 175.795 125.065 175.769 125.178 175.744L125.172 175.738ZM114.754 180.549C114.963 180.007 115.164 179.458 115.391 178.922C115.568 178.512 115.77 178.109 115.997 177.724C116.142 177.566 116.293 177.403 116.444 177.251C117.844 175.851 119.553 174.792 121.432 174.162L121.401 174.206C121.401 174.206 121.42 174.225 121.432 174.231C122.34 174.552 123.198 175.006 123.98 175.574L122.435 180.227H122.41C122.094 180.36 121.773 180.473 121.458 180.618C120.171 181.186 118.929 181.86 117.743 182.623L114.691 180.82C114.691 180.725 114.71 180.631 114.742 180.543L114.754 180.549ZM115.404 192.151C115.347 192.126 115.297 192.094 115.246 192.063C114.59 191.653 113.985 191.167 113.443 190.612C112.623 188.305 112.484 185.814 113.027 183.424C113.285 182.92 113.575 182.434 113.903 181.968C114.004 181.823 114.099 181.678 114.206 181.539L117.296 183.367V183.443C117.296 185.101 117.46 186.753 117.794 188.374V188.393L115.404 192.144V192.151ZM119.131 197.428L124.302 198.349C124.346 198.374 124.384 198.399 124.428 198.418C124.957 198.689 125.506 198.923 126.074 199.106C123.646 199.207 121.237 198.62 119.137 197.403V197.422L119.131 197.428ZM124.68 197.157C124.598 197.271 124.503 197.378 124.409 197.491L118.305 196.401C117.586 195.537 116.949 194.61 116.394 193.633C116.255 193.387 116.098 193.141 115.978 192.882L118.368 189.131L118.551 189.175C120.051 189.566 121.565 189.868 123.103 190.083C123.192 190.095 123.267 190.108 123.33 190.114L126.193 195.07C125.695 195.757 125.191 196.445 124.68 197.138V197.157ZM131.768 194.15C130.172 194.446 128.558 194.604 126.937 194.61L123.986 189.515C124.447 188.664 124.901 187.806 125.355 186.955C125.664 186.369 125.966 185.782 126.263 185.196L132.367 184.572C133.123 185.663 133.811 186.798 134.435 187.964C134.555 188.178 134.662 188.399 134.776 188.62L131.824 194.131L131.774 194.15H131.768ZM134.568 195.373C134.088 195.852 133.571 196.293 133.023 196.691C132.934 195.978 132.783 195.272 132.562 194.591L135.621 188.885C136.466 188.506 137.273 188.052 138.029 187.516C138.124 187.453 138.206 187.378 138.275 187.283C138.055 190.335 136.737 193.21 134.574 195.373H134.568Z" fill="#C82C2F"/>
<path d="M175.795 94.1077C172.024 91.8882 168.033 90.0785 163.877 88.704C163.24 88.2563 162.572 87.8212 161.872 87.3861C160.182 86.3521 158.435 85.4189 156.644 84.5802C151.499 82.1653 140.066 81.188 131.559 81.415C127.133 81.5348 122.775 82.5121 118.727 84.2965L112.869 86.8817C111.582 86.8943 110.302 86.7493 109.054 86.4529C105.169 85.526 102.577 83.2939 101.297 82.014C100.503 82.985 99.8596 84.0695 99.3993 85.2297C98.5922 87.2789 98.3336 89.5047 98.6615 91.6864C92.7403 93.7609 87.0145 96.3587 81.5536 99.4546C80.1285 100.262 78.8169 101.018 77.6251 101.756C73.8668 104.02 70.2913 106.592 66.9492 109.436C67.3969 113.345 68.0212 117.431 68.8788 121.637C69.0428 122.457 69.2193 123.27 69.4022 124.096C70.1337 127.381 71.0039 130.736 72.0444 134.115C72.2903 134.929 72.5552 135.742 72.8263 136.562C74.7748 142.482 77.19 148.233 80.0528 153.763C80.4438 149.374 81.6167 144.475 82.2032 142.167L82.5626 140.824C86.075 146.121 90.3377 150.881 95.2185 154.948C101.247 159.992 108.202 163.82 115.687 166.21C119.099 167.294 122.599 168.07 126.143 168.53C132.158 169.306 138.25 169.192 144.234 168.208C140.911 166.935 138.42 164.74 136.982 162.275C135.69 160.081 135.236 157.666 135.753 155.497C136.598 151.978 139.788 150.074 140.747 149.544C141.069 149.589 144.682 150.068 146.214 153.183C146.763 154.33 146.965 155.61 146.782 156.871C147.992 157.25 149.235 157.533 150.496 157.716C157.458 158.719 163.29 156.222 165.176 152.123C165.548 151.323 166.519 148.819 165.163 144.86C166.456 142.382 167.005 139.582 166.734 136.801C166.734 136.726 166.715 136.644 166.708 136.568C166.412 134.052 165.46 131.662 163.94 129.632C163.492 130.66 163.038 131.688 162.591 132.715C162.326 132.583 162.08 132.425 161.853 132.236C158.681 129.487 160.043 121.322 156.133 118.377C155.604 117.986 154.714 117.482 153.258 117.349L154.796 114.203L156.978 116.839L161.279 115.552L162.969 122.879L165.346 121.725C165.416 124.235 165.479 126.738 165.542 129.241C167.074 128.976 168.569 128.516 169.987 127.873C170.782 127.514 171.545 127.097 172.283 126.624C177.17 123.497 179.106 118.9 179.749 117.154C181.098 115.76 182.051 114.033 182.505 112.147C182.832 110.754 182.883 109.31 182.643 107.898C184.636 106.554 186.055 104.518 186.616 102.185C183.318 99.1078 179.692 96.3965 175.801 94.1077H175.795ZM158.801 95.6399C158.801 95.6399 158.296 96.3713 155.868 97.4558C154.361 95.5201 152.356 94.0383 150.067 93.1555C150.067 93.1555 155.982 92.8529 158.801 95.6336V95.6399ZM121.098 139.727C117.882 137.861 115.076 135.357 112.856 132.375C116.759 125.527 118.052 117.501 116.488 109.777C106.474 112.532 97.3562 117.854 90.0288 125.212C91.2773 119.871 93.9447 114.972 97.7535 111.025C94.3987 111.542 91.1197 112.456 87.9857 113.749C82.2158 116.145 77.026 119.745 72.7696 124.31C72.4984 120.842 72.965 117.362 74.1379 114.089C79.5231 99.2592 97.9174 95.6525 99.5759 95.3498C103.631 102.809 111.21 107.689 119.679 108.295C120.228 109.404 120.656 110.565 120.965 111.763C123.185 120.288 118.487 128.043 116.722 130.673C119.458 135.25 123.084 139.229 127.397 142.369C125.197 141.757 123.078 140.875 121.098 139.733V139.727ZM164.028 134.922C164.482 136.309 164.634 137.772 164.463 139.223C164.419 139.576 164.363 139.929 164.281 140.276C164.091 141.083 163.808 141.871 163.429 142.609C160.245 143.706 156.726 142.546 154.815 139.771C153.769 140.414 153.056 140.376 152.665 140.288C150.786 139.859 149.411 136.618 149.733 132.142C149.815 132.129 149.916 132.116 150.029 132.11C150.363 132.098 150.698 132.129 151.019 132.211C151.353 132.299 151.675 132.438 151.965 132.627C151.934 132.961 151.82 133.289 151.637 133.567C151.417 133.901 151.101 134.159 150.735 134.317C151.99 135.042 153.378 135.496 154.822 135.654C155.364 135.71 155.913 135.723 156.461 135.685C156.461 135.685 157.287 136.568 156.795 139.292C156.959 139.273 157.123 139.248 157.294 139.216C158 139.09 158.687 138.895 159.349 138.63C161.228 137.861 162.849 136.574 164.028 134.922ZM155.868 121.87C158.454 124.146 156.568 128.51 159.532 132.76C159.974 133.39 160.484 133.97 161.052 134.487C160.497 134.941 159.892 135.332 159.248 135.647C158.914 135.811 158.567 135.956 158.221 136.076L159.015 133.415L155.358 133.314C154.809 131.681 153.914 130.193 152.734 128.939C152.142 128.308 151.48 127.753 150.761 127.268C151.177 127.274 151.587 127.35 151.978 127.488C152.514 127.684 152.993 127.999 153.39 128.409C152.161 126.757 152.009 124.745 152.943 123.465C153.397 122.879 154.027 122.45 154.74 122.255L152.489 120.735C154.349 120.792 155.339 121.41 155.868 121.87ZM174.193 120.969C172.819 123.213 170.675 124.872 168.159 125.641C168.398 123.888 168.291 122.104 167.843 120.395C167.629 119.588 167.339 118.799 166.973 118.049L164.766 119.178L162.761 112.065L157.924 114.165L156.947 112.513L156.688 112.065L160.516 109.423L162.767 111.202L163.316 108.938C164.476 109.518 165.504 110.338 166.33 111.34C167.471 112.753 168.184 114.461 168.379 116.265L169.622 114.915C171.015 116.763 173.052 118.024 175.335 118.434C175.064 119.323 174.685 120.174 174.2 120.969H174.193ZM179.352 112.318C178.526 118.415 170.063 113.825 167.957 110.167C167.957 110.167 169.268 111.176 169.924 111.195C168.966 109.682 166.979 107.109 163.852 106.397C156.871 104.808 150.723 114.001 149.998 115.092C145.962 121.12 146.101 127.564 146.34 130.313C146.876 125.66 148.554 121.208 151.227 117.356C148.005 124.708 147.362 132.93 149.399 140.692C148.289 140.566 147.236 140.124 146.366 139.418C144.486 137.854 144.31 135.629 144.285 135.212C143.919 137.186 143.717 140.074 145.363 142.092C149.241 146.839 159.936 142.558 162.048 146.423C162.521 147.287 162.736 148.864 160.919 151.941C160.655 150.774 160.093 149.696 159.286 148.813C156.783 146.133 151.934 145.749 147.135 147.836C142.393 143.29 139.549 137.11 139.17 130.553C138.149 133.157 137.676 135.944 137.771 138.737C136.963 138.561 130.349 137.009 128.457 131.562C127.542 128.932 127.41 124.468 129.712 123.447C131.231 122.772 133.47 123.737 135.343 125.603C137.304 118.907 140.659 112.709 145.193 107.406C137.733 106.321 131.105 102.071 127.013 95.7408C124.944 96.4028 122.725 96.4028 120.656 95.7408C121.117 96.6172 121.426 97.563 121.577 98.5403C121.804 100.041 121.653 101.58 121.142 103.011C117.497 96.7244 111.488 92.1656 104.45 90.356C105.163 95.0472 107.54 99.3285 111.153 102.406C111.002 102.361 100.238 98.9943 102.363 86.4592C103.851 87.8401 105.604 88.912 107.515 89.5993C112.623 91.4027 116.009 89.2651 122.428 90.2488C124.913 90.6334 127.322 91.3964 129.579 92.4935C128.86 91.327 127.933 90.3055 126.843 89.4732C124.692 87.8338 122.037 87.7897 122.019 87.3609C121.974 86.5286 131.767 83.4516 142.759 85.7467C147.185 86.6799 151.417 88.3698 155.263 90.7469C149.052 88.7733 142.437 88.4328 136.062 89.757L144.966 92.5565C145.987 96.4596 148.421 99.8456 151.801 102.046C147.885 106.359 145.546 111.876 145.161 117.69C148.32 111.637 152.829 106.397 158.34 102.368C156.84 103.856 155.585 105.571 154.614 107.45C155.812 106.523 157.086 105.684 158.416 104.959C161.5 103.269 163.045 102.418 164.64 102.532C167.887 102.752 168.493 105.987 173.733 107.828C174.54 108.112 175.373 108.333 176.211 108.484C175.902 107.998 175.6 107.425 175.278 106.8C174.811 105.886 174.351 104.827 174.351 104.259C174.351 104.259 180.178 106.22 179.352 112.318ZM173.184 99.3159L166.443 99.6564L170.599 97.0397L165.214 97.481C164.772 95.4318 163.94 93.4897 162.761 91.7621C169.823 93.4771 176.262 97.1342 181.357 102.311L173.184 99.3222V99.3159Z" fill="#0D335C"/>
<path d="M164.457 139.216C164.413 139.569 164.356 139.922 164.274 140.269C164.085 141.076 163.801 141.864 163.423 142.602C160.238 143.699 156.72 142.539 154.809 139.765C153.762 140.408 153.05 140.37 152.659 140.282C150.78 139.853 149.405 136.612 149.726 132.135C149.808 132.123 149.909 132.11 150.023 132.104C150.357 132.091 150.691 132.123 151.013 132.205C151.347 132.293 151.669 132.432 151.959 132.621C151.927 132.955 151.814 133.283 151.631 133.56C151.41 133.894 151.095 134.153 150.729 134.311C151.984 135.036 153.371 135.49 154.815 135.647C155.358 135.704 155.906 135.717 156.455 135.679C156.455 135.679 157.281 136.562 156.789 139.286C156.953 139.267 157.117 139.241 157.287 139.21C157.993 139.084 158.681 138.888 159.343 138.624C161.216 137.848 162.836 136.562 164.009 134.91C164.47 136.297 164.621 137.76 164.451 139.21L164.457 139.216Z" fill="white"/>
<path d="M161.039 134.487C160.485 134.941 159.879 135.332 159.236 135.647C158.902 135.811 158.555 135.956 158.208 136.076L159.003 133.415L155.345 133.314C154.797 131.681 153.901 130.193 152.722 128.938C152.129 128.308 151.467 127.753 150.748 127.267C151.164 127.274 151.574 127.349 151.965 127.488C152.501 127.683 152.981 127.999 153.378 128.409C152.148 126.757 151.997 124.745 152.93 123.465C153.384 122.879 154.015 122.45 154.727 122.254L152.476 120.735C154.343 120.792 155.333 121.41 155.862 121.876C158.448 124.152 156.562 128.516 159.526 132.766C159.967 133.396 160.472 133.976 161.039 134.493V134.487Z" fill="#C82C2F"/>
<path d="M175.322 118.44C174.288 121.889 171.595 124.594 168.152 125.647C168.392 123.894 168.285 122.109 167.837 120.401C167.623 119.594 167.333 118.805 166.967 118.055L164.76 119.184L162.754 112.071L157.918 114.171L156.94 112.519L156.682 112.071L160.51 109.429L162.761 111.207L163.309 108.944C164.47 109.524 165.497 110.344 166.324 111.346C167.465 112.759 168.177 114.467 168.373 116.271L169.615 114.921C171.009 116.769 173.046 118.03 175.328 118.44H175.322Z" fill="white"/>
<path d="M158.801 95.6397C158.801 95.6397 158.297 96.3712 155.869 97.4557C154.362 95.5199 152.356 94.0382 150.067 93.1554C150.067 93.1554 155.976 92.8528 158.801 95.6334V95.6397Z" fill="white"/>
</svg>
