<svg width="250" height="201" viewBox="0 0 250 201" fill="none" xmlns="http://www.w3.org/2000/svg">
<path d="M124.181 97.8667L126.54 94.9514L128.899 97.8667L131.257 94.9514L132.811 96.8692L134.432 95.5576L131.257 91.6448L128.899 94.5601L126.54 91.6448L124.181 94.5546L121.822 91.6448L119.464 94.5546L117.915 92.6423L116.295 93.9539L119.464 97.8667L121.822 94.9514L124.181 97.8667Z" fill="#036688" stroke="#036688" stroke-width="0.5"/>
<path d="M106.954 50.384L107.593 52.368L114.889 50.0148L114.586 41.335L117.634 38.3811L125.36 41.6271L133.092 38.3811L136.14 41.335L135.831 50.0258L143.458 52.3735L144.07 50.384L137.97 48.5048L138.251 40.4808L133.55 35.9287L125.36 39.3841L117.177 35.9287L112.47 40.4808L112.757 48.5158L106.954 50.384Z" fill="#036688" stroke="#036688" stroke-width="0.5"/>
<path d="M102.203 70.6697L106.193 78.5945L114.675 77.4537L121.745 74.8085L110.321 68.3992L102.198 70.6752L102.203 70.6697ZM114.168 75.4202L107.384 76.335L105.196 71.9978L110.056 70.6366L116.818 74.4337L114.162 75.4257L114.168 75.4202Z" fill="#036688" stroke="#036688" stroke-width="0.5"/>
<path d="M128.92 74.8035L135.991 77.4487L144.472 78.5895L148.462 70.6647L140.339 68.3887L128.915 74.7979L128.92 74.8035ZM145.47 71.9929L143.282 76.33L136.503 75.4152L133.847 74.4232L140.609 70.6261L145.47 71.9873V71.9929Z" fill="#036688" stroke="#036688" stroke-width="0.5"/>
<path d="M167.773 105.61L166.279 92.9288L165.976 70.7195L157.175 72.7145L147.189 57.0247L128.093 50.8248L128.926 53.2827L145.833 58.7717L155.015 73.205L152.044 73.8773L154.199 81.4604L156.2 80.8928L154.645 75.4259L163.926 73.3207L164.196 93.017L165.629 105.202L160.482 107.004L158.498 94.7089L156.2 87.8036L158.817 86.8447L158.889 89.782L160.972 89.7324L160.829 83.8963L153.587 86.5471L156.464 95.1277L157.781 103.273L144.715 117.971L128.121 116.483L127.934 118.555L137.231 119.387L125.371 127.99L113.506 119.387L122.803 118.555L122.615 116.483L106.022 117.971L92.9552 103.273L94.2724 95.1277L97.1491 86.5471L89.9077 83.8963L89.7644 89.7324L91.8475 89.782L91.9192 86.8447L94.5369 87.8036L92.2774 94.5435L90.2493 107.004L85.1076 105.202L86.5349 93.1217L86.8105 73.3207L96.091 75.4259L94.5369 80.8928L96.5374 81.4604L98.6922 73.8773L95.7218 73.205L104.903 58.7717L121.761 53.2993L122.654 50.8193L103.553 57.0192L93.567 72.709L84.7659 70.714L84.4628 92.9233L82.9693 105.604L64.6948 143.195L79.2714 134.856L91.9192 109.781L92.5419 105.913L105.179 120.126L110.365 119.663L125.388 130.552L140.405 119.663L145.591 120.126L158.228 105.913L158.85 109.781L171.355 134.57L171.493 134.856L186.069 143.195L167.795 105.604L167.773 105.61ZM77.6622 133.374L69.4949 138.047L84.4904 107.197L89.6156 108.993L77.6622 133.38V133.374ZM161.104 108.988L166.23 107.191L181.225 138.042L173.058 133.368L161.104 108.982V108.988Z" fill="#036688" stroke="#036688" stroke-width="0.5"/>
<path d="M122.269 81.2958L121.481 79.3669L116.956 81.2131L113.6 85.7707L119.419 87.3083L125.035 88.0357L130.513 87.3303L136.465 85.7707L133.109 81.2131L128.584 79.3669L127.796 81.2958L131.781 82.9215L132.971 84.5418L130.182 85.2747L125.035 85.936L119.888 85.2747L117.094 84.5418L118.284 82.9215L122.269 81.2958Z" fill="#036688" stroke="#036688" stroke-width="0.5"/>
<path d="M104.314 107.963L108.998 113.055L125.361 109.06L141.728 113.055L146.413 107.963L149.857 88.1787L140.747 84.343L139.943 86.2609L147.52 89.4572L144.467 107.004L141.028 110.741L125.361 106.949L109.698 110.741L106.259 107.004L103.201 89.4462L110.591 86.2443L109.764 84.332L100.87 88.1897L104.314 107.963Z" fill="#036688" stroke="#036688" stroke-width="0.5"/>
<path d="M115.595 89.893L113.65 89.1379L108.232 103.103L142.334 103.4L140.262 95.6905L138.251 96.2306L139.612 101.295L111.263 101.047L115.595 89.893Z" fill="#036688" stroke="#036688" stroke-width="0.5"/>
<path d="M178.569 66.735L180.773 54.3904L169.079 58.0221L166.875 70.3667L178.569 66.735ZM170.903 59.6368L178.123 57.3939L176.745 65.1203L169.526 67.3633L170.903 59.6368Z" fill="#036688" stroke="#036688" stroke-width="0.5"/>
<path d="M84.3309 70.4329L82.1265 58.0883L70.4321 54.4565L72.6365 66.8012L84.3309 70.4329ZM80.2968 59.703L81.6746 67.4294L74.4552 65.1864L73.0774 57.46L80.2968 59.703Z" fill="#036688" stroke="#036688" stroke-width="0.5"/>
<path d="M108.976 30.0426L96.4881 22.0461L95.0994 37.1793L107.587 45.1758L108.976 30.0426ZM105.829 41.5771L97.2872 36.1102L98.2461 25.6448L106.788 31.1117L105.829 41.5771Z" fill="#036688" stroke="#036688" stroke-width="0.5"/>
<path d="M96.5926 58.3751L94.818 44.7464L82.2034 40.1667L83.9779 53.7954L96.5926 58.3751ZM92.9168 46.2674L94.0851 55.2503L85.8792 52.2689L84.7109 43.286L92.9223 46.2674H92.9168Z" fill="#036688" stroke="#036688" stroke-width="0.5"/>
<path d="M155.632 37.1793L154.243 22.0461L141.755 30.0426L143.144 45.1758L155.632 37.1793ZM152.485 25.6448L153.444 36.1102L144.902 41.5771L143.943 31.1117L152.485 25.6448Z" fill="#036688" stroke="#036688" stroke-width="0.5"/>
<path d="M166.748 53.7954L168.522 40.1667L155.908 44.7464L154.133 58.3751L166.748 53.7954ZM157.809 46.2729L166.015 43.2915L164.846 52.2744L156.641 55.2558L157.809 46.2729Z" fill="#036688" stroke="#036688" stroke-width="0.5"/>
<path d="M135.021 16.8276L124.346 1L115.049 18.4533L125.724 34.2809L135.021 16.8276ZM117.474 18.3266L124.556 5.03405L132.596 16.9543L125.515 30.2468L117.474 18.3266Z" fill="#036688" stroke="#036688" stroke-width="0.5"/>
<path d="M125.36 48.946L117.518 65.8648L125.36 71.9324L133.202 65.8648L125.36 48.946ZM120.56 65.2476L125.36 54.5121L130.16 65.2476L125.36 68.8297L120.56 65.2476Z" fill="#F05822"/>
<path d="M56.1698 201L38 158.681H44.8722C44.8722 158.681 55.9659 185.955 56.1698 186.919C56.4123 185.9 67.4949 158.681 67.4949 158.681H74.3396L56.1698 201Z" fill="#036688"/>
<path d="M101.559 199.418V158.686H108.183V199.418H101.559Z" fill="#036688"/>
<path d="M121.051 181.193V199.418H114.846V158.686H124.082C126.788 158.686 128.893 158.862 130.381 159.215C131.875 159.568 133.148 160.152 134.206 160.968C135.468 161.949 136.438 163.222 137.127 164.781C137.81 166.341 138.157 168.044 138.157 169.901C138.157 173.163 137.369 175.721 135.793 177.567C134.217 179.413 131.886 180.521 128.811 180.89L142.831 199.418H135.347L121.046 181.193H121.051ZM121.47 176.046H122.666C126.171 176.046 128.496 175.638 129.648 174.822C130.8 174.007 131.373 172.557 131.373 170.48C131.373 168.237 130.756 166.655 129.522 165.735C128.287 164.814 126 164.357 122.66 164.357H121.464V176.04L121.47 176.046Z" fill="#036688"/>
<path d="M176.508 199.418L171.89 188.931H155.753L151.025 199.418H144.07L163.794 157.072L183.49 199.418H176.508ZM158.2 183.42H169.553C169.553 183.42 164.108 170.452 163.849 169.51C163.629 170.403 158.2 183.42 158.2 183.42Z" fill="#036688"/>
<path d="M194.551 201L176.381 158.681H183.254C183.254 158.681 194.347 185.955 194.551 186.919C194.794 185.9 205.876 158.681 205.876 158.681H212.721L194.551 201Z" fill="#036688"/>
<path d="M81.5588 157.072L66.5688 189.405L81.5588 201L96.5487 189.405L81.5588 157.072ZM72.3829 188.236L81.5588 167.719L90.7346 188.236L81.5588 195.081L72.3829 188.236Z" fill="#F05822"/>
<path opacity="0.75" d="M90.7349 188.236L81.5591 195.08V200.999L96.549 189.404L90.7349 188.236Z" fill="#221F1F"/>
<path opacity="0.45" d="M72.3829 188.236L81.5588 195.08V200.999L66.5688 189.404L72.3829 188.236Z" fill="#221F1F"/>
<path opacity="0.3" d="M81.5591 157.072V167.713L90.7349 188.236L96.549 189.405L81.5591 157.072Z" fill="#221F1F"/>
</svg>
